<?xml version="1.0" encoding="utf-8" standalone="no"?>
<!DOCTYPE svg PUBLIC "-//W3C//DTD SVG 1.1//EN"
  "http://www.w3.org/Graphics/SVG/1.1/DTD/svg11.dtd">
<!-- Created with matplotlib (https://matplotlib.org/) -->
<svg height="720pt" version="1.1" viewBox="0 0 936 720" width="936pt" xmlns="http://www.w3.org/2000/svg" xmlns:xlink="http://www.w3.org/1999/xlink">
 <defs>
  <style type="text/css">
*{stroke-linecap:butt;stroke-linejoin:round;}
  </style>
 </defs>
 <g id="figure_1">
  <g id="patch_1">
   <path d="M 0 720 
L 936 720 
L 936 0 
L 0 0 
z
" style="fill:#ffffff;"/>
  </g>
  <g id="axes_1">
   <g id="patch_2">
    <path d="M 187.2 630 
L 842.4 630 
L 842.4 86.4 
L 187.2 86.4 
z
" style="fill:#ffffff;"/>
   </g>
   <g id="matplotlib.axis_1">
    <g id="xtick_1">
     <g id="text_1">
      <!-- 1e-05 -->
      <defs>
       <path d="M 12.40625 8.296875 
L 28.515625 8.296875 
L 28.515625 63.921875 
L 10.984375 60.40625 
L 10.984375 69.390625 
L 28.421875 72.90625 
L 38.28125 72.90625 
L 38.28125 8.296875 
L 54.390625 8.296875 
L 54.390625 0 
L 12.40625 0 
z
" id="DejaVuSans-49"/>
       <path d="M 56.203125 29.59375 
L 56.203125 25.203125 
L 14.890625 25.203125 
Q 15.484375 15.921875 20.484375 11.0625 
Q 25.484375 6.203125 34.421875 6.203125 
Q 39.59375 6.203125 44.453125 7.46875 
Q 49.3125 8.734375 54.109375 11.28125 
L 54.109375 2.78125 
Q 49.265625 0.734375 44.1875 -0.34375 
Q 39.109375 -1.421875 33.890625 -1.421875 
Q 20.796875 -1.421875 13.15625 6.1875 
Q 5.515625 13.8125 5.515625 26.8125 
Q 5.515625 40.234375 12.765625 48.109375 
Q 20.015625 56 32.328125 56 
Q 43.359375 56 49.78125 48.890625 
Q 56.203125 41.796875 56.203125 29.59375 
z
M 47.21875 32.234375 
Q 47.125 39.59375 43.09375 43.984375 
Q 39.0625 48.390625 32.421875 48.390625 
Q 24.90625 48.390625 20.390625 44.140625 
Q 15.875 39.890625 15.1875 32.171875 
z
" id="DejaVuSans-101"/>
       <path d="M 4.890625 31.390625 
L 31.203125 31.390625 
L 31.203125 23.390625 
L 4.890625 23.390625 
z
" id="DejaVuSans-45"/>
       <path d="M 31.78125 66.40625 
Q 24.171875 66.40625 20.328125 58.90625 
Q 16.5 51.421875 16.5 36.375 
Q 16.5 21.390625 20.328125 13.890625 
Q 24.171875 6.390625 31.78125 6.390625 
Q 39.453125 6.390625 43.28125 13.890625 
Q 47.125 21.390625 47.125 36.375 
Q 47.125 51.421875 43.28125 58.90625 
Q 39.453125 66.40625 31.78125 66.40625 
z
M 31.78125 74.21875 
Q 44.046875 74.21875 50.515625 64.515625 
Q 56.984375 54.828125 56.984375 36.375 
Q 56.984375 17.96875 50.515625 8.265625 
Q 44.046875 -1.421875 31.78125 -1.421875 
Q 19.53125 -1.421875 13.0625 8.265625 
Q 6.59375 17.96875 6.59375 36.375 
Q 6.59375 54.828125 13.0625 64.515625 
Q 19.53125 74.21875 31.78125 74.21875 
z
" id="DejaVuSans-48"/>
       <path d="M 10.796875 72.90625 
L 49.515625 72.90625 
L 49.515625 64.59375 
L 19.828125 64.59375 
L 19.828125 46.734375 
Q 21.96875 47.46875 24.109375 47.828125 
Q 26.265625 48.1875 28.421875 48.1875 
Q 40.625 48.1875 47.75 41.5 
Q 54.890625 34.8125 54.890625 23.390625 
Q 54.890625 11.625 47.5625 5.09375 
Q 40.234375 -1.421875 26.90625 -1.421875 
Q 22.3125 -1.421875 17.546875 -0.640625 
Q 12.796875 0.140625 7.71875 1.703125 
L 7.71875 11.625 
Q 12.109375 9.234375 16.796875 8.0625 
Q 21.484375 6.890625 26.703125 6.890625 
Q 35.15625 6.890625 40.078125 11.328125 
Q 45.015625 15.765625 45.015625 23.390625 
Q 45.015625 31 40.078125 35.4375 
Q 35.15625 39.890625 26.703125 39.890625 
Q 22.75 39.890625 18.8125 39.015625 
Q 14.890625 38.140625 10.796875 36.28125 
z
" id="DejaVuSans-53"/>
      </defs>
      <g style="fill:#262626;" transform="translate(335.133359 647.858281)scale(0.11 -0.11)">
       <use xlink:href="#DejaVuSans-49"/>
       <use x="63.623047" xlink:href="#DejaVuSans-101"/>
       <use x="125.146484" xlink:href="#DejaVuSans-45"/>
       <use x="161.230469" xlink:href="#DejaVuSans-48"/>
       <use x="224.853516" xlink:href="#DejaVuSans-53"/>
      </g>
     </g>
    </g>
    <g id="xtick_2">
     <g id="text_2">
      <!-- 0.1 -->
      <defs>
       <path d="M 10.6875 12.40625 
L 21 12.40625 
L 21 0 
L 10.6875 0 
z
" id="DejaVuSans-46"/>
      </defs>
      <g style="fill:#262626;" transform="translate(669.853281 647.858281)scale(0.11 -0.11)">
       <use xlink:href="#DejaVuSans-48"/>
       <use x="63.623047" xlink:href="#DejaVuSans-46"/>
       <use x="95.410156" xlink:href="#DejaVuSans-49"/>
      </g>
     </g>
    </g>
    <g id="text_3">
     <!-- noise -->
     <defs>
      <path d="M 54.890625 33.015625 
L 54.890625 0 
L 45.90625 0 
L 45.90625 32.71875 
Q 45.90625 40.484375 42.875 44.328125 
Q 39.84375 48.1875 33.796875 48.1875 
Q 26.515625 48.1875 22.3125 43.546875 
Q 18.109375 38.921875 18.109375 30.90625 
L 18.109375 0 
L 9.078125 0 
L 9.078125 54.6875 
L 18.109375 54.6875 
L 18.109375 46.1875 
Q 21.34375 51.125 25.703125 53.5625 
Q 30.078125 56 35.796875 56 
Q 45.21875 56 50.046875 50.171875 
Q 54.890625 44.34375 54.890625 33.015625 
z
" id="DejaVuSans-110"/>
      <path d="M 30.609375 48.390625 
Q 23.390625 48.390625 19.1875 42.75 
Q 14.984375 37.109375 14.984375 27.296875 
Q 14.984375 17.484375 19.15625 11.84375 
Q 23.34375 6.203125 30.609375 6.203125 
Q 37.796875 6.203125 41.984375 11.859375 
Q 46.1875 17.53125 46.1875 27.296875 
Q 46.1875 37.015625 41.984375 42.703125 
Q 37.796875 48.390625 30.609375 48.390625 
z
M 30.609375 56 
Q 42.328125 56 49.015625 48.375 
Q 55.71875 40.765625 55.71875 27.296875 
Q 55.71875 13.875 49.015625 6.21875 
Q 42.328125 -1.421875 30.609375 -1.421875 
Q 18.84375 -1.421875 12.171875 6.21875 
Q 5.515625 13.875 5.515625 27.296875 
Q 5.515625 40.765625 12.171875 48.375 
Q 18.84375 56 30.609375 56 
z
" id="DejaVuSans-111"/>
      <path d="M 9.421875 54.6875 
L 18.40625 54.6875 
L 18.40625 0 
L 9.421875 0 
z
M 9.421875 75.984375 
L 18.40625 75.984375 
L 18.40625 64.59375 
L 9.421875 64.59375 
z
" id="DejaVuSans-105"/>
      <path d="M 44.28125 53.078125 
L 44.28125 44.578125 
Q 40.484375 46.53125 36.375 47.5 
Q 32.28125 48.484375 27.875 48.484375 
Q 21.1875 48.484375 17.84375 46.4375 
Q 14.5 44.390625 14.5 40.28125 
Q 14.5 37.15625 16.890625 35.375 
Q 19.28125 33.59375 26.515625 31.984375 
L 29.59375 31.296875 
Q 39.15625 29.25 43.1875 25.515625 
Q 47.21875 21.78125 47.21875 15.09375 
Q 47.21875 7.46875 41.1875 3.015625 
Q 35.15625 -1.421875 24.609375 -1.421875 
Q 20.21875 -1.421875 15.453125 -0.5625 
Q 10.6875 0.296875 5.421875 2 
L 5.421875 11.28125 
Q 10.40625 8.6875 15.234375 7.390625 
Q 20.0625 6.109375 24.8125 6.109375 
Q 31.15625 6.109375 34.5625 8.28125 
Q 37.984375 10.453125 37.984375 14.40625 
Q 37.984375 18.0625 35.515625 20.015625 
Q 33.0625 21.96875 24.703125 23.78125 
L 21.578125 24.515625 
Q 13.234375 26.265625 9.515625 29.90625 
Q 5.8125 33.546875 5.8125 39.890625 
Q 5.8125 47.609375 11.28125 51.796875 
Q 16.75 56 26.8125 56 
Q 31.78125 56 36.171875 55.265625 
Q 40.578125 54.546875 44.28125 53.078125 
z
" id="DejaVuSans-115"/>
     </defs>
     <g style="fill:#262626;" transform="translate(498.841875 663.264063)scale(0.12 -0.12)">
      <use xlink:href="#DejaVuSans-110"/>
      <use x="63.378906" xlink:href="#DejaVuSans-111"/>
      <use x="124.560547" xlink:href="#DejaVuSans-105"/>
      <use x="152.34375" xlink:href="#DejaVuSans-115"/>
      <use x="204.443359" xlink:href="#DejaVuSans-101"/>
     </g>
    </g>
   </g>
   <g id="matplotlib.axis_2">
    <g id="ytick_1">
     <g id="line2d_1">
      <defs>
       <path d="M 0 0 
L -6 0 
" id="m67aea0f2c0" style="stroke:#262626;stroke-width:1.25;"/>
      </defs>
      <g>
       <use style="fill:#262626;stroke:#262626;stroke-width:1.25;" x="187.2" xlink:href="#m67aea0f2c0" y="597.948613"/>
      </g>
     </g>
     <g id="text_4">
      <!-- 0.45 -->
      <defs>
       <path d="M 37.796875 64.3125 
L 12.890625 25.390625 
L 37.796875 25.390625 
z
M 35.203125 72.90625 
L 47.609375 72.90625 
L 47.609375 25.390625 
L 58.015625 25.390625 
L 58.015625 17.1875 
L 47.609375 17.1875 
L 47.609375 0 
L 37.796875 0 
L 37.796875 17.1875 
L 4.890625 17.1875 
L 4.890625 26.703125 
z
" id="DejaVuSans-52"/>
      </defs>
      <g style="fill:#262626;" transform="translate(153.207813 602.127754)scale(0.11 -0.11)">
       <use xlink:href="#DejaVuSans-48"/>
       <use x="63.623047" xlink:href="#DejaVuSans-46"/>
       <use x="95.410156" xlink:href="#DejaVuSans-52"/>
       <use x="159.033203" xlink:href="#DejaVuSans-53"/>
      </g>
     </g>
    </g>
    <g id="ytick_2">
     <g id="line2d_2">
      <g>
       <use style="fill:#262626;stroke:#262626;stroke-width:1.25;" x="187.2" xlink:href="#m67aea0f2c0" y="526.198739"/>
      </g>
     </g>
     <g id="text_5">
      <!-- 0.50 -->
      <g style="fill:#262626;" transform="translate(153.207813 530.377879)scale(0.11 -0.11)">
       <use xlink:href="#DejaVuSans-48"/>
       <use x="63.623047" xlink:href="#DejaVuSans-46"/>
       <use x="95.410156" xlink:href="#DejaVuSans-53"/>
       <use x="159.033203" xlink:href="#DejaVuSans-48"/>
      </g>
     </g>
    </g>
    <g id="ytick_3">
     <g id="line2d_3">
      <g>
       <use style="fill:#262626;stroke:#262626;stroke-width:1.25;" x="187.2" xlink:href="#m67aea0f2c0" y="454.448864"/>
      </g>
     </g>
     <g id="text_6">
      <!-- 0.55 -->
      <g style="fill:#262626;" transform="translate(153.207813 458.628005)scale(0.11 -0.11)">
       <use xlink:href="#DejaVuSans-48"/>
       <use x="63.623047" xlink:href="#DejaVuSans-46"/>
       <use x="95.410156" xlink:href="#DejaVuSans-53"/>
       <use x="159.033203" xlink:href="#DejaVuSans-53"/>
      </g>
     </g>
    </g>
    <g id="ytick_4">
     <g id="line2d_4">
      <g>
       <use style="fill:#262626;stroke:#262626;stroke-width:1.25;" x="187.2" xlink:href="#m67aea0f2c0" y="382.69899"/>
      </g>
     </g>
     <g id="text_7">
      <!-- 0.60 -->
      <defs>
       <path d="M 33.015625 40.375 
Q 26.375 40.375 22.484375 35.828125 
Q 18.609375 31.296875 18.609375 23.390625 
Q 18.609375 15.53125 22.484375 10.953125 
Q 26.375 6.390625 33.015625 6.390625 
Q 39.65625 6.390625 43.53125 10.953125 
Q 47.40625 15.53125 47.40625 23.390625 
Q 47.40625 31.296875 43.53125 35.828125 
Q 39.65625 40.375 33.015625 40.375 
z
M 52.59375 71.296875 
L 52.59375 62.3125 
Q 48.875 64.0625 45.09375 64.984375 
Q 41.3125 65.921875 37.59375 65.921875 
Q 27.828125 65.921875 22.671875 59.328125 
Q 17.53125 52.734375 16.796875 39.40625 
Q 19.671875 43.65625 24.015625 45.921875 
Q 28.375 48.1875 33.59375 48.1875 
Q 44.578125 48.1875 50.953125 41.515625 
Q 57.328125 34.859375 57.328125 23.390625 
Q 57.328125 12.15625 50.6875 5.359375 
Q 44.046875 -1.421875 33.015625 -1.421875 
Q 20.359375 -1.421875 13.671875 8.265625 
Q 6.984375 17.96875 6.984375 36.375 
Q 6.984375 53.65625 15.1875 63.9375 
Q 23.390625 74.21875 37.203125 74.21875 
Q 40.921875 74.21875 44.703125 73.484375 
Q 48.484375 72.75 52.59375 71.296875 
z
" id="DejaVuSans-54"/>
      </defs>
      <g style="fill:#262626;" transform="translate(153.207813 386.87813)scale(0.11 -0.11)">
       <use xlink:href="#DejaVuSans-48"/>
       <use x="63.623047" xlink:href="#DejaVuSans-46"/>
       <use x="95.410156" xlink:href="#DejaVuSans-54"/>
       <use x="159.033203" xlink:href="#DejaVuSans-48"/>
      </g>
     </g>
    </g>
    <g id="ytick_5">
     <g id="line2d_5">
      <g>
       <use style="fill:#262626;stroke:#262626;stroke-width:1.25;" x="187.2" xlink:href="#m67aea0f2c0" y="310.949115"/>
      </g>
     </g>
     <g id="text_8">
      <!-- 0.65 -->
      <g style="fill:#262626;" transform="translate(153.207813 315.128256)scale(0.11 -0.11)">
       <use xlink:href="#DejaVuSans-48"/>
       <use x="63.623047" xlink:href="#DejaVuSans-46"/>
       <use x="95.410156" xlink:href="#DejaVuSans-54"/>
       <use x="159.033203" xlink:href="#DejaVuSans-53"/>
      </g>
     </g>
    </g>
    <g id="ytick_6">
     <g id="line2d_6">
      <g>
       <use style="fill:#262626;stroke:#262626;stroke-width:1.25;" x="187.2" xlink:href="#m67aea0f2c0" y="239.199241"/>
      </g>
     </g>
     <g id="text_9">
      <!-- 0.70 -->
      <defs>
       <path d="M 8.203125 72.90625 
L 55.078125 72.90625 
L 55.078125 68.703125 
L 28.609375 0 
L 18.3125 0 
L 43.21875 64.59375 
L 8.203125 64.59375 
z
" id="DejaVuSans-55"/>
      </defs>
      <g style="fill:#262626;" transform="translate(153.207813 243.378381)scale(0.11 -0.11)">
       <use xlink:href="#DejaVuSans-48"/>
       <use x="63.623047" xlink:href="#DejaVuSans-46"/>
       <use x="95.410156" xlink:href="#DejaVuSans-55"/>
       <use x="159.033203" xlink:href="#DejaVuSans-48"/>
      </g>
     </g>
    </g>
    <g id="ytick_7">
     <g id="line2d_7">
      <g>
       <use style="fill:#262626;stroke:#262626;stroke-width:1.25;" x="187.2" xlink:href="#m67aea0f2c0" y="167.449366"/>
      </g>
     </g>
     <g id="text_10">
      <!-- 0.75 -->
      <g style="fill:#262626;" transform="translate(153.207813 171.628507)scale(0.11 -0.11)">
       <use xlink:href="#DejaVuSans-48"/>
       <use x="63.623047" xlink:href="#DejaVuSans-46"/>
       <use x="95.410156" xlink:href="#DejaVuSans-55"/>
       <use x="159.033203" xlink:href="#DejaVuSans-53"/>
      </g>
     </g>
    </g>
    <g id="ytick_8">
     <g id="line2d_8">
      <g>
       <use style="fill:#262626;stroke:#262626;stroke-width:1.25;" x="187.2" xlink:href="#m67aea0f2c0" y="95.699492"/>
      </g>
     </g>
     <g id="text_11">
      <!-- 0.80 -->
      <defs>
       <path d="M 31.78125 34.625 
Q 24.75 34.625 20.71875 30.859375 
Q 16.703125 27.09375 16.703125 20.515625 
Q 16.703125 13.921875 20.71875 10.15625 
Q 24.75 6.390625 31.78125 6.390625 
Q 38.8125 6.390625 42.859375 10.171875 
Q 46.921875 13.96875 46.921875 20.515625 
Q 46.921875 27.09375 42.890625 30.859375 
Q 38.875 34.625 31.78125 34.625 
z
M 21.921875 38.8125 
Q 15.578125 40.375 12.03125 44.71875 
Q 8.5 49.078125 8.5 55.328125 
Q 8.5 64.0625 14.71875 69.140625 
Q 20.953125 74.21875 31.78125 74.21875 
Q 42.671875 74.21875 48.875 69.140625 
Q 55.078125 64.0625 55.078125 55.328125 
Q 55.078125 49.078125 51.53125 44.71875 
Q 48 40.375 41.703125 38.8125 
Q 48.828125 37.15625 52.796875 32.3125 
Q 56.78125 27.484375 56.78125 20.515625 
Q 56.78125 9.90625 50.3125 4.234375 
Q 43.84375 -1.421875 31.78125 -1.421875 
Q 19.734375 -1.421875 13.25 4.234375 
Q 6.78125 9.90625 6.78125 20.515625 
Q 6.78125 27.484375 10.78125 32.3125 
Q 14.796875 37.15625 21.921875 38.8125 
z
M 18.3125 54.390625 
Q 18.3125 48.734375 21.84375 45.5625 
Q 25.390625 42.390625 31.78125 42.390625 
Q 38.140625 42.390625 41.71875 45.5625 
Q 45.3125 48.734375 45.3125 54.390625 
Q 45.3125 60.0625 41.71875 63.234375 
Q 38.140625 66.40625 31.78125 66.40625 
Q 25.390625 66.40625 21.84375 63.234375 
Q 18.3125 60.0625 18.3125 54.390625 
z
" id="DejaVuSans-56"/>
      </defs>
      <g style="fill:#262626;" transform="translate(153.207813 99.878633)scale(0.11 -0.11)">
       <use xlink:href="#DejaVuSans-48"/>
       <use x="63.623047" xlink:href="#DejaVuSans-46"/>
       <use x="95.410156" xlink:href="#DejaVuSans-56"/>
       <use x="159.033203" xlink:href="#DejaVuSans-48"/>
      </g>
     </g>
    </g>
    <g id="text_12">
     <!-- AUC -->
     <defs>
      <path d="M 34.1875 63.1875 
L 20.796875 26.90625 
L 47.609375 26.90625 
z
M 28.609375 72.90625 
L 39.796875 72.90625 
L 67.578125 0 
L 57.328125 0 
L 50.6875 18.703125 
L 17.828125 18.703125 
L 11.1875 0 
L 0.78125 0 
z
" id="DejaVuSans-65"/>
      <path d="M 8.6875 72.90625 
L 18.609375 72.90625 
L 18.609375 28.609375 
Q 18.609375 16.890625 22.84375 11.734375 
Q 27.09375 6.59375 36.625 6.59375 
Q 46.09375 6.59375 50.34375 11.734375 
Q 54.59375 16.890625 54.59375 28.609375 
L 54.59375 72.90625 
L 64.5 72.90625 
L 64.5 27.390625 
Q 64.5 13.140625 57.4375 5.859375 
Q 50.390625 -1.421875 36.625 -1.421875 
Q 22.796875 -1.421875 15.734375 5.859375 
Q 8.6875 13.140625 8.6875 27.390625 
z
" id="DejaVuSans-85"/>
      <path d="M 64.40625 67.28125 
L 64.40625 56.890625 
Q 59.421875 61.53125 53.78125 63.8125 
Q 48.140625 66.109375 41.796875 66.109375 
Q 29.296875 66.109375 22.65625 58.46875 
Q 16.015625 50.828125 16.015625 36.375 
Q 16.015625 21.96875 22.65625 14.328125 
Q 29.296875 6.6875 41.796875 6.6875 
Q 48.140625 6.6875 53.78125 8.984375 
Q 59.421875 11.28125 64.40625 15.921875 
L 64.40625 5.609375 
Q 59.234375 2.09375 53.4375 0.328125 
Q 47.65625 -1.421875 41.21875 -1.421875 
Q 24.65625 -1.421875 15.125 8.703125 
Q 5.609375 18.84375 5.609375 36.375 
Q 5.609375 53.953125 15.125 64.078125 
Q 24.65625 74.21875 41.21875 74.21875 
Q 47.75 74.21875 53.53125 72.484375 
Q 59.328125 70.75 64.40625 67.28125 
z
" id="DejaVuSans-67"/>
     </defs>
     <g style="fill:#262626;" transform="translate(146.712188 370.885312)rotate(-90)scale(0.12 -0.12)">
      <use xlink:href="#DejaVuSans-65"/>
      <use x="68.408203" xlink:href="#DejaVuSans-85"/>
      <use x="141.601562" xlink:href="#DejaVuSans-67"/>
     </g>
    </g>
   </g>
   <g id="PolyCollection_1">
    <defs>
     <path d="M 318.33829 -310.061326 
L 318.14171 -310.061326 
L 318.109601 -312.056966 
L 318.070417 -314.052605 
L 318.023744 -316.048245 
L 317.969479 -318.043885 
L 317.907873 -320.039524 
L 317.839534 -322.035164 
L 317.765376 -324.030804 
L 317.686492 -326.026443 
L 317.60398 -328.022083 
L 317.518709 -330.017722 
L 317.431069 -332.013362 
L 317.340731 -334.009002 
L 317.246461 -336.004641 
L 317.146015 -338.000281 
L 317.036155 -339.995921 
L 316.912789 -341.99156 
L 316.771238 -343.9872 
L 316.606589 -345.98284 
L 316.414123 -347.978479 
L 316.189732 -349.974119 
L 315.930294 -351.969759 
L 315.633948 -353.965398 
L 315.300223 -355.961038 
L 314.930028 -357.956678 
L 314.525471 -359.952317 
L 314.089571 -361.947957 
L 313.625876 -363.943597 
L 313.138063 -365.939236 
L 312.629575 -367.934876 
L 312.103348 -369.930515 
L 311.561676 -371.926155 
L 311.006221 -373.921795 
L 310.438187 -375.917434 
L 309.858597 -377.913074 
L 309.268664 -379.908714 
L 308.670161 -381.904353 
L 308.065761 -383.899993 
L 307.459287 -385.895633 
L 306.855851 -387.891272 
L 306.26186 -389.886912 
L 305.684912 -391.882552 
L 305.133597 -393.878191 
L 304.617223 -395.873831 
L 304.145492 -397.869471 
L 303.728127 -399.86511 
L 303.374462 -401.86075 
L 303.092994 -403.85639 
L 302.890892 -405.852029 
L 302.77349 -407.847669 
L 302.7438 -409.843308 
L 302.802094 -411.838948 
L 302.945623 -413.834588 
L 303.168545 -415.830227 
L 303.462105 -417.825867 
L 303.815103 -419.821507 
L 304.214616 -421.817146 
L 304.646942 -423.812786 
L 305.098641 -425.808426 
L 305.557573 -427.804065 
L 306.013792 -429.799705 
L 306.46019 -431.795345 
L 306.8928 -433.790984 
L 307.310728 -435.786624 
L 307.715741 -437.782264 
L 308.111565 -439.777903 
L 308.503015 -441.773543 
L 308.895088 -443.769182 
L 309.292123 -445.764822 
L 309.697171 -447.760462 
L 310.111612 -449.756101 
L 310.535061 -451.751741 
L 310.965537 -453.747381 
L 311.399841 -455.74302 
L 311.83405 -457.73866 
L 312.264052 -459.7343 
L 312.686024 -461.729939 
L 313.096797 -463.725579 
L 313.494068 -465.721219 
L 313.876449 -467.716858 
L 314.243373 -469.712498 
L 314.594887 -471.708138 
L 314.931397 -473.703777 
L 315.253392 -475.699417 
L 315.561208 -477.695057 
L 315.854862 -479.690696 
L 316.133973 -481.686336 
L 316.397767 -483.681975 
L 316.645169 -485.677615 
L 316.874949 -487.673255 
L 317.085894 -489.668894 
L 317.276991 -491.664534 
L 317.447574 -493.660174 
L 317.597434 -495.655813 
L 317.726875 -497.651453 
L 317.836708 -499.647093 
L 317.928198 -501.642732 
L 318.002974 -503.638372 
L 318.062912 -505.634012 
L 318.110015 -507.629651 
L 318.369985 -507.629651 
L 318.369985 -507.629651 
L 318.417088 -505.634012 
L 318.477026 -503.638372 
L 318.551802 -501.642732 
L 318.643292 -499.647093 
L 318.753125 -497.651453 
L 318.882566 -495.655813 
L 319.032426 -493.660174 
L 319.203009 -491.664534 
L 319.394106 -489.668894 
L 319.605051 -487.673255 
L 319.834831 -485.677615 
L 320.082233 -483.681975 
L 320.346027 -481.686336 
L 320.625138 -479.690696 
L 320.918792 -477.695057 
L 321.226608 -475.699417 
L 321.548603 -473.703777 
L 321.885113 -471.708138 
L 322.236627 -469.712498 
L 322.603551 -467.716858 
L 322.985932 -465.721219 
L 323.383203 -463.725579 
L 323.793976 -461.729939 
L 324.215948 -459.7343 
L 324.64595 -457.73866 
L 325.080159 -455.74302 
L 325.514463 -453.747381 
L 325.944939 -451.751741 
L 326.368388 -449.756101 
L 326.782829 -447.760462 
L 327.187877 -445.764822 
L 327.584912 -443.769182 
L 327.976985 -441.773543 
L 328.368435 -439.777903 
L 328.764259 -437.782264 
L 329.169272 -435.786624 
L 329.5872 -433.790984 
L 330.01981 -431.795345 
L 330.466208 -429.799705 
L 330.922427 -427.804065 
L 331.381359 -425.808426 
L 331.833058 -423.812786 
L 332.265384 -421.817146 
L 332.664897 -419.821507 
L 333.017895 -417.825867 
L 333.311455 -415.830227 
L 333.534377 -413.834588 
L 333.677906 -411.838948 
L 333.7362 -409.843308 
L 333.70651 -407.847669 
L 333.589108 -405.852029 
L 333.387006 -403.85639 
L 333.105538 -401.86075 
L 332.751873 -399.86511 
L 332.334508 -397.869471 
L 331.862777 -395.873831 
L 331.346403 -393.878191 
L 330.795088 -391.882552 
L 330.21814 -389.886912 
L 329.624149 -387.891272 
L 329.020713 -385.895633 
L 328.414239 -383.899993 
L 327.809839 -381.904353 
L 327.211336 -379.908714 
L 326.621403 -377.913074 
L 326.041813 -375.917434 
L 325.473779 -373.921795 
L 324.918324 -371.926155 
L 324.376652 -369.930515 
L 323.850425 -367.934876 
L 323.341937 -365.939236 
L 322.854124 -363.943597 
L 322.390429 -361.947957 
L 321.954529 -359.952317 
L 321.549972 -357.956678 
L 321.179777 -355.961038 
L 320.846052 -353.965398 
L 320.549706 -351.969759 
L 320.290268 -349.974119 
L 320.065877 -347.978479 
L 319.873411 -345.98284 
L 319.708762 -343.9872 
L 319.567211 -341.99156 
L 319.443845 -339.995921 
L 319.333985 -338.000281 
L 319.233539 -336.004641 
L 319.139269 -334.009002 
L 319.048931 -332.013362 
L 318.961291 -330.017722 
L 318.87602 -328.022083 
L 318.793508 -326.026443 
L 318.714624 -324.030804 
L 318.640466 -322.035164 
L 318.572127 -320.039524 
L 318.510521 -318.043885 
L 318.456256 -316.048245 
L 318.409583 -314.052605 
L 318.370399 -312.056966 
L 318.33829 -310.061326 
z
" id="mf64ccccf25" style="stroke:#303030;stroke-width:1.5;"/>
    </defs>
    <g clip-path="url(#pc9e78a858d)">
     <use style="fill:#176d9c;stroke:#303030;stroke-width:1.5;" x="0" xlink:href="#mf64ccccf25" y="720"/>
    </g>
   </g>
   <g id="PolyCollection_2">
    <defs>
     <path d="M 351.106156 -134.138374 
L 350.893844 -134.138374 
L 350.858588 -136.011905 
L 350.815371 -137.885437 
L 350.763644 -139.758969 
L 350.703159 -141.632501 
L 350.633998 -143.506033 
L 350.556556 -145.379564 
L 350.471439 -147.253096 
L 350.379299 -149.126628 
L 350.280592 -151.00016 
L 350.175287 -152.873692 
L 350.062567 -154.747223 
L 349.940562 -156.620755 
L 349.806163 -158.494287 
L 349.654961 -160.367819 
L 349.481355 -162.241351 
L 349.278825 -164.114882 
L 349.040375 -165.988414 
L 348.759101 -167.861946 
L 348.428852 -169.735478 
L 348.044907 -171.60901 
L 347.604611 -173.482541 
L 347.107916 -175.356073 
L 346.557772 -177.229605 
L 345.960327 -179.103137 
L 345.324915 -180.976669 
L 344.663794 -182.8502 
L 343.991648 -184.723732 
L 343.324829 -186.597264 
L 342.680379 -188.470796 
L 342.074861 -190.344328 
L 341.523088 -192.217859 
L 341.036843 -194.091391 
L 340.623727 -195.964923 
L 340.286279 -197.838455 
L 340.021486 -199.711987 
L 339.820806 -201.585518 
L 339.670728 -203.45905 
L 339.55386 -205.332582 
L 339.450467 -207.206114 
L 339.340282 -209.079646 
L 339.204419 -210.953177 
L 339.027163 -212.826709 
L 338.797451 -214.700241 
L 338.509875 -216.573773 
L 338.165128 -218.447305 
L 337.769856 -220.320836 
L 337.335966 -222.194368 
L 336.879507 -224.0679 
L 336.419274 -225.941432 
L 335.975298 -227.814964 
L 335.567412 -229.688495 
L 335.214007 -231.562027 
L 334.931103 -233.435559 
L 334.731761 -235.309091 
L 334.625834 -237.182623 
L 334.62 -239.056154 
L 334.71799 -240.929686 
L 334.920903 -242.803218 
L 335.227525 -244.67675 
L 335.634573 -246.550282 
L 336.136846 -248.423813 
L 336.727266 -250.297345 
L 337.396871 -252.170877 
L 338.13481 -254.044409 
L 338.928405 -255.917941 
L 339.763345 -257.791472 
L 340.624044 -259.665004 
L 341.49416 -261.538536 
L 342.357257 -263.412068 
L 343.197558 -265.2856 
L 344.000699 -267.159131 
L 344.754436 -269.032663 
L 345.449211 -270.906195 
L 346.078534 -272.779727 
L 346.639142 -274.653259 
L 347.130934 -276.52679 
L 347.556684 -278.400322 
L 347.921576 -280.273854 
L 348.232609 -282.147386 
L 348.497922 -284.020918 
L 348.726107 -285.894449 
L 348.925567 -287.767981 
L 349.103967 -289.641513 
L 349.267805 -291.515045 
L 349.422144 -293.388577 
L 349.570501 -295.262109 
L 349.71488 -297.13564 
L 349.855941 -299.009172 
L 349.99326 -300.882704 
L 350.125648 -302.756236 
L 350.251491 -304.629768 
L 350.369065 -306.503299 
L 350.476805 -308.376831 
L 350.573506 -310.250363 
L 350.658442 -312.123895 
L 350.731407 -313.997427 
L 350.792693 -315.870958 
L 350.843013 -317.74449 
L 350.883398 -319.618022 
L 351.116602 -319.618022 
L 351.116602 -319.618022 
L 351.156987 -317.74449 
L 351.207307 -315.870958 
L 351.268593 -313.997427 
L 351.341558 -312.123895 
L 351.426494 -310.250363 
L 351.523195 -308.376831 
L 351.630935 -306.503299 
L 351.748509 -304.629768 
L 351.874352 -302.756236 
L 352.00674 -300.882704 
L 352.144059 -299.009172 
L 352.28512 -297.13564 
L 352.429499 -295.262109 
L 352.577856 -293.388577 
L 352.732195 -291.515045 
L 352.896033 -289.641513 
L 353.074433 -287.767981 
L 353.273893 -285.894449 
L 353.502078 -284.020918 
L 353.767391 -282.147386 
L 354.078424 -280.273854 
L 354.443316 -278.400322 
L 354.869066 -276.52679 
L 355.360858 -274.653259 
L 355.921466 -272.779727 
L 356.550789 -270.906195 
L 357.245564 -269.032663 
L 357.999301 -267.159131 
L 358.802442 -265.2856 
L 359.642743 -263.412068 
L 360.50584 -261.538536 
L 361.375956 -259.665004 
L 362.236655 -257.791472 
L 363.071595 -255.917941 
L 363.86519 -254.044409 
L 364.603129 -252.170877 
L 365.272734 -250.297345 
L 365.863154 -248.423813 
L 366.365427 -246.550282 
L 366.772475 -244.67675 
L 367.079097 -242.803218 
L 367.28201 -240.929686 
L 367.38 -239.056154 
L 367.374166 -237.182623 
L 367.268239 -235.309091 
L 367.068897 -233.435559 
L 366.785993 -231.562027 
L 366.432588 -229.688495 
L 366.024702 -227.814964 
L 365.580726 -225.941432 
L 365.120493 -224.0679 
L 364.664034 -222.194368 
L 364.230144 -220.320836 
L 363.834872 -218.447305 
L 363.490125 -216.573773 
L 363.202549 -214.700241 
L 362.972837 -212.826709 
L 362.795581 -210.953177 
L 362.659718 -209.079646 
L 362.549533 -207.206114 
L 362.44614 -205.332582 
L 362.329272 -203.45905 
L 362.179194 -201.585518 
L 361.978514 -199.711987 
L 361.713721 -197.838455 
L 361.376273 -195.964923 
L 360.963157 -194.091391 
L 360.476912 -192.217859 
L 359.925139 -190.344328 
L 359.319621 -188.470796 
L 358.675171 -186.597264 
L 358.008352 -184.723732 
L 357.336206 -182.8502 
L 356.675085 -180.976669 
L 356.039673 -179.103137 
L 355.442228 -177.229605 
L 354.892084 -175.356073 
L 354.395389 -173.482541 
L 353.955093 -171.60901 
L 353.571148 -169.735478 
L 353.240899 -167.861946 
L 352.959625 -165.988414 
L 352.721175 -164.114882 
L 352.518645 -162.241351 
L 352.345039 -160.367819 
L 352.193837 -158.494287 
L 352.059438 -156.620755 
L 351.937433 -154.747223 
L 351.824713 -152.873692 
L 351.719408 -151.00016 
L 351.620701 -149.126628 
L 351.528561 -147.253096 
L 351.443444 -145.379564 
L 351.366002 -143.506033 
L 351.296841 -141.632501 
L 351.236356 -139.758969 
L 351.184629 -137.885437 
L 351.141412 -136.011905 
L 351.106156 -134.138374 
z
" id="mc6a2ecd4af" style="stroke:#303030;stroke-width:1.5;"/>
    </defs>
    <g clip-path="url(#pc9e78a858d)">
     <use style="fill:#c38820;stroke:#303030;stroke-width:1.5;" x="0" xlink:href="#mc6a2ecd4af" y="720"/>
    </g>
   </g>
   <g id="PolyCollection_3">
    <defs>
     <path d="M 383.855047 -114.709091 
L 383.664953 -114.709091 
L 383.629765 -117.098738 
L 383.584783 -119.488386 
L 383.52835 -121.878033 
L 383.458786 -124.26768 
L 383.374418 -126.657328 
L 383.273602 -129.046975 
L 383.154729 -131.436622 
L 383.016233 -133.82627 
L 382.856603 -136.215917 
L 382.674418 -138.605564 
L 382.468417 -140.995212 
L 382.237604 -143.384859 
L 381.981403 -145.774506 
L 381.699808 -148.164154 
L 381.393536 -150.553801 
L 381.064097 -152.943448 
L 380.71378 -155.333096 
L 380.345493 -157.722743 
L 379.962462 -160.11239 
L 379.567811 -162.502038 
L 379.164067 -164.891685 
L 378.752675 -167.281332 
L 378.333617 -169.67098 
L 377.905231 -172.060627 
L 377.464318 -174.450274 
L 377.006573 -176.839921 
L 376.527352 -179.229569 
L 376.022702 -181.619216 
L 375.490542 -184.008863 
L 374.931823 -186.398511 
L 374.351465 -188.788158 
L 373.758865 -191.177805 
L 373.167821 -193.567453 
L 372.595778 -195.9571 
L 372.062404 -198.346747 
L 371.587644 -200.736395 
L 371.189492 -203.126042 
L 370.881797 -205.515689 
L 370.672465 -207.905337 
L 370.562362 -210.294984 
L 370.545128 -212.684631 
L 370.60798 -215.074279 
L 370.733397 -217.463926 
L 370.901465 -219.853573 
L 371.092507 -222.243221 
L 371.289629 -224.632868 
L 371.480791 -227.022515 
L 371.660124 -229.412163 
L 371.828315 -231.80181 
L 371.992069 -234.191457 
L 372.162735 -236.581105 
L 372.354357 -238.970752 
L 372.581434 -241.360399 
L 372.856718 -243.750047 
L 373.18936 -246.139694 
L 373.583618 -248.529341 
L 374.038293 -250.918989 
L 374.546914 -253.308636 
L 375.098601 -255.698283 
L 375.679453 -258.087931 
L 376.274219 -260.477578 
L 376.868005 -262.867225 
L 377.447755 -265.256873 
L 378.003331 -267.64652 
L 378.528042 -270.036167 
L 379.018632 -272.425815 
L 379.47476 -274.815462 
L 379.898142 -277.205109 
L 380.291533 -279.594757 
L 380.657741 -281.984404 
L 380.99885 -284.374051 
L 381.315758 -286.763699 
L 381.608075 -289.153346 
L 381.874358 -291.542993 
L 382.112592 -293.932641 
L 382.320798 -296.322288 
L 382.497647 -298.711935 
L 382.64296 -301.101583 
L 382.758008 -303.49123 
L 382.845584 -305.880877 
L 382.909836 -308.270525 
L 382.955909 -310.660172 
L 382.989455 -313.049819 
L 383.016098 -315.439467 
L 383.04092 -317.829114 
L 383.068046 -320.218761 
L 383.100369 -322.608409 
L 383.13944 -324.998056 
L 383.185515 -327.387703 
L 383.237746 -329.777351 
L 383.294465 -332.166998 
L 383.353517 -334.556645 
L 383.41259 -336.946293 
L 383.469502 -339.33594 
L 383.522427 -341.725587 
L 383.57002 -344.115235 
L 383.611472 -346.504882 
L 383.646485 -348.894529 
L 383.675197 -351.284177 
L 383.844803 -351.284177 
L 383.844803 -351.284177 
L 383.873515 -348.894529 
L 383.908528 -346.504882 
L 383.94998 -344.115235 
L 383.997573 -341.725587 
L 384.050498 -339.33594 
L 384.10741 -336.946293 
L 384.166483 -334.556645 
L 384.225535 -332.166998 
L 384.282254 -329.777351 
L 384.334485 -327.387703 
L 384.38056 -324.998056 
L 384.419631 -322.608409 
L 384.451954 -320.218761 
L 384.47908 -317.829114 
L 384.503902 -315.439467 
L 384.530545 -313.049819 
L 384.564091 -310.660172 
L 384.610164 -308.270525 
L 384.674416 -305.880877 
L 384.761992 -303.49123 
L 384.87704 -301.101583 
L 385.022353 -298.711935 
L 385.199202 -296.322288 
L 385.407408 -293.932641 
L 385.645642 -291.542993 
L 385.911925 -289.153346 
L 386.204242 -286.763699 
L 386.52115 -284.374051 
L 386.862259 -281.984404 
L 387.228467 -279.594757 
L 387.621858 -277.205109 
L 388.04524 -274.815462 
L 388.501368 -272.425815 
L 388.991958 -270.036167 
L 389.516669 -267.64652 
L 390.072245 -265.256873 
L 390.651995 -262.867225 
L 391.245781 -260.477578 
L 391.840547 -258.087931 
L 392.421399 -255.698283 
L 392.973086 -253.308636 
L 393.481707 -250.918989 
L 393.936382 -248.529341 
L 394.33064 -246.139694 
L 394.663282 -243.750047 
L 394.938566 -241.360399 
L 395.165643 -238.970752 
L 395.357265 -236.581105 
L 395.527931 -234.191457 
L 395.691685 -231.80181 
L 395.859876 -229.412163 
L 396.039209 -227.022515 
L 396.230371 -224.632868 
L 396.427493 -222.243221 
L 396.618535 -219.853573 
L 396.786603 -217.463926 
L 396.91202 -215.074279 
L 396.974872 -212.684631 
L 396.957638 -210.294984 
L 396.847535 -207.905337 
L 396.638203 -205.515689 
L 396.330508 -203.126042 
L 395.932356 -200.736395 
L 395.457596 -198.346747 
L 394.924222 -195.9571 
L 394.352179 -193.567453 
L 393.761135 -191.177805 
L 393.168535 -188.788158 
L 392.588177 -186.398511 
L 392.029458 -184.008863 
L 391.497298 -181.619216 
L 390.992648 -179.229569 
L 390.513427 -176.839921 
L 390.055682 -174.450274 
L 389.614769 -172.060627 
L 389.186383 -169.67098 
L 388.767325 -167.281332 
L 388.355933 -164.891685 
L 387.952189 -162.502038 
L 387.557538 -160.11239 
L 387.174507 -157.722743 
L 386.80622 -155.333096 
L 386.455903 -152.943448 
L 386.126464 -150.553801 
L 385.820192 -148.164154 
L 385.538597 -145.774506 
L 385.282396 -143.384859 
L 385.051583 -140.995212 
L 384.845582 -138.605564 
L 384.663397 -136.215917 
L 384.503767 -133.82627 
L 384.365271 -131.436622 
L 384.246398 -129.046975 
L 384.145582 -126.657328 
L 384.061214 -124.26768 
L 383.99165 -121.878033 
L 383.935217 -119.488386 
L 383.890235 -117.098738 
L 383.855047 -114.709091 
z
" id="m1f5ed3622d" style="stroke:#303030;stroke-width:1.5;"/>
    </defs>
    <g clip-path="url(#pc9e78a858d)">
     <use style="fill:#158b6a;stroke:#303030;stroke-width:1.5;" x="0" xlink:href="#m1f5ed3622d" y="720"/>
    </g>
   </g>
   <g id="PolyCollection_4">
    <defs>
     <path d="M 645.964805 -394.249457 
L 645.715195 -394.249457 
L 645.671438 -396.417553 
L 645.615887 -398.585648 
L 645.546538 -400.753744 
L 645.461359 -402.921839 
L 645.358363 -405.089935 
L 645.235685 -407.25803 
L 645.091655 -409.426126 
L 644.924873 -411.594221 
L 644.734275 -413.762317 
L 644.519187 -415.930412 
L 644.279382 -418.098508 
L 644.015115 -420.266603 
L 643.727156 -422.434699 
L 643.416795 -424.602794 
L 643.085831 -426.77089 
L 642.736509 -428.938985 
L 642.371416 -431.10708 
L 641.993319 -433.275176 
L 641.604942 -435.443271 
L 641.2087 -437.611367 
L 640.806417 -439.779462 
L 640.399049 -441.947558 
L 639.986477 -444.115653 
L 639.567394 -446.283749 
L 639.139352 -448.451844 
L 638.69897 -450.61994 
L 638.242321 -452.788035 
L 637.765472 -454.956131 
L 637.265129 -457.124226 
L 636.739319 -459.292322 
L 636.188023 -461.460417 
L 635.61368 -463.628513 
L 635.02148 -465.796608 
L 634.419401 -467.964703 
L 633.817951 -470.132799 
L 633.229624 -472.300894 
L 632.668106 -474.46899 
L 632.14731 -476.637085 
L 631.680315 -478.805181 
L 631.278331 -480.973276 
L 630.949801 -483.141372 
L 630.699734 -485.309467 
L 630.52936 -487.477563 
L 630.436143 -489.645658 
L 630.414165 -491.813754 
L 630.454832 -493.981849 
L 630.547827 -496.149945 
L 630.682198 -498.31804 
L 630.847462 -500.486136 
L 631.034587 -502.654231 
L 631.236774 -504.822326 
L 631.449954 -506.990422 
L 631.672972 -509.158517 
L 631.907467 -511.326613 
L 632.157482 -513.494708 
L 632.428868 -515.662804 
L 632.728529 -517.830899 
L 633.063599 -519.998995 
L 633.440597 -522.16709 
L 633.864617 -524.335186 
L 634.338624 -526.503281 
L 634.862883 -528.671377 
L 635.434596 -530.839472 
L 636.047768 -533.007568 
L 636.693355 -535.175663 
L 637.359686 -537.343759 
L 638.033154 -539.511854 
L 638.69913 -541.679949 
L 639.34301 -543.848045 
L 639.95131 -546.01614 
L 640.512675 -548.184236 
L 641.018713 -550.352331 
L 641.464549 -552.520427 
L 641.849045 -554.688522 
L 642.174667 -556.856618 
L 642.447028 -559.024713 
L 642.67417 -561.192809 
L 642.865666 -563.360904 
L 643.031662 -565.529 
L 643.181963 -567.697095 
L 643.325242 -569.865191 
L 643.468451 -572.033286 
L 643.616478 -574.201382 
L 643.772034 -576.369477 
L 643.935768 -578.537573 
L 644.10656 -580.705668 
L 644.281937 -582.873763 
L 644.458539 -585.041859 
L 644.632604 -587.209954 
L 644.800394 -589.37805 
L 644.958545 -591.546145 
L 645.104325 -593.714241 
L 645.235778 -595.882336 
L 645.351771 -598.050432 
L 645.451966 -600.218527 
L 645.536715 -602.386623 
L 645.60693 -604.554718 
L 645.663923 -606.722814 
L 645.709253 -608.890909 
L 645.970747 -608.890909 
L 645.970747 -608.890909 
L 646.016077 -606.722814 
L 646.07307 -604.554718 
L 646.143285 -602.386623 
L 646.228034 -600.218527 
L 646.328229 -598.050432 
L 646.444222 -595.882336 
L 646.575675 -593.714241 
L 646.721455 -591.546145 
L 646.879606 -589.37805 
L 647.047396 -587.209954 
L 647.221461 -585.041859 
L 647.398063 -582.873763 
L 647.57344 -580.705668 
L 647.744232 -578.537573 
L 647.907966 -576.369477 
L 648.063522 -574.201382 
L 648.211549 -572.033286 
L 648.354758 -569.865191 
L 648.498037 -567.697095 
L 648.648338 -565.529 
L 648.814334 -563.360904 
L 649.00583 -561.192809 
L 649.232972 -559.024713 
L 649.505333 -556.856618 
L 649.830955 -554.688522 
L 650.215451 -552.520427 
L 650.661287 -550.352331 
L 651.167325 -548.184236 
L 651.72869 -546.01614 
L 652.33699 -543.848045 
L 652.98087 -541.679949 
L 653.646846 -539.511854 
L 654.320314 -537.343759 
L 654.986645 -535.175663 
L 655.632232 -533.007568 
L 656.245404 -530.839472 
L 656.817117 -528.671377 
L 657.341376 -526.503281 
L 657.815383 -524.335186 
L 658.239403 -522.16709 
L 658.616401 -519.998995 
L 658.951471 -517.830899 
L 659.251132 -515.662804 
L 659.522518 -513.494708 
L 659.772533 -511.326613 
L 660.007028 -509.158517 
L 660.230046 -506.990422 
L 660.443226 -504.822326 
L 660.645413 -502.654231 
L 660.832538 -500.486136 
L 660.997802 -498.31804 
L 661.132173 -496.149945 
L 661.225168 -493.981849 
L 661.265835 -491.813754 
L 661.243857 -489.645658 
L 661.15064 -487.477563 
L 660.980266 -485.309467 
L 660.730199 -483.141372 
L 660.401669 -480.973276 
L 659.999685 -478.805181 
L 659.53269 -476.637085 
L 659.011894 -474.46899 
L 658.450376 -472.300894 
L 657.862049 -470.132799 
L 657.260599 -467.964703 
L 656.65852 -465.796608 
L 656.06632 -463.628513 
L 655.491977 -461.460417 
L 654.940681 -459.292322 
L 654.414871 -457.124226 
L 653.914528 -454.956131 
L 653.437679 -452.788035 
L 652.98103 -450.61994 
L 652.540648 -448.451844 
L 652.112606 -446.283749 
L 651.693523 -444.115653 
L 651.280951 -441.947558 
L 650.873583 -439.779462 
L 650.4713 -437.611367 
L 650.075058 -435.443271 
L 649.686681 -433.275176 
L 649.308584 -431.10708 
L 648.943491 -428.938985 
L 648.594169 -426.77089 
L 648.263205 -424.602794 
L 647.952844 -422.434699 
L 647.664885 -420.266603 
L 647.400618 -418.098508 
L 647.160813 -415.930412 
L 646.945725 -413.762317 
L 646.755127 -411.594221 
L 646.588345 -409.426126 
L 646.444315 -407.25803 
L 646.321637 -405.089935 
L 646.218641 -402.921839 
L 646.133462 -400.753744 
L 646.064113 -398.585648 
L 646.008562 -396.417553 
L 645.964805 -394.249457 
z
" id="m0d90926c75" style="stroke:#303030;stroke-width:1.5;"/>
    </defs>
    <g clip-path="url(#pc9e78a858d)">
     <use style="fill:#176d9c;stroke:#303030;stroke-width:1.5;" x="0" xlink:href="#m0d90926c75" y="720"/>
    </g>
   </g>
   <g id="PolyCollection_5">
    <defs>
     <path d="M 678.814247 -386.965622 
L 678.385753 -386.965622 
L 678.311962 -389.130385 
L 678.220212 -391.295149 
L 678.108826 -393.459912 
L 677.976854 -395.624676 
L 677.824349 -397.789439 
L 677.652589 -399.954203 
L 677.464232 -402.118966 
L 677.263353 -404.28373 
L 677.05534 -406.448494 
L 676.846639 -408.613257 
L 676.644357 -410.778021 
L 676.455735 -412.942784 
L 676.287566 -415.107548 
L 676.145574 -417.272311 
L 676.03385 -419.437075 
L 675.954379 -421.601838 
L 675.906701 -423.766602 
L 675.887753 -425.931366 
L 675.891868 -428.096129 
L 675.910953 -430.260893 
L 675.934809 -432.425656 
L 675.951583 -434.59042 
L 675.948314 -436.755183 
L 675.911561 -438.919947 
L 675.828082 -441.084711 
L 675.685547 -443.249474 
L 675.473246 -445.414238 
L 675.182752 -447.579001 
L 674.808502 -449.743765 
L 674.348236 -451.908528 
L 673.803249 -454.073292 
L 673.178427 -456.238055 
L 672.48205 -458.402819 
L 671.725365 -460.567583 
L 670.921994 -462.732346 
L 670.087215 -464.89711 
L 669.237188 -467.061873 
L 668.388223 -469.226637 
L 667.556107 -471.3914 
L 666.755557 -473.556164 
L 665.999784 -475.720927 
L 665.300162 -477.885691 
L 664.66597 -480.050455 
L 664.104177 -482.215218 
L 663.619264 -484.379982 
L 663.213087 -486.544745 
L 662.884816 -488.709509 
L 662.630999 -490.874272 
L 662.445815 -493.039036 
L 662.321554 -495.203799 
L 662.24933 -497.368563 
L 662.22 -499.533327 
L 662.225204 -501.69809 
L 662.258398 -503.862854 
L 662.315745 -506.027617 
L 662.39671 -508.192381 
L 662.504255 -510.357144 
L 662.644562 -512.521908 
L 662.826306 -514.686671 
L 663.05954 -516.851435 
L 663.354341 -519.016199 
L 663.719387 -521.180962 
L 664.160655 -523.345726 
L 664.680415 -525.510489 
L 665.276638 -527.675253 
L 665.94289 -529.840016 
L 666.668702 -532.00478 
L 667.440352 -534.169544 
L 668.241943 -536.334307 
L 669.056629 -538.499071 
L 669.867832 -540.663834 
L 670.660331 -542.828598 
L 671.42111 -544.993361 
L 672.139912 -547.158125 
L 672.809482 -549.322888 
L 673.425543 -551.487652 
L 673.986527 -553.652416 
L 674.493169 -555.817179 
L 674.948 -557.981943 
L 675.354825 -560.146706 
L 675.718223 -562.31147 
L 676.043104 -564.476233 
L 676.334346 -566.640997 
L 676.596506 -568.80576 
L 676.833622 -570.970524 
L 677.049083 -573.135288 
L 677.245578 -575.300051 
L 677.425113 -577.464815 
L 677.589072 -579.629578 
L 677.738335 -581.794342 
L 677.873415 -583.959105 
L 677.994613 -586.123869 
L 678.102158 -588.288632 
L 678.196338 -590.453396 
L 678.277583 -592.61816 
L 678.34652 -594.782923 
L 678.403985 -596.947687 
L 678.450999 -599.11245 
L 678.48872 -601.277214 
L 678.71128 -601.277214 
L 678.71128 -601.277214 
L 678.749001 -599.11245 
L 678.796015 -596.947687 
L 678.85348 -594.782923 
L 678.922417 -592.61816 
L 679.003662 -590.453396 
L 679.097842 -588.288632 
L 679.205387 -586.123869 
L 679.326585 -583.959105 
L 679.461665 -581.794342 
L 679.610928 -579.629578 
L 679.774887 -577.464815 
L 679.954422 -575.300051 
L 680.150917 -573.135288 
L 680.366378 -570.970524 
L 680.603494 -568.80576 
L 680.865654 -566.640997 
L 681.156896 -564.476233 
L 681.481777 -562.31147 
L 681.845175 -560.146706 
L 682.252 -557.981943 
L 682.706831 -555.817179 
L 683.213473 -553.652416 
L 683.774457 -551.487652 
L 684.390518 -549.322888 
L 685.060088 -547.158125 
L 685.77889 -544.993361 
L 686.539669 -542.828598 
L 687.332168 -540.663834 
L 688.143371 -538.499071 
L 688.958057 -536.334307 
L 689.759648 -534.169544 
L 690.531298 -532.00478 
L 691.25711 -529.840016 
L 691.923362 -527.675253 
L 692.519585 -525.510489 
L 693.039345 -523.345726 
L 693.480613 -521.180962 
L 693.845659 -519.016199 
L 694.14046 -516.851435 
L 694.373694 -514.686671 
L 694.555438 -512.521908 
L 694.695745 -510.357144 
L 694.80329 -508.192381 
L 694.884255 -506.027617 
L 694.941602 -503.862854 
L 694.974796 -501.69809 
L 694.98 -499.533327 
L 694.95067 -497.368563 
L 694.878446 -495.203799 
L 694.754185 -493.039036 
L 694.569001 -490.874272 
L 694.315184 -488.709509 
L 693.986913 -486.544745 
L 693.580736 -484.379982 
L 693.095823 -482.215218 
L 692.53403 -480.050455 
L 691.899838 -477.885691 
L 691.200216 -475.720927 
L 690.444443 -473.556164 
L 689.643893 -471.3914 
L 688.811777 -469.226637 
L 687.962812 -467.061873 
L 687.112785 -464.89711 
L 686.278006 -462.732346 
L 685.474635 -460.567583 
L 684.71795 -458.402819 
L 684.021573 -456.238055 
L 683.396751 -454.073292 
L 682.851764 -451.908528 
L 682.391498 -449.743765 
L 682.017248 -447.579001 
L 681.726754 -445.414238 
L 681.514453 -443.249474 
L 681.371918 -441.084711 
L 681.288439 -438.919947 
L 681.251686 -436.755183 
L 681.248417 -434.59042 
L 681.265191 -432.425656 
L 681.289047 -430.260893 
L 681.308132 -428.096129 
L 681.312247 -425.931366 
L 681.293299 -423.766602 
L 681.245621 -421.601838 
L 681.16615 -419.437075 
L 681.054426 -417.272311 
L 680.912434 -415.107548 
L 680.744265 -412.942784 
L 680.555643 -410.778021 
L 680.353361 -408.613257 
L 680.14466 -406.448494 
L 679.936647 -404.28373 
L 679.735768 -402.118966 
L 679.547411 -399.954203 
L 679.375651 -397.789439 
L 679.223146 -395.624676 
L 679.091174 -393.459912 
L 678.979788 -391.295149 
L 678.888038 -389.130385 
L 678.814247 -386.965622 
z
" id="m7a5b6dcca3" style="stroke:#303030;stroke-width:1.5;"/>
    </defs>
    <g clip-path="url(#pc9e78a858d)">
     <use style="fill:#c38820;stroke:#303030;stroke-width:1.5;" x="0" xlink:href="#m7a5b6dcca3" y="720"/>
    </g>
   </g>
   <g id="PolyCollection_6">
    <defs>
     <path d="M 711.486279 -394.867283 
L 711.233721 -394.867283 
L 711.189403 -397.026173 
L 711.133088 -399.185063 
L 711.06271 -401.343952 
L 710.97616 -403.502842 
L 710.871366 -405.661732 
L 710.746369 -407.820622 
L 710.599407 -409.979511 
L 710.428997 -412.138401 
L 710.234013 -414.297291 
L 710.013758 -416.45618 
L 709.768026 -418.61507 
L 709.497162 -420.77396 
L 709.20209 -422.93285 
L 708.884332 -425.091739 
L 708.545975 -427.250629 
L 708.1896 -429.409519 
L 707.818145 -431.568409 
L 707.434702 -433.727298 
L 707.042253 -435.886188 
L 706.64336 -438.045078 
L 706.239843 -440.203967 
L 705.832483 -442.362857 
L 705.420805 -444.521747 
L 705.002994 -446.680637 
L 704.575975 -448.839526 
L 704.135702 -450.998416 
L 703.67762 -453.157306 
L 703.197301 -455.316196 
L 702.69118 -457.475085 
L 702.157298 -459.633975 
L 701.59598 -461.792865 
L 701.01034 -463.951754 
L 700.40653 -466.110644 
L 699.793695 -468.269534 
L 699.183594 -470.428424 
L 698.589922 -472.587313 
L 698.027368 -474.746203 
L 697.510524 -476.905093 
L 697.052727 -479.063983 
L 696.664979 -481.222872 
L 696.355057 -483.381762 
L 696.12691 -485.540652 
L 695.980432 -487.699541 
L 695.911616 -489.858431 
L 695.913103 -492.017321 
L 695.975035 -494.176211 
L 696.086132 -496.3351 
L 696.234855 -498.49399 
L 696.410533 -500.65288 
L 696.604324 -502.81177 
L 696.809919 -504.970659 
L 697.023941 -507.129549 
L 697.246015 -509.288439 
L 697.478534 -511.447328 
L 697.726185 -513.606218 
L 697.995281 -515.765108 
L 698.292986 -517.923998 
L 698.626497 -520.082887 
L 699.002228 -522.241777 
L 699.425065 -524.400667 
L 699.897713 -526.559557 
L 700.420197 -528.718446 
L 700.989541 -530.877336 
L 701.599674 -533.036226 
L 702.241577 -535.195115 
L 702.903704 -537.354005 
L 703.572644 -539.512895 
L 704.234 -541.671785 
L 704.873393 -543.830674 
L 705.477528 -545.989564 
L 706.035176 -548.148454 
L 706.538001 -550.307344 
L 706.981111 -552.466233 
L 707.363299 -554.625123 
L 707.686929 -556.784013 
L 707.957511 -558.942902 
L 708.182994 -561.101792 
L 708.372896 -563.260682 
L 708.537353 -565.419572 
L 708.686197 -567.578461 
L 708.828162 -569.737351 
L 708.970284 -571.896241 
L 709.11753 -574.055131 
L 709.27268 -576.21402 
L 709.436425 -578.37291 
L 709.607654 -580.5318 
L 709.783868 -582.690689 
L 709.961654 -584.849579 
L 710.13717 -587.008469 
L 710.306589 -589.167359 
L 710.466457 -591.326248 
L 710.613957 -593.485138 
L 710.747061 -595.644028 
L 710.864583 -597.802918 
L 710.966148 -599.961807 
L 711.052089 -602.120697 
L 711.123314 -604.279587 
L 711.181143 -606.438476 
L 711.22715 -608.597366 
L 711.49285 -608.597366 
L 711.49285 -608.597366 
L 711.538857 -606.438476 
L 711.596686 -604.279587 
L 711.667911 -602.120697 
L 711.753852 -599.961807 
L 711.855417 -597.802918 
L 711.972939 -595.644028 
L 712.106043 -593.485138 
L 712.253543 -591.326248 
L 712.413411 -589.167359 
L 712.58283 -587.008469 
L 712.758346 -584.849579 
L 712.936132 -582.690689 
L 713.112346 -580.5318 
L 713.283575 -578.37291 
L 713.44732 -576.21402 
L 713.60247 -574.055131 
L 713.749716 -571.896241 
L 713.891838 -569.737351 
L 714.033803 -567.578461 
L 714.182647 -565.419572 
L 714.347104 -563.260682 
L 714.537006 -561.101792 
L 714.762489 -558.942902 
L 715.033071 -556.784013 
L 715.356701 -554.625123 
L 715.738889 -552.466233 
L 716.181999 -550.307344 
L 716.684824 -548.148454 
L 717.242472 -545.989564 
L 717.846607 -543.830674 
L 718.486 -541.671785 
L 719.147356 -539.512895 
L 719.816296 -537.354005 
L 720.478423 -535.195115 
L 721.120326 -533.036226 
L 721.730459 -530.877336 
L 722.299803 -528.718446 
L 722.822287 -526.559557 
L 723.294935 -524.400667 
L 723.717772 -522.241777 
L 724.093503 -520.082887 
L 724.427014 -517.923998 
L 724.724719 -515.765108 
L 724.993815 -513.606218 
L 725.241466 -511.447328 
L 725.473985 -509.288439 
L 725.696059 -507.129549 
L 725.910081 -504.970659 
L 726.115676 -502.81177 
L 726.309467 -500.65288 
L 726.485145 -498.49399 
L 726.633868 -496.3351 
L 726.744965 -494.176211 
L 726.806897 -492.017321 
L 726.808384 -489.858431 
L 726.739568 -487.699541 
L 726.59309 -485.540652 
L 726.364943 -483.381762 
L 726.055021 -481.222872 
L 725.667273 -479.063983 
L 725.209476 -476.905093 
L 724.692632 -474.746203 
L 724.130078 -472.587313 
L 723.536406 -470.428424 
L 722.926305 -468.269534 
L 722.31347 -466.110644 
L 721.70966 -463.951754 
L 721.12402 -461.792865 
L 720.562702 -459.633975 
L 720.02882 -457.475085 
L 719.522699 -455.316196 
L 719.04238 -453.157306 
L 718.584298 -450.998416 
L 718.144025 -448.839526 
L 717.717006 -446.680637 
L 717.299195 -444.521747 
L 716.887517 -442.362857 
L 716.480157 -440.203967 
L 716.07664 -438.045078 
L 715.677747 -435.886188 
L 715.285298 -433.727298 
L 714.901855 -431.568409 
L 714.5304 -429.409519 
L 714.174025 -427.250629 
L 713.835668 -425.091739 
L 713.51791 -422.93285 
L 713.222838 -420.77396 
L 712.951974 -418.61507 
L 712.706242 -416.45618 
L 712.485987 -414.297291 
L 712.291003 -412.138401 
L 712.120593 -409.979511 
L 711.973631 -407.820622 
L 711.848634 -405.661732 
L 711.74384 -403.502842 
L 711.65729 -401.343952 
L 711.586912 -399.185063 
L 711.530597 -397.026173 
L 711.486279 -394.867283 
z
" id="m234878cb05" style="stroke:#303030;stroke-width:1.5;"/>
    </defs>
    <g clip-path="url(#pc9e78a858d)">
     <use style="fill:#158b6a;stroke:#303030;stroke-width:1.5;" x="0" xlink:href="#m234878cb05" y="720"/>
    </g>
   </g>
   <g id="patch_3">
    <path clip-path="url(#pc9e78a858d)" d="M 351 1243.697484 
L 351 1243.697484 
L 351 1243.697484 
L 351 1243.697484 
z
" style="fill:#176d9c;stroke:#303030;stroke-linejoin:miter;stroke-width:0.75;"/>
   </g>
   <g id="patch_4">
    <path clip-path="url(#pc9e78a858d)" d="M 351 1243.697484 
L 351 1243.697484 
L 351 1243.697484 
L 351 1243.697484 
z
" style="fill:#c38820;stroke:#303030;stroke-linejoin:miter;stroke-width:0.75;"/>
   </g>
   <g id="patch_5">
    <path clip-path="url(#pc9e78a858d)" d="M 351 1243.697484 
L 351 1243.697484 
L 351 1243.697484 
L 351 1243.697484 
z
" style="fill:#158b6a;stroke:#303030;stroke-linejoin:miter;stroke-width:0.75;"/>
   </g>
   <g id="line2d_9">
    <path clip-path="url(#pc9e78a858d)" d="M 318.24 382.374723 
L 318.24 239.934299 
" style="fill:none;stroke:#303030;stroke-linecap:round;stroke-width:1.5;"/>
   </g>
   <g id="line2d_10">
    <path clip-path="url(#pc9e78a858d)" d="M 318.24 327.118845 
L 318.24 285.103326 
" style="fill:none;stroke:#303030;stroke-linecap:round;stroke-width:4.5;"/>
   </g>
   <g id="line2d_11">
    <path clip-path="url(#pc9e78a858d)" d="M 351 560.290639 
L 351 425.952965 
" style="fill:none;stroke:#303030;stroke-linecap:round;stroke-width:1.5;"/>
   </g>
   <g id="line2d_12">
    <path clip-path="url(#pc9e78a858d)" d="M 351 516.606281 
L 351 473.345792 
" style="fill:none;stroke:#303030;stroke-linecap:round;stroke-width:4.5;"/>
   </g>
   <g id="line2d_13">
    <path clip-path="url(#pc9e78a858d)" d="M 383.76 573.718267 
L 383.76 440.547068 
" style="fill:none;stroke:#303030;stroke-linecap:round;stroke-width:1.5;"/>
   </g>
   <g id="line2d_14">
    <path clip-path="url(#pc9e78a858d)" d="M 383.76 516.329045 
L 383.76 477.080636 
" style="fill:none;stroke:#303030;stroke-linecap:round;stroke-width:4.5;"/>
   </g>
   <g id="line2d_15">
    <path clip-path="url(#pc9e78a858d)" d="M 645.84 294.820959 
L 645.84 142.038675 
" style="fill:none;stroke:#303030;stroke-linecap:round;stroke-width:1.5;"/>
   </g>
   <g id="line2d_16">
    <path clip-path="url(#pc9e78a858d)" d="M 645.84 244.634276 
L 645.84 199.890209 
" style="fill:none;stroke:#303030;stroke-linecap:round;stroke-width:4.5;"/>
   </g>
   <g id="line2d_17">
    <path clip-path="url(#pc9e78a858d)" d="M 678.6 302.844247 
L 678.6 148.912918 
" style="fill:none;stroke:#303030;stroke-linecap:round;stroke-width:1.5;"/>
   </g>
   <g id="line2d_18">
    <path clip-path="url(#pc9e78a858d)" d="M 678.6 240.822333 
L 678.6 198.599263 
" style="fill:none;stroke:#303030;stroke-linecap:round;stroke-width:4.5;"/>
   </g>
   <g id="line2d_19">
    <path clip-path="url(#pc9e78a858d)" d="M 711.36 294.256701 
L 711.36 142.27865 
" style="fill:none;stroke:#303030;stroke-linecap:round;stroke-width:1.5;"/>
   </g>
   <g id="line2d_20">
    <path clip-path="url(#pc9e78a858d)" d="M 711.36 244.357243 
L 711.36 200.327443 
" style="fill:none;stroke:#303030;stroke-linecap:round;stroke-width:4.5;"/>
   </g>
   <g id="line2d_21">
    <path clip-path="url(#pc9e78a858d)" d="M 514.8 630 
L 514.8 86.4 
" style="fill:none;stroke:#000000;stroke-dasharray:5.55,2.4;stroke-dashoffset:0;stroke-opacity:0.4;stroke-width:1.5;"/>
   </g>
   <g id="patch_6">
    <path d="M 187.2 630 
L 187.2 86.4 
" style="fill:none;stroke:#262626;stroke-linecap:square;stroke-linejoin:miter;stroke-width:1.25;"/>
   </g>
   <g id="patch_7">
    <path d="M 842.4 630 
L 842.4 86.4 
" style="fill:none;stroke:#262626;stroke-linecap:square;stroke-linejoin:miter;stroke-width:1.25;"/>
   </g>
   <g id="patch_8">
    <path d="M 187.2 630 
L 842.4 630 
" style="fill:none;stroke:#262626;stroke-linecap:square;stroke-linejoin:miter;stroke-width:1.25;"/>
   </g>
   <g id="patch_9">
    <path d="M 187.2 86.4 
L 842.4 86.4 
" style="fill:none;stroke:#262626;stroke-linecap:square;stroke-linejoin:miter;stroke-width:1.25;"/>
   </g>
   <g id="PathCollection_1">
    <defs>
     <path d="M 0 1.5 
C 0.397805 1.5 0.77937 1.341951 1.06066 1.06066 
C 1.341951 0.77937 1.5 0.397805 1.5 0 
C 1.5 -0.397805 1.341951 -0.77937 1.06066 -1.06066 
C 0.77937 -1.341951 0.397805 -1.5 0 -1.5 
C -0.397805 -1.5 -0.77937 -1.341951 -1.06066 -1.06066 
C -1.341951 -0.77937 -1.5 -0.397805 -1.5 0 
C -1.5 0.397805 -1.341951 0.77937 -1.06066 1.06066 
C -0.77937 1.341951 -0.397805 1.5 0 1.5 
z
" id="me97eadcb38" style="stroke:#303030;"/>
    </defs>
    <g clip-path="url(#pc9e78a858d)">
     <use style="fill:#ffffff;stroke:#303030;" x="318.24" xlink:href="#me97eadcb38" y="306.436525"/>
    </g>
   </g>
   <g id="PathCollection_2">
    <g clip-path="url(#pc9e78a858d)">
     <use style="fill:#ffffff;stroke:#303030;" x="351" xlink:href="#me97eadcb38" y="488.011308"/>
    </g>
   </g>
   <g id="PathCollection_3">
    <g clip-path="url(#pc9e78a858d)">
     <use style="fill:#ffffff;stroke:#303030;" x="383.76" xlink:href="#me97eadcb38" y="505.585407"/>
    </g>
   </g>
   <g id="PathCollection_4">
    <g clip-path="url(#pc9e78a858d)">
     <use style="fill:#ffffff;stroke:#303030;" x="645.84" xlink:href="#me97eadcb38" y="225.779429"/>
    </g>
   </g>
   <g id="PathCollection_5">
    <g clip-path="url(#pc9e78a858d)">
     <use style="fill:#ffffff;stroke:#303030;" x="678.6" xlink:href="#me97eadcb38" y="222.469893"/>
    </g>
   </g>
   <g id="PathCollection_6">
    <g clip-path="url(#pc9e78a858d)">
     <use style="fill:#ffffff;stroke:#303030;" x="711.36" xlink:href="#me97eadcb38" y="225.360833"/>
    </g>
   </g>
   <g id="text_13">
    <!-- Plot of the AUC level for full precision, limited precision and noise -->
    <defs>
     <path d="M 19.671875 64.796875 
L 19.671875 37.40625 
L 32.078125 37.40625 
Q 38.96875 37.40625 42.71875 40.96875 
Q 46.484375 44.53125 46.484375 51.125 
Q 46.484375 57.671875 42.71875 61.234375 
Q 38.96875 64.796875 32.078125 64.796875 
z
M 9.8125 72.90625 
L 32.078125 72.90625 
Q 44.34375 72.90625 50.609375 67.359375 
Q 56.890625 61.8125 56.890625 51.125 
Q 56.890625 40.328125 50.609375 34.8125 
Q 44.34375 29.296875 32.078125 29.296875 
L 19.671875 29.296875 
L 19.671875 0 
L 9.8125 0 
z
" id="DejaVuSans-80"/>
     <path d="M 9.421875 75.984375 
L 18.40625 75.984375 
L 18.40625 0 
L 9.421875 0 
z
" id="DejaVuSans-108"/>
     <path d="M 18.3125 70.21875 
L 18.3125 54.6875 
L 36.8125 54.6875 
L 36.8125 47.703125 
L 18.3125 47.703125 
L 18.3125 18.015625 
Q 18.3125 11.328125 20.140625 9.421875 
Q 21.96875 7.515625 27.59375 7.515625 
L 36.8125 7.515625 
L 36.8125 0 
L 27.59375 0 
Q 17.1875 0 13.234375 3.875 
Q 9.28125 7.765625 9.28125 18.015625 
L 9.28125 47.703125 
L 2.6875 47.703125 
L 2.6875 54.6875 
L 9.28125 54.6875 
L 9.28125 70.21875 
z
" id="DejaVuSans-116"/>
     <path id="DejaVuSans-32"/>
     <path d="M 37.109375 75.984375 
L 37.109375 68.5 
L 28.515625 68.5 
Q 23.6875 68.5 21.796875 66.546875 
Q 19.921875 64.59375 19.921875 59.515625 
L 19.921875 54.6875 
L 34.71875 54.6875 
L 34.71875 47.703125 
L 19.921875 47.703125 
L 19.921875 0 
L 10.890625 0 
L 10.890625 47.703125 
L 2.296875 47.703125 
L 2.296875 54.6875 
L 10.890625 54.6875 
L 10.890625 58.5 
Q 10.890625 67.625 15.140625 71.796875 
Q 19.390625 75.984375 28.609375 75.984375 
z
" id="DejaVuSans-102"/>
     <path d="M 54.890625 33.015625 
L 54.890625 0 
L 45.90625 0 
L 45.90625 32.71875 
Q 45.90625 40.484375 42.875 44.328125 
Q 39.84375 48.1875 33.796875 48.1875 
Q 26.515625 48.1875 22.3125 43.546875 
Q 18.109375 38.921875 18.109375 30.90625 
L 18.109375 0 
L 9.078125 0 
L 9.078125 75.984375 
L 18.109375 75.984375 
L 18.109375 46.1875 
Q 21.34375 51.125 25.703125 53.5625 
Q 30.078125 56 35.796875 56 
Q 45.21875 56 50.046875 50.171875 
Q 54.890625 44.34375 54.890625 33.015625 
z
" id="DejaVuSans-104"/>
     <path d="M 2.984375 54.6875 
L 12.5 54.6875 
L 29.59375 8.796875 
L 46.6875 54.6875 
L 56.203125 54.6875 
L 35.6875 0 
L 23.484375 0 
z
" id="DejaVuSans-118"/>
     <path d="M 41.109375 46.296875 
Q 39.59375 47.171875 37.8125 47.578125 
Q 36.03125 48 33.890625 48 
Q 26.265625 48 22.1875 43.046875 
Q 18.109375 38.09375 18.109375 28.8125 
L 18.109375 0 
L 9.078125 0 
L 9.078125 54.6875 
L 18.109375 54.6875 
L 18.109375 46.1875 
Q 20.953125 51.171875 25.484375 53.578125 
Q 30.03125 56 36.53125 56 
Q 37.453125 56 38.578125 55.875 
Q 39.703125 55.765625 41.0625 55.515625 
z
" id="DejaVuSans-114"/>
     <path d="M 8.5 21.578125 
L 8.5 54.6875 
L 17.484375 54.6875 
L 17.484375 21.921875 
Q 17.484375 14.15625 20.5 10.265625 
Q 23.53125 6.390625 29.59375 6.390625 
Q 36.859375 6.390625 41.078125 11.03125 
Q 45.3125 15.671875 45.3125 23.6875 
L 45.3125 54.6875 
L 54.296875 54.6875 
L 54.296875 0 
L 45.3125 0 
L 45.3125 8.40625 
Q 42.046875 3.421875 37.71875 1 
Q 33.40625 -1.421875 27.6875 -1.421875 
Q 18.265625 -1.421875 13.375 4.4375 
Q 8.5 10.296875 8.5 21.578125 
z
M 31.109375 56 
z
" id="DejaVuSans-117"/>
     <path d="M 18.109375 8.203125 
L 18.109375 -20.796875 
L 9.078125 -20.796875 
L 9.078125 54.6875 
L 18.109375 54.6875 
L 18.109375 46.390625 
Q 20.953125 51.265625 25.265625 53.625 
Q 29.59375 56 35.59375 56 
Q 45.5625 56 51.78125 48.09375 
Q 58.015625 40.1875 58.015625 27.296875 
Q 58.015625 14.40625 51.78125 6.484375 
Q 45.5625 -1.421875 35.59375 -1.421875 
Q 29.59375 -1.421875 25.265625 0.953125 
Q 20.953125 3.328125 18.109375 8.203125 
z
M 48.6875 27.296875 
Q 48.6875 37.203125 44.609375 42.84375 
Q 40.53125 48.484375 33.40625 48.484375 
Q 26.265625 48.484375 22.1875 42.84375 
Q 18.109375 37.203125 18.109375 27.296875 
Q 18.109375 17.390625 22.1875 11.75 
Q 26.265625 6.109375 33.40625 6.109375 
Q 40.53125 6.109375 44.609375 11.75 
Q 48.6875 17.390625 48.6875 27.296875 
z
" id="DejaVuSans-112"/>
     <path d="M 48.78125 52.59375 
L 48.78125 44.1875 
Q 44.96875 46.296875 41.140625 47.34375 
Q 37.3125 48.390625 33.40625 48.390625 
Q 24.65625 48.390625 19.8125 42.84375 
Q 14.984375 37.3125 14.984375 27.296875 
Q 14.984375 17.28125 19.8125 11.734375 
Q 24.65625 6.203125 33.40625 6.203125 
Q 37.3125 6.203125 41.140625 7.25 
Q 44.96875 8.296875 48.78125 10.40625 
L 48.78125 2.09375 
Q 45.015625 0.34375 40.984375 -0.53125 
Q 36.96875 -1.421875 32.421875 -1.421875 
Q 20.0625 -1.421875 12.78125 6.34375 
Q 5.515625 14.109375 5.515625 27.296875 
Q 5.515625 40.671875 12.859375 48.328125 
Q 20.21875 56 33.015625 56 
Q 37.15625 56 41.109375 55.140625 
Q 45.0625 54.296875 48.78125 52.59375 
z
" id="DejaVuSans-99"/>
     <path d="M 11.71875 12.40625 
L 22.015625 12.40625 
L 22.015625 4 
L 14.015625 -11.625 
L 7.71875 -11.625 
L 11.71875 4 
z
" id="DejaVuSans-44"/>
     <path d="M 52 44.1875 
Q 55.375 50.25 60.0625 53.125 
Q 64.75 56 71.09375 56 
Q 79.640625 56 84.28125 50.015625 
Q 88.921875 44.046875 88.921875 33.015625 
L 88.921875 0 
L 79.890625 0 
L 79.890625 32.71875 
Q 79.890625 40.578125 77.09375 44.375 
Q 74.3125 48.1875 68.609375 48.1875 
Q 61.625 48.1875 57.5625 43.546875 
Q 53.515625 38.921875 53.515625 30.90625 
L 53.515625 0 
L 44.484375 0 
L 44.484375 32.71875 
Q 44.484375 40.625 41.703125 44.40625 
Q 38.921875 48.1875 33.109375 48.1875 
Q 26.21875 48.1875 22.15625 43.53125 
Q 18.109375 38.875 18.109375 30.90625 
L 18.109375 0 
L 9.078125 0 
L 9.078125 54.6875 
L 18.109375 54.6875 
L 18.109375 46.1875 
Q 21.1875 51.21875 25.484375 53.609375 
Q 29.78125 56 35.6875 56 
Q 41.65625 56 45.828125 52.96875 
Q 50 49.953125 52 44.1875 
z
" id="DejaVuSans-109"/>
     <path d="M 45.40625 46.390625 
L 45.40625 75.984375 
L 54.390625 75.984375 
L 54.390625 0 
L 45.40625 0 
L 45.40625 8.203125 
Q 42.578125 3.328125 38.25 0.953125 
Q 33.9375 -1.421875 27.875 -1.421875 
Q 17.96875 -1.421875 11.734375 6.484375 
Q 5.515625 14.40625 5.515625 27.296875 
Q 5.515625 40.1875 11.734375 48.09375 
Q 17.96875 56 27.875 56 
Q 33.9375 56 38.25 53.625 
Q 42.578125 51.265625 45.40625 46.390625 
z
M 14.796875 27.296875 
Q 14.796875 17.390625 18.875 11.75 
Q 22.953125 6.109375 30.078125 6.109375 
Q 37.203125 6.109375 41.296875 11.75 
Q 45.40625 17.390625 45.40625 27.296875 
Q 45.40625 37.203125 41.296875 42.84375 
Q 37.203125 48.484375 30.078125 48.484375 
Q 22.953125 48.484375 18.875 42.84375 
Q 14.796875 37.203125 14.796875 27.296875 
z
" id="DejaVuSans-100"/>
     <path d="M 34.28125 27.484375 
Q 23.390625 27.484375 19.1875 25 
Q 14.984375 22.515625 14.984375 16.5 
Q 14.984375 11.71875 18.140625 8.90625 
Q 21.296875 6.109375 26.703125 6.109375 
Q 34.1875 6.109375 38.703125 11.40625 
Q 43.21875 16.703125 43.21875 25.484375 
L 43.21875 27.484375 
z
M 52.203125 31.203125 
L 52.203125 0 
L 43.21875 0 
L 43.21875 8.296875 
Q 40.140625 3.328125 35.546875 0.953125 
Q 30.953125 -1.421875 24.3125 -1.421875 
Q 15.921875 -1.421875 10.953125 3.296875 
Q 6 8.015625 6 15.921875 
Q 6 25.140625 12.171875 29.828125 
Q 18.359375 34.515625 30.609375 34.515625 
L 43.21875 34.515625 
L 43.21875 35.40625 
Q 43.21875 41.609375 39.140625 45 
Q 35.0625 48.390625 27.6875 48.390625 
Q 23 48.390625 18.546875 47.265625 
Q 14.109375 46.140625 10.015625 43.890625 
L 10.015625 52.203125 
Q 14.9375 54.109375 19.578125 55.046875 
Q 24.21875 56 28.609375 56 
Q 40.484375 56 46.34375 49.84375 
Q 52.203125 43.703125 52.203125 31.203125 
z
" id="DejaVuSans-97"/>
    </defs>
    <g style="fill:#262626;" transform="translate(318.186562 80.4)scale(0.12 -0.12)">
     <use xlink:href="#DejaVuSans-80"/>
     <use x="60.302734" xlink:href="#DejaVuSans-108"/>
     <use x="88.085938" xlink:href="#DejaVuSans-111"/>
     <use x="149.267578" xlink:href="#DejaVuSans-116"/>
     <use x="188.476562" xlink:href="#DejaVuSans-32"/>
     <use x="220.263672" xlink:href="#DejaVuSans-111"/>
     <use x="281.445312" xlink:href="#DejaVuSans-102"/>
     <use x="316.650391" xlink:href="#DejaVuSans-32"/>
     <use x="348.4375" xlink:href="#DejaVuSans-116"/>
     <use x="387.646484" xlink:href="#DejaVuSans-104"/>
     <use x="451.025391" xlink:href="#DejaVuSans-101"/>
     <use x="512.548828" xlink:href="#DejaVuSans-32"/>
     <use x="544.335938" xlink:href="#DejaVuSans-65"/>
     <use x="612.744141" xlink:href="#DejaVuSans-85"/>
     <use x="685.9375" xlink:href="#DejaVuSans-67"/>
     <use x="755.761719" xlink:href="#DejaVuSans-32"/>
     <use x="787.548828" xlink:href="#DejaVuSans-108"/>
     <use x="815.332031" xlink:href="#DejaVuSans-101"/>
     <use x="876.855469" xlink:href="#DejaVuSans-118"/>
     <use x="936.035156" xlink:href="#DejaVuSans-101"/>
     <use x="997.558594" xlink:href="#DejaVuSans-108"/>
     <use x="1025.341797" xlink:href="#DejaVuSans-32"/>
     <use x="1057.128906" xlink:href="#DejaVuSans-102"/>
     <use x="1092.333984" xlink:href="#DejaVuSans-111"/>
     <use x="1153.515625" xlink:href="#DejaVuSans-114"/>
     <use x="1194.628906" xlink:href="#DejaVuSans-32"/>
     <use x="1226.416016" xlink:href="#DejaVuSans-102"/>
     <use x="1261.621094" xlink:href="#DejaVuSans-117"/>
     <use x="1325" xlink:href="#DejaVuSans-108"/>
     <use x="1352.783203" xlink:href="#DejaVuSans-108"/>
     <use x="1380.566406" xlink:href="#DejaVuSans-32"/>
     <use x="1412.353516" xlink:href="#DejaVuSans-112"/>
     <use x="1475.830078" xlink:href="#DejaVuSans-114"/>
     <use x="1516.912109" xlink:href="#DejaVuSans-101"/>
     <use x="1578.435547" xlink:href="#DejaVuSans-99"/>
     <use x="1633.416016" xlink:href="#DejaVuSans-105"/>
     <use x="1661.199219" xlink:href="#DejaVuSans-115"/>
     <use x="1713.298828" xlink:href="#DejaVuSans-105"/>
     <use x="1741.082031" xlink:href="#DejaVuSans-111"/>
     <use x="1802.263672" xlink:href="#DejaVuSans-110"/>
     <use x="1865.642578" xlink:href="#DejaVuSans-44"/>
     <use x="1897.429688" xlink:href="#DejaVuSans-32"/>
     <use x="1929.216797" xlink:href="#DejaVuSans-108"/>
     <use x="1957" xlink:href="#DejaVuSans-105"/>
     <use x="1984.783203" xlink:href="#DejaVuSans-109"/>
     <use x="2082.195312" xlink:href="#DejaVuSans-105"/>
     <use x="2109.978516" xlink:href="#DejaVuSans-116"/>
     <use x="2149.1875" xlink:href="#DejaVuSans-101"/>
     <use x="2210.710938" xlink:href="#DejaVuSans-100"/>
     <use x="2274.1875" xlink:href="#DejaVuSans-32"/>
     <use x="2305.974609" xlink:href="#DejaVuSans-112"/>
     <use x="2369.451172" xlink:href="#DejaVuSans-114"/>
     <use x="2410.533203" xlink:href="#DejaVuSans-101"/>
     <use x="2472.056641" xlink:href="#DejaVuSans-99"/>
     <use x="2527.037109" xlink:href="#DejaVuSans-105"/>
     <use x="2554.820312" xlink:href="#DejaVuSans-115"/>
     <use x="2606.919922" xlink:href="#DejaVuSans-105"/>
     <use x="2634.703125" xlink:href="#DejaVuSans-111"/>
     <use x="2695.884766" xlink:href="#DejaVuSans-110"/>
     <use x="2759.263672" xlink:href="#DejaVuSans-32"/>
     <use x="2791.050781" xlink:href="#DejaVuSans-97"/>
     <use x="2852.330078" xlink:href="#DejaVuSans-110"/>
     <use x="2915.708984" xlink:href="#DejaVuSans-100"/>
     <use x="2979.185547" xlink:href="#DejaVuSans-32"/>
     <use x="3010.972656" xlink:href="#DejaVuSans-110"/>
     <use x="3074.351562" xlink:href="#DejaVuSans-111"/>
     <use x="3135.533203" xlink:href="#DejaVuSans-105"/>
     <use x="3163.316406" xlink:href="#DejaVuSans-115"/>
     <use x="3215.416016" xlink:href="#DejaVuSans-101"/>
    </g>
   </g>
   <g id="legend_1">
    <g id="patch_10">
     <path d="M 196.3 623.5 
L 365.622969 623.5 
Q 368.222969 623.5 368.222969 620.9 
L 368.222969 564.955312 
Q 368.222969 562.355312 365.622969 562.355312 
L 196.3 562.355312 
Q 193.7 562.355312 193.7 564.955312 
L 193.7 620.9 
Q 193.7 623.5 196.3 623.5 
z
" style="fill:#ffffff;opacity:0.8;stroke:#cccccc;stroke-linejoin:miter;"/>
    </g>
    <g id="patch_11">
     <path d="M 198.9 577.433281 
L 224.9 577.433281 
L 224.9 568.333281 
L 198.9 568.333281 
z
" style="fill:#176d9c;stroke:#303030;stroke-linejoin:miter;stroke-width:0.75;"/>
    </g>
    <g id="text_14">
     <!-- maximal precision -->
     <defs>
      <path d="M 54.890625 54.6875 
L 35.109375 28.078125 
L 55.90625 0 
L 45.3125 0 
L 29.390625 21.484375 
L 13.484375 0 
L 2.875 0 
L 24.125 28.609375 
L 4.6875 54.6875 
L 15.28125 54.6875 
L 29.78125 35.203125 
L 44.28125 54.6875 
z
" id="DejaVuSans-120"/>
     </defs>
     <g style="fill:#262626;" transform="translate(235.3 577.433281)scale(0.13 -0.13)">
      <use xlink:href="#DejaVuSans-109"/>
      <use x="97.412109" xlink:href="#DejaVuSans-97"/>
      <use x="158.691406" xlink:href="#DejaVuSans-120"/>
      <use x="217.871094" xlink:href="#DejaVuSans-105"/>
      <use x="245.654297" xlink:href="#DejaVuSans-109"/>
      <use x="343.066406" xlink:href="#DejaVuSans-97"/>
      <use x="404.345703" xlink:href="#DejaVuSans-108"/>
      <use x="432.128906" xlink:href="#DejaVuSans-32"/>
      <use x="463.916016" xlink:href="#DejaVuSans-112"/>
      <use x="527.392578" xlink:href="#DejaVuSans-114"/>
      <use x="568.474609" xlink:href="#DejaVuSans-101"/>
      <use x="629.998047" xlink:href="#DejaVuSans-99"/>
      <use x="684.978516" xlink:href="#DejaVuSans-105"/>
      <use x="712.761719" xlink:href="#DejaVuSans-115"/>
      <use x="764.861328" xlink:href="#DejaVuSans-105"/>
      <use x="792.644531" xlink:href="#DejaVuSans-111"/>
      <use x="853.826172" xlink:href="#DejaVuSans-110"/>
     </g>
    </g>
    <g id="patch_12">
     <path d="M 198.9 596.514844 
L 224.9 596.514844 
L 224.9 587.414844 
L 198.9 587.414844 
z
" style="fill:#c38820;stroke:#303030;stroke-linejoin:miter;stroke-width:0.75;"/>
    </g>
    <g id="text_15">
     <!-- precision of 3 digits -->
     <defs>
      <path d="M 40.578125 39.3125 
Q 47.65625 37.796875 51.625 33 
Q 55.609375 28.21875 55.609375 21.1875 
Q 55.609375 10.40625 48.1875 4.484375 
Q 40.765625 -1.421875 27.09375 -1.421875 
Q 22.515625 -1.421875 17.65625 -0.515625 
Q 12.796875 0.390625 7.625 2.203125 
L 7.625 11.71875 
Q 11.71875 9.328125 16.59375 8.109375 
Q 21.484375 6.890625 26.8125 6.890625 
Q 36.078125 6.890625 40.9375 10.546875 
Q 45.796875 14.203125 45.796875 21.1875 
Q 45.796875 27.640625 41.28125 31.265625 
Q 36.765625 34.90625 28.71875 34.90625 
L 20.21875 34.90625 
L 20.21875 43.015625 
L 29.109375 43.015625 
Q 36.375 43.015625 40.234375 45.921875 
Q 44.09375 48.828125 44.09375 54.296875 
Q 44.09375 59.90625 40.109375 62.90625 
Q 36.140625 65.921875 28.71875 65.921875 
Q 24.65625 65.921875 20.015625 65.03125 
Q 15.375 64.15625 9.8125 62.3125 
L 9.8125 71.09375 
Q 15.4375 72.65625 20.34375 73.4375 
Q 25.25 74.21875 29.59375 74.21875 
Q 40.828125 74.21875 47.359375 69.109375 
Q 53.90625 64.015625 53.90625 55.328125 
Q 53.90625 49.265625 50.4375 45.09375 
Q 46.96875 40.921875 40.578125 39.3125 
z
" id="DejaVuSans-51"/>
      <path d="M 45.40625 27.984375 
Q 45.40625 37.75 41.375 43.109375 
Q 37.359375 48.484375 30.078125 48.484375 
Q 22.859375 48.484375 18.828125 43.109375 
Q 14.796875 37.75 14.796875 27.984375 
Q 14.796875 18.265625 18.828125 12.890625 
Q 22.859375 7.515625 30.078125 7.515625 
Q 37.359375 7.515625 41.375 12.890625 
Q 45.40625 18.265625 45.40625 27.984375 
z
M 54.390625 6.78125 
Q 54.390625 -7.171875 48.1875 -13.984375 
Q 42 -20.796875 29.203125 -20.796875 
Q 24.46875 -20.796875 20.265625 -20.09375 
Q 16.0625 -19.390625 12.109375 -17.921875 
L 12.109375 -9.1875 
Q 16.0625 -11.328125 19.921875 -12.34375 
Q 23.78125 -13.375 27.78125 -13.375 
Q 36.625 -13.375 41.015625 -8.765625 
Q 45.40625 -4.15625 45.40625 5.171875 
L 45.40625 9.625 
Q 42.625 4.78125 38.28125 2.390625 
Q 33.9375 0 27.875 0 
Q 17.828125 0 11.671875 7.65625 
Q 5.515625 15.328125 5.515625 27.984375 
Q 5.515625 40.671875 11.671875 48.328125 
Q 17.828125 56 27.875 56 
Q 33.9375 56 38.28125 53.609375 
Q 42.625 51.21875 45.40625 46.390625 
L 45.40625 54.6875 
L 54.390625 54.6875 
z
" id="DejaVuSans-103"/>
     </defs>
     <g style="fill:#262626;" transform="translate(235.3 596.514844)scale(0.13 -0.13)">
      <use xlink:href="#DejaVuSans-112"/>
      <use x="63.476562" xlink:href="#DejaVuSans-114"/>
      <use x="104.558594" xlink:href="#DejaVuSans-101"/>
      <use x="166.082031" xlink:href="#DejaVuSans-99"/>
      <use x="221.0625" xlink:href="#DejaVuSans-105"/>
      <use x="248.845703" xlink:href="#DejaVuSans-115"/>
      <use x="300.945312" xlink:href="#DejaVuSans-105"/>
      <use x="328.728516" xlink:href="#DejaVuSans-111"/>
      <use x="389.910156" xlink:href="#DejaVuSans-110"/>
      <use x="453.289062" xlink:href="#DejaVuSans-32"/>
      <use x="485.076172" xlink:href="#DejaVuSans-111"/>
      <use x="546.257812" xlink:href="#DejaVuSans-102"/>
      <use x="581.462891" xlink:href="#DejaVuSans-32"/>
      <use x="613.25" xlink:href="#DejaVuSans-51"/>
      <use x="676.873047" xlink:href="#DejaVuSans-32"/>
      <use x="708.660156" xlink:href="#DejaVuSans-100"/>
      <use x="772.136719" xlink:href="#DejaVuSans-105"/>
      <use x="799.919922" xlink:href="#DejaVuSans-103"/>
      <use x="863.396484" xlink:href="#DejaVuSans-105"/>
      <use x="891.179688" xlink:href="#DejaVuSans-116"/>
      <use x="930.388672" xlink:href="#DejaVuSans-115"/>
     </g>
    </g>
    <g id="patch_13">
     <path d="M 198.9 615.596406 
L 224.9 615.596406 
L 224.9 606.496406 
L 198.9 606.496406 
z
" style="fill:#158b6a;stroke:#303030;stroke-linejoin:miter;stroke-width:0.75;"/>
    </g>
    <g id="text_16">
     <!-- noise of $10^{-4}$ -->
     <defs>
      <path d="M 9.28125 0 
L 9.28125 3.515625 
Q 21.78125 3.515625 21.78125 6.6875 
L 21.78125 59.1875 
Q 16.609375 56.6875 8.6875 56.6875 
L 8.6875 60.203125 
Q 20.953125 60.203125 27.203125 66.609375 
L 28.609375 66.609375 
Q 28.953125 66.609375 29.265625 66.328125 
Q 29.59375 66.0625 29.59375 65.71875 
L 29.59375 6.6875 
Q 29.59375 3.515625 42.09375 3.515625 
L 42.09375 0 
z
" id="Cmr10-49"/>
      <path d="M 25 -2.203125 
Q 12.75 -2.203125 8.328125 7.875 
Q 3.90625 17.96875 3.90625 31.890625 
Q 3.90625 40.578125 5.484375 48.234375 
Q 7.078125 55.90625 11.78125 61.25 
Q 16.5 66.609375 25 66.609375 
Q 31.59375 66.609375 35.78125 63.375 
Q 39.984375 60.15625 42.1875 55.046875 
Q 44.390625 49.953125 45.1875 44.109375 
Q 46 38.28125 46 31.890625 
Q 46 23.296875 44.40625 15.796875 
Q 42.828125 8.296875 38.1875 3.046875 
Q 33.546875 -2.203125 25 -2.203125 
z
M 25 0.390625 
Q 30.5625 0.390625 33.296875 6.09375 
Q 36.03125 11.8125 36.671875 18.75 
Q 37.3125 25.6875 37.3125 33.5 
Q 37.3125 41.015625 36.671875 47.359375 
Q 36.03125 53.71875 33.3125 58.859375 
Q 30.609375 64.015625 25 64.015625 
Q 19.34375 64.015625 16.609375 58.828125 
Q 13.875 53.65625 13.234375 47.328125 
Q 12.59375 41.015625 12.59375 33.5 
Q 12.59375 27.9375 12.859375 23 
Q 13.140625 18.0625 14.3125 12.8125 
Q 15.484375 7.5625 18.09375 3.96875 
Q 20.703125 0.390625 25 0.390625 
z
" id="Cmr10-48"/>
      <path d="M 10.203125 23 
Q 9.375 23 8.828125 23.625 
Q 8.296875 24.265625 8.296875 25 
Q 8.296875 25.734375 8.828125 26.359375 
Q 9.375 27 10.203125 27 
L 67.578125 27 
Q 68.359375 27 68.875 26.359375 
Q 69.390625 25.734375 69.390625 25 
Q 69.390625 24.265625 68.875 23.625 
Q 68.359375 23 67.578125 23 
z
" id="Cmsy10-161"/>
      <path d="M 2.78125 16.5 
L 2.78125 20.015625 
L 33.6875 66.109375 
Q 34.03125 66.609375 34.71875 66.609375 
L 36.1875 66.609375 
Q 37.3125 66.609375 37.3125 65.484375 
L 37.3125 20.015625 
L 47.125 20.015625 
L 47.125 16.5 
L 37.3125 16.5 
L 37.3125 6.6875 
Q 37.3125 4.640625 40.234375 4.078125 
Q 43.171875 3.515625 47.015625 3.515625 
L 47.015625 0 
L 19.484375 0 
L 19.484375 3.515625 
Q 23.34375 3.515625 26.265625 4.078125 
Q 29.203125 4.640625 29.203125 6.6875 
L 29.203125 16.5 
z
M 6.109375 20.015625 
L 29.78125 20.015625 
L 29.78125 55.421875 
z
" id="Cmr10-52"/>
     </defs>
     <g style="fill:#262626;" transform="translate(235.3 615.596406)scale(0.13 -0.13)">
      <use transform="translate(0 0.109375)" xlink:href="#DejaVuSans-110"/>
      <use transform="translate(63.378906 0.109375)" xlink:href="#DejaVuSans-111"/>
      <use transform="translate(124.560547 0.109375)" xlink:href="#DejaVuSans-105"/>
      <use transform="translate(152.34375 0.109375)" xlink:href="#DejaVuSans-115"/>
      <use transform="translate(204.443359 0.109375)" xlink:href="#DejaVuSans-101"/>
      <use transform="translate(265.966797 0.109375)" xlink:href="#DejaVuSans-32"/>
      <use transform="translate(297.753906 0.109375)" xlink:href="#DejaVuSans-111"/>
      <use transform="translate(358.935547 0.109375)" xlink:href="#DejaVuSans-102"/>
      <use transform="translate(394.140625 0.109375)" xlink:href="#DejaVuSans-32"/>
      <use transform="translate(425.927734 0.109375)" xlink:href="#Cmr10-49"/>
      <use transform="translate(475.927734 0.109375)" xlink:href="#Cmr10-48"/>
      <use transform="translate(530.391875 38.373438)scale(0.7)" xlink:href="#Cmsy10-161"/>
      <use transform="translate(584.771758 38.373438)scale(0.7)" xlink:href="#Cmr10-52"/>
     </g>
    </g>
   </g>
  </g>
 </g>
 <defs>
  <clipPath id="pc9e78a858d">
   <rect height="543.6" width="655.2" x="187.2" y="86.4"/>
  </clipPath>
 </defs>
</svg>
