<?xml version="1.0" encoding="utf-8" standalone="no"?>
<!DOCTYPE svg PUBLIC "-//W3C//DTD SVG 1.1//EN"
  "http://www.w3.org/Graphics/SVG/1.1/DTD/svg11.dtd">
<!-- Created with matplotlib (https://matplotlib.org/) -->
<svg height="720pt" version="1.1" viewBox="0 0 936 720" width="936pt" xmlns="http://www.w3.org/2000/svg" xmlns:xlink="http://www.w3.org/1999/xlink">
 <defs>
  <style type="text/css">
*{stroke-linecap:butt;stroke-linejoin:round;}
  </style>
 </defs>
 <g id="figure_1">
  <g id="patch_1">
   <path d="M 0 720 
L 936 720 
L 936 0 
L 0 0 
z
" style="fill:#ffffff;"/>
  </g>
  <g id="axes_1">
   <g id="patch_2">
    <path d="M 187.2 630 
L 842.4 630 
L 842.4 86.4 
L 187.2 86.4 
z
" style="fill:#ffffff;"/>
   </g>
   <g id="matplotlib.axis_1">
    <g id="xtick_1">
     <g id="text_1">
      <!-- 1e-05 -->
      <defs>
       <path d="M 12.40625 8.296875 
L 28.515625 8.296875 
L 28.515625 63.921875 
L 10.984375 60.40625 
L 10.984375 69.390625 
L 28.421875 72.90625 
L 38.28125 72.90625 
L 38.28125 8.296875 
L 54.390625 8.296875 
L 54.390625 0 
L 12.40625 0 
z
" id="DejaVuSans-49"/>
       <path d="M 56.203125 29.59375 
L 56.203125 25.203125 
L 14.890625 25.203125 
Q 15.484375 15.921875 20.484375 11.0625 
Q 25.484375 6.203125 34.421875 6.203125 
Q 39.59375 6.203125 44.453125 7.46875 
Q 49.3125 8.734375 54.109375 11.28125 
L 54.109375 2.78125 
Q 49.265625 0.734375 44.1875 -0.34375 
Q 39.109375 -1.421875 33.890625 -1.421875 
Q 20.796875 -1.421875 13.15625 6.1875 
Q 5.515625 13.8125 5.515625 26.8125 
Q 5.515625 40.234375 12.765625 48.109375 
Q 20.015625 56 32.328125 56 
Q 43.359375 56 49.78125 48.890625 
Q 56.203125 41.796875 56.203125 29.59375 
z
M 47.21875 32.234375 
Q 47.125 39.59375 43.09375 43.984375 
Q 39.0625 48.390625 32.421875 48.390625 
Q 24.90625 48.390625 20.390625 44.140625 
Q 15.875 39.890625 15.1875 32.171875 
z
" id="DejaVuSans-101"/>
       <path d="M 4.890625 31.390625 
L 31.203125 31.390625 
L 31.203125 23.390625 
L 4.890625 23.390625 
z
" id="DejaVuSans-45"/>
       <path d="M 31.78125 66.40625 
Q 24.171875 66.40625 20.328125 58.90625 
Q 16.5 51.421875 16.5 36.375 
Q 16.5 21.390625 20.328125 13.890625 
Q 24.171875 6.390625 31.78125 6.390625 
Q 39.453125 6.390625 43.28125 13.890625 
Q 47.125 21.390625 47.125 36.375 
Q 47.125 51.421875 43.28125 58.90625 
Q 39.453125 66.40625 31.78125 66.40625 
z
M 31.78125 74.21875 
Q 44.046875 74.21875 50.515625 64.515625 
Q 56.984375 54.828125 56.984375 36.375 
Q 56.984375 17.96875 50.515625 8.265625 
Q 44.046875 -1.421875 31.78125 -1.421875 
Q 19.53125 -1.421875 13.0625 8.265625 
Q 6.59375 17.96875 6.59375 36.375 
Q 6.59375 54.828125 13.0625 64.515625 
Q 19.53125 74.21875 31.78125 74.21875 
z
" id="DejaVuSans-48"/>
       <path d="M 10.796875 72.90625 
L 49.515625 72.90625 
L 49.515625 64.59375 
L 19.828125 64.59375 
L 19.828125 46.734375 
Q 21.96875 47.46875 24.109375 47.828125 
Q 26.265625 48.1875 28.421875 48.1875 
Q 40.625 48.1875 47.75 41.5 
Q 54.890625 34.8125 54.890625 23.390625 
Q 54.890625 11.625 47.5625 5.09375 
Q 40.234375 -1.421875 26.90625 -1.421875 
Q 22.3125 -1.421875 17.546875 -0.640625 
Q 12.796875 0.140625 7.71875 1.703125 
L 7.71875 11.625 
Q 12.109375 9.234375 16.796875 8.0625 
Q 21.484375 6.890625 26.703125 6.890625 
Q 35.15625 6.890625 40.078125 11.328125 
Q 45.015625 15.765625 45.015625 23.390625 
Q 45.015625 31 40.078125 35.4375 
Q 35.15625 39.890625 26.703125 39.890625 
Q 22.75 39.890625 18.8125 39.015625 
Q 14.890625 38.140625 10.796875 36.28125 
z
" id="DejaVuSans-53"/>
      </defs>
      <g style="fill:#262626;" transform="translate(335.133359 647.858281)scale(0.11 -0.11)">
       <use xlink:href="#DejaVuSans-49"/>
       <use x="63.623047" xlink:href="#DejaVuSans-101"/>
       <use x="125.146484" xlink:href="#DejaVuSans-45"/>
       <use x="161.230469" xlink:href="#DejaVuSans-48"/>
       <use x="224.853516" xlink:href="#DejaVuSans-53"/>
      </g>
     </g>
    </g>
    <g id="xtick_2">
     <g id="text_2">
      <!-- 0.1 -->
      <defs>
       <path d="M 10.6875 12.40625 
L 21 12.40625 
L 21 0 
L 10.6875 0 
z
" id="DejaVuSans-46"/>
      </defs>
      <g style="fill:#262626;" transform="translate(669.853281 647.858281)scale(0.11 -0.11)">
       <use xlink:href="#DejaVuSans-48"/>
       <use x="63.623047" xlink:href="#DejaVuSans-46"/>
       <use x="95.410156" xlink:href="#DejaVuSans-49"/>
      </g>
     </g>
    </g>
    <g id="text_3">
     <!-- noise -->
     <defs>
      <path d="M 54.890625 33.015625 
L 54.890625 0 
L 45.90625 0 
L 45.90625 32.71875 
Q 45.90625 40.484375 42.875 44.328125 
Q 39.84375 48.1875 33.796875 48.1875 
Q 26.515625 48.1875 22.3125 43.546875 
Q 18.109375 38.921875 18.109375 30.90625 
L 18.109375 0 
L 9.078125 0 
L 9.078125 54.6875 
L 18.109375 54.6875 
L 18.109375 46.1875 
Q 21.34375 51.125 25.703125 53.5625 
Q 30.078125 56 35.796875 56 
Q 45.21875 56 50.046875 50.171875 
Q 54.890625 44.34375 54.890625 33.015625 
z
" id="DejaVuSans-110"/>
      <path d="M 30.609375 48.390625 
Q 23.390625 48.390625 19.1875 42.75 
Q 14.984375 37.109375 14.984375 27.296875 
Q 14.984375 17.484375 19.15625 11.84375 
Q 23.34375 6.203125 30.609375 6.203125 
Q 37.796875 6.203125 41.984375 11.859375 
Q 46.1875 17.53125 46.1875 27.296875 
Q 46.1875 37.015625 41.984375 42.703125 
Q 37.796875 48.390625 30.609375 48.390625 
z
M 30.609375 56 
Q 42.328125 56 49.015625 48.375 
Q 55.71875 40.765625 55.71875 27.296875 
Q 55.71875 13.875 49.015625 6.21875 
Q 42.328125 -1.421875 30.609375 -1.421875 
Q 18.84375 -1.421875 12.171875 6.21875 
Q 5.515625 13.875 5.515625 27.296875 
Q 5.515625 40.765625 12.171875 48.375 
Q 18.84375 56 30.609375 56 
z
" id="DejaVuSans-111"/>
      <path d="M 9.421875 54.6875 
L 18.40625 54.6875 
L 18.40625 0 
L 9.421875 0 
z
M 9.421875 75.984375 
L 18.40625 75.984375 
L 18.40625 64.59375 
L 9.421875 64.59375 
z
" id="DejaVuSans-105"/>
      <path d="M 44.28125 53.078125 
L 44.28125 44.578125 
Q 40.484375 46.53125 36.375 47.5 
Q 32.28125 48.484375 27.875 48.484375 
Q 21.1875 48.484375 17.84375 46.4375 
Q 14.5 44.390625 14.5 40.28125 
Q 14.5 37.15625 16.890625 35.375 
Q 19.28125 33.59375 26.515625 31.984375 
L 29.59375 31.296875 
Q 39.15625 29.25 43.1875 25.515625 
Q 47.21875 21.78125 47.21875 15.09375 
Q 47.21875 7.46875 41.1875 3.015625 
Q 35.15625 -1.421875 24.609375 -1.421875 
Q 20.21875 -1.421875 15.453125 -0.5625 
Q 10.6875 0.296875 5.421875 2 
L 5.421875 11.28125 
Q 10.40625 8.6875 15.234375 7.390625 
Q 20.0625 6.109375 24.8125 6.109375 
Q 31.15625 6.109375 34.5625 8.28125 
Q 37.984375 10.453125 37.984375 14.40625 
Q 37.984375 18.0625 35.515625 20.015625 
Q 33.0625 21.96875 24.703125 23.78125 
L 21.578125 24.515625 
Q 13.234375 26.265625 9.515625 29.90625 
Q 5.8125 33.546875 5.8125 39.890625 
Q 5.8125 47.609375 11.28125 51.796875 
Q 16.75 56 26.8125 56 
Q 31.78125 56 36.171875 55.265625 
Q 40.578125 54.546875 44.28125 53.078125 
z
" id="DejaVuSans-115"/>
     </defs>
     <g style="fill:#262626;" transform="translate(498.841875 663.264063)scale(0.12 -0.12)">
      <use xlink:href="#DejaVuSans-110"/>
      <use x="63.378906" xlink:href="#DejaVuSans-111"/>
      <use x="124.560547" xlink:href="#DejaVuSans-105"/>
      <use x="152.34375" xlink:href="#DejaVuSans-115"/>
      <use x="204.443359" xlink:href="#DejaVuSans-101"/>
     </g>
    </g>
   </g>
   <g id="matplotlib.axis_2">
    <g id="ytick_1">
     <g id="line2d_1">
      <defs>
       <path d="M 0 0 
L -6 0 
" id="m707c839ab9" style="stroke:#262626;stroke-width:1.25;"/>
      </defs>
      <g>
       <use style="fill:#262626;stroke:#262626;stroke-width:1.25;" x="187.2" xlink:href="#m707c839ab9" y="597.948613"/>
      </g>
     </g>
     <g id="text_4">
      <!-- 0.45 -->
      <defs>
       <path d="M 37.796875 64.3125 
L 12.890625 25.390625 
L 37.796875 25.390625 
z
M 35.203125 72.90625 
L 47.609375 72.90625 
L 47.609375 25.390625 
L 58.015625 25.390625 
L 58.015625 17.1875 
L 47.609375 17.1875 
L 47.609375 0 
L 37.796875 0 
L 37.796875 17.1875 
L 4.890625 17.1875 
L 4.890625 26.703125 
z
" id="DejaVuSans-52"/>
      </defs>
      <g style="fill:#262626;" transform="translate(153.207813 602.127754)scale(0.11 -0.11)">
       <use xlink:href="#DejaVuSans-48"/>
       <use x="63.623047" xlink:href="#DejaVuSans-46"/>
       <use x="95.410156" xlink:href="#DejaVuSans-52"/>
       <use x="159.033203" xlink:href="#DejaVuSans-53"/>
      </g>
     </g>
    </g>
    <g id="ytick_2">
     <g id="line2d_2">
      <g>
       <use style="fill:#262626;stroke:#262626;stroke-width:1.25;" x="187.2" xlink:href="#m707c839ab9" y="526.198739"/>
      </g>
     </g>
     <g id="text_5">
      <!-- 0.50 -->
      <g style="fill:#262626;" transform="translate(153.207813 530.377879)scale(0.11 -0.11)">
       <use xlink:href="#DejaVuSans-48"/>
       <use x="63.623047" xlink:href="#DejaVuSans-46"/>
       <use x="95.410156" xlink:href="#DejaVuSans-53"/>
       <use x="159.033203" xlink:href="#DejaVuSans-48"/>
      </g>
     </g>
    </g>
    <g id="ytick_3">
     <g id="line2d_3">
      <g>
       <use style="fill:#262626;stroke:#262626;stroke-width:1.25;" x="187.2" xlink:href="#m707c839ab9" y="454.448864"/>
      </g>
     </g>
     <g id="text_6">
      <!-- 0.55 -->
      <g style="fill:#262626;" transform="translate(153.207813 458.628005)scale(0.11 -0.11)">
       <use xlink:href="#DejaVuSans-48"/>
       <use x="63.623047" xlink:href="#DejaVuSans-46"/>
       <use x="95.410156" xlink:href="#DejaVuSans-53"/>
       <use x="159.033203" xlink:href="#DejaVuSans-53"/>
      </g>
     </g>
    </g>
    <g id="ytick_4">
     <g id="line2d_4">
      <g>
       <use style="fill:#262626;stroke:#262626;stroke-width:1.25;" x="187.2" xlink:href="#m707c839ab9" y="382.69899"/>
      </g>
     </g>
     <g id="text_7">
      <!-- 0.60 -->
      <defs>
       <path d="M 33.015625 40.375 
Q 26.375 40.375 22.484375 35.828125 
Q 18.609375 31.296875 18.609375 23.390625 
Q 18.609375 15.53125 22.484375 10.953125 
Q 26.375 6.390625 33.015625 6.390625 
Q 39.65625 6.390625 43.53125 10.953125 
Q 47.40625 15.53125 47.40625 23.390625 
Q 47.40625 31.296875 43.53125 35.828125 
Q 39.65625 40.375 33.015625 40.375 
z
M 52.59375 71.296875 
L 52.59375 62.3125 
Q 48.875 64.0625 45.09375 64.984375 
Q 41.3125 65.921875 37.59375 65.921875 
Q 27.828125 65.921875 22.671875 59.328125 
Q 17.53125 52.734375 16.796875 39.40625 
Q 19.671875 43.65625 24.015625 45.921875 
Q 28.375 48.1875 33.59375 48.1875 
Q 44.578125 48.1875 50.953125 41.515625 
Q 57.328125 34.859375 57.328125 23.390625 
Q 57.328125 12.15625 50.6875 5.359375 
Q 44.046875 -1.421875 33.015625 -1.421875 
Q 20.359375 -1.421875 13.671875 8.265625 
Q 6.984375 17.96875 6.984375 36.375 
Q 6.984375 53.65625 15.1875 63.9375 
Q 23.390625 74.21875 37.203125 74.21875 
Q 40.921875 74.21875 44.703125 73.484375 
Q 48.484375 72.75 52.59375 71.296875 
z
" id="DejaVuSans-54"/>
      </defs>
      <g style="fill:#262626;" transform="translate(153.207813 386.87813)scale(0.11 -0.11)">
       <use xlink:href="#DejaVuSans-48"/>
       <use x="63.623047" xlink:href="#DejaVuSans-46"/>
       <use x="95.410156" xlink:href="#DejaVuSans-54"/>
       <use x="159.033203" xlink:href="#DejaVuSans-48"/>
      </g>
     </g>
    </g>
    <g id="ytick_5">
     <g id="line2d_5">
      <g>
       <use style="fill:#262626;stroke:#262626;stroke-width:1.25;" x="187.2" xlink:href="#m707c839ab9" y="310.949115"/>
      </g>
     </g>
     <g id="text_8">
      <!-- 0.65 -->
      <g style="fill:#262626;" transform="translate(153.207813 315.128256)scale(0.11 -0.11)">
       <use xlink:href="#DejaVuSans-48"/>
       <use x="63.623047" xlink:href="#DejaVuSans-46"/>
       <use x="95.410156" xlink:href="#DejaVuSans-54"/>
       <use x="159.033203" xlink:href="#DejaVuSans-53"/>
      </g>
     </g>
    </g>
    <g id="ytick_6">
     <g id="line2d_6">
      <g>
       <use style="fill:#262626;stroke:#262626;stroke-width:1.25;" x="187.2" xlink:href="#m707c839ab9" y="239.199241"/>
      </g>
     </g>
     <g id="text_9">
      <!-- 0.70 -->
      <defs>
       <path d="M 8.203125 72.90625 
L 55.078125 72.90625 
L 55.078125 68.703125 
L 28.609375 0 
L 18.3125 0 
L 43.21875 64.59375 
L 8.203125 64.59375 
z
" id="DejaVuSans-55"/>
      </defs>
      <g style="fill:#262626;" transform="translate(153.207813 243.378381)scale(0.11 -0.11)">
       <use xlink:href="#DejaVuSans-48"/>
       <use x="63.623047" xlink:href="#DejaVuSans-46"/>
       <use x="95.410156" xlink:href="#DejaVuSans-55"/>
       <use x="159.033203" xlink:href="#DejaVuSans-48"/>
      </g>
     </g>
    </g>
    <g id="ytick_7">
     <g id="line2d_7">
      <g>
       <use style="fill:#262626;stroke:#262626;stroke-width:1.25;" x="187.2" xlink:href="#m707c839ab9" y="167.449366"/>
      </g>
     </g>
     <g id="text_10">
      <!-- 0.75 -->
      <g style="fill:#262626;" transform="translate(153.207813 171.628507)scale(0.11 -0.11)">
       <use xlink:href="#DejaVuSans-48"/>
       <use x="63.623047" xlink:href="#DejaVuSans-46"/>
       <use x="95.410156" xlink:href="#DejaVuSans-55"/>
       <use x="159.033203" xlink:href="#DejaVuSans-53"/>
      </g>
     </g>
    </g>
    <g id="ytick_8">
     <g id="line2d_8">
      <g>
       <use style="fill:#262626;stroke:#262626;stroke-width:1.25;" x="187.2" xlink:href="#m707c839ab9" y="95.699492"/>
      </g>
     </g>
     <g id="text_11">
      <!-- 0.80 -->
      <defs>
       <path d="M 31.78125 34.625 
Q 24.75 34.625 20.71875 30.859375 
Q 16.703125 27.09375 16.703125 20.515625 
Q 16.703125 13.921875 20.71875 10.15625 
Q 24.75 6.390625 31.78125 6.390625 
Q 38.8125 6.390625 42.859375 10.171875 
Q 46.921875 13.96875 46.921875 20.515625 
Q 46.921875 27.09375 42.890625 30.859375 
Q 38.875 34.625 31.78125 34.625 
z
M 21.921875 38.8125 
Q 15.578125 40.375 12.03125 44.71875 
Q 8.5 49.078125 8.5 55.328125 
Q 8.5 64.0625 14.71875 69.140625 
Q 20.953125 74.21875 31.78125 74.21875 
Q 42.671875 74.21875 48.875 69.140625 
Q 55.078125 64.0625 55.078125 55.328125 
Q 55.078125 49.078125 51.53125 44.71875 
Q 48 40.375 41.703125 38.8125 
Q 48.828125 37.15625 52.796875 32.3125 
Q 56.78125 27.484375 56.78125 20.515625 
Q 56.78125 9.90625 50.3125 4.234375 
Q 43.84375 -1.421875 31.78125 -1.421875 
Q 19.734375 -1.421875 13.25 4.234375 
Q 6.78125 9.90625 6.78125 20.515625 
Q 6.78125 27.484375 10.78125 32.3125 
Q 14.796875 37.15625 21.921875 38.8125 
z
M 18.3125 54.390625 
Q 18.3125 48.734375 21.84375 45.5625 
Q 25.390625 42.390625 31.78125 42.390625 
Q 38.140625 42.390625 41.71875 45.5625 
Q 45.3125 48.734375 45.3125 54.390625 
Q 45.3125 60.0625 41.71875 63.234375 
Q 38.140625 66.40625 31.78125 66.40625 
Q 25.390625 66.40625 21.84375 63.234375 
Q 18.3125 60.0625 18.3125 54.390625 
z
" id="DejaVuSans-56"/>
      </defs>
      <g style="fill:#262626;" transform="translate(153.207813 99.878633)scale(0.11 -0.11)">
       <use xlink:href="#DejaVuSans-48"/>
       <use x="63.623047" xlink:href="#DejaVuSans-46"/>
       <use x="95.410156" xlink:href="#DejaVuSans-56"/>
       <use x="159.033203" xlink:href="#DejaVuSans-48"/>
      </g>
     </g>
    </g>
    <g id="text_12">
     <!-- AUC -->
     <defs>
      <path d="M 34.1875 63.1875 
L 20.796875 26.90625 
L 47.609375 26.90625 
z
M 28.609375 72.90625 
L 39.796875 72.90625 
L 67.578125 0 
L 57.328125 0 
L 50.6875 18.703125 
L 17.828125 18.703125 
L 11.1875 0 
L 0.78125 0 
z
" id="DejaVuSans-65"/>
      <path d="M 8.6875 72.90625 
L 18.609375 72.90625 
L 18.609375 28.609375 
Q 18.609375 16.890625 22.84375 11.734375 
Q 27.09375 6.59375 36.625 6.59375 
Q 46.09375 6.59375 50.34375 11.734375 
Q 54.59375 16.890625 54.59375 28.609375 
L 54.59375 72.90625 
L 64.5 72.90625 
L 64.5 27.390625 
Q 64.5 13.140625 57.4375 5.859375 
Q 50.390625 -1.421875 36.625 -1.421875 
Q 22.796875 -1.421875 15.734375 5.859375 
Q 8.6875 13.140625 8.6875 27.390625 
z
" id="DejaVuSans-85"/>
      <path d="M 64.40625 67.28125 
L 64.40625 56.890625 
Q 59.421875 61.53125 53.78125 63.8125 
Q 48.140625 66.109375 41.796875 66.109375 
Q 29.296875 66.109375 22.65625 58.46875 
Q 16.015625 50.828125 16.015625 36.375 
Q 16.015625 21.96875 22.65625 14.328125 
Q 29.296875 6.6875 41.796875 6.6875 
Q 48.140625 6.6875 53.78125 8.984375 
Q 59.421875 11.28125 64.40625 15.921875 
L 64.40625 5.609375 
Q 59.234375 2.09375 53.4375 0.328125 
Q 47.65625 -1.421875 41.21875 -1.421875 
Q 24.65625 -1.421875 15.125 8.703125 
Q 5.609375 18.84375 5.609375 36.375 
Q 5.609375 53.953125 15.125 64.078125 
Q 24.65625 74.21875 41.21875 74.21875 
Q 47.75 74.21875 53.53125 72.484375 
Q 59.328125 70.75 64.40625 67.28125 
z
" id="DejaVuSans-67"/>
     </defs>
     <g style="fill:#262626;" transform="translate(146.712188 370.885312)rotate(-90)scale(0.12 -0.12)">
      <use xlink:href="#DejaVuSans-65"/>
      <use x="68.408203" xlink:href="#DejaVuSans-85"/>
      <use x="141.601562" xlink:href="#DejaVuSans-67"/>
     </g>
    </g>
   </g>
   <g id="PolyCollection_1">
    <defs>
     <path d="M 318.33829 -310.061326 
L 318.14171 -310.061326 
L 318.109601 -312.056966 
L 318.070417 -314.052605 
L 318.023744 -316.048245 
L 317.969479 -318.043885 
L 317.907873 -320.039524 
L 317.839534 -322.035164 
L 317.765376 -324.030804 
L 317.686492 -326.026443 
L 317.60398 -328.022083 
L 317.518709 -330.017722 
L 317.431069 -332.013362 
L 317.340731 -334.009002 
L 317.246461 -336.004641 
L 317.146015 -338.000281 
L 317.036155 -339.995921 
L 316.912789 -341.99156 
L 316.771238 -343.9872 
L 316.606589 -345.98284 
L 316.414123 -347.978479 
L 316.189732 -349.974119 
L 315.930294 -351.969759 
L 315.633948 -353.965398 
L 315.300223 -355.961038 
L 314.930028 -357.956678 
L 314.525471 -359.952317 
L 314.089571 -361.947957 
L 313.625876 -363.943597 
L 313.138063 -365.939236 
L 312.629575 -367.934876 
L 312.103348 -369.930515 
L 311.561676 -371.926155 
L 311.006221 -373.921795 
L 310.438187 -375.917434 
L 309.858597 -377.913074 
L 309.268664 -379.908714 
L 308.670161 -381.904353 
L 308.065761 -383.899993 
L 307.459287 -385.895633 
L 306.855851 -387.891272 
L 306.26186 -389.886912 
L 305.684912 -391.882552 
L 305.133597 -393.878191 
L 304.617223 -395.873831 
L 304.145492 -397.869471 
L 303.728127 -399.86511 
L 303.374462 -401.86075 
L 303.092994 -403.85639 
L 302.890892 -405.852029 
L 302.77349 -407.847669 
L 302.7438 -409.843308 
L 302.802094 -411.838948 
L 302.945623 -413.834588 
L 303.168545 -415.830227 
L 303.462105 -417.825867 
L 303.815103 -419.821507 
L 304.214616 -421.817146 
L 304.646942 -423.812786 
L 305.098641 -425.808426 
L 305.557573 -427.804065 
L 306.013792 -429.799705 
L 306.46019 -431.795345 
L 306.8928 -433.790984 
L 307.310728 -435.786624 
L 307.715741 -437.782264 
L 308.111565 -439.777903 
L 308.503015 -441.773543 
L 308.895088 -443.769182 
L 309.292123 -445.764822 
L 309.697171 -447.760462 
L 310.111612 -449.756101 
L 310.535061 -451.751741 
L 310.965537 -453.747381 
L 311.399841 -455.74302 
L 311.83405 -457.73866 
L 312.264052 -459.7343 
L 312.686024 -461.729939 
L 313.096797 -463.725579 
L 313.494068 -465.721219 
L 313.876449 -467.716858 
L 314.243373 -469.712498 
L 314.594887 -471.708138 
L 314.931397 -473.703777 
L 315.253392 -475.699417 
L 315.561208 -477.695057 
L 315.854862 -479.690696 
L 316.133973 -481.686336 
L 316.397767 -483.681975 
L 316.645169 -485.677615 
L 316.874949 -487.673255 
L 317.085894 -489.668894 
L 317.276991 -491.664534 
L 317.447574 -493.660174 
L 317.597434 -495.655813 
L 317.726875 -497.651453 
L 317.836708 -499.647093 
L 317.928198 -501.642732 
L 318.002974 -503.638372 
L 318.062912 -505.634012 
L 318.110015 -507.629651 
L 318.369985 -507.629651 
L 318.369985 -507.629651 
L 318.417088 -505.634012 
L 318.477026 -503.638372 
L 318.551802 -501.642732 
L 318.643292 -499.647093 
L 318.753125 -497.651453 
L 318.882566 -495.655813 
L 319.032426 -493.660174 
L 319.203009 -491.664534 
L 319.394106 -489.668894 
L 319.605051 -487.673255 
L 319.834831 -485.677615 
L 320.082233 -483.681975 
L 320.346027 -481.686336 
L 320.625138 -479.690696 
L 320.918792 -477.695057 
L 321.226608 -475.699417 
L 321.548603 -473.703777 
L 321.885113 -471.708138 
L 322.236627 -469.712498 
L 322.603551 -467.716858 
L 322.985932 -465.721219 
L 323.383203 -463.725579 
L 323.793976 -461.729939 
L 324.215948 -459.7343 
L 324.64595 -457.73866 
L 325.080159 -455.74302 
L 325.514463 -453.747381 
L 325.944939 -451.751741 
L 326.368388 -449.756101 
L 326.782829 -447.760462 
L 327.187877 -445.764822 
L 327.584912 -443.769182 
L 327.976985 -441.773543 
L 328.368435 -439.777903 
L 328.764259 -437.782264 
L 329.169272 -435.786624 
L 329.5872 -433.790984 
L 330.01981 -431.795345 
L 330.466208 -429.799705 
L 330.922427 -427.804065 
L 331.381359 -425.808426 
L 331.833058 -423.812786 
L 332.265384 -421.817146 
L 332.664897 -419.821507 
L 333.017895 -417.825867 
L 333.311455 -415.830227 
L 333.534377 -413.834588 
L 333.677906 -411.838948 
L 333.7362 -409.843308 
L 333.70651 -407.847669 
L 333.589108 -405.852029 
L 333.387006 -403.85639 
L 333.105538 -401.86075 
L 332.751873 -399.86511 
L 332.334508 -397.869471 
L 331.862777 -395.873831 
L 331.346403 -393.878191 
L 330.795088 -391.882552 
L 330.21814 -389.886912 
L 329.624149 -387.891272 
L 329.020713 -385.895633 
L 328.414239 -383.899993 
L 327.809839 -381.904353 
L 327.211336 -379.908714 
L 326.621403 -377.913074 
L 326.041813 -375.917434 
L 325.473779 -373.921795 
L 324.918324 -371.926155 
L 324.376652 -369.930515 
L 323.850425 -367.934876 
L 323.341937 -365.939236 
L 322.854124 -363.943597 
L 322.390429 -361.947957 
L 321.954529 -359.952317 
L 321.549972 -357.956678 
L 321.179777 -355.961038 
L 320.846052 -353.965398 
L 320.549706 -351.969759 
L 320.290268 -349.974119 
L 320.065877 -347.978479 
L 319.873411 -345.98284 
L 319.708762 -343.9872 
L 319.567211 -341.99156 
L 319.443845 -339.995921 
L 319.333985 -338.000281 
L 319.233539 -336.004641 
L 319.139269 -334.009002 
L 319.048931 -332.013362 
L 318.961291 -330.017722 
L 318.87602 -328.022083 
L 318.793508 -326.026443 
L 318.714624 -324.030804 
L 318.640466 -322.035164 
L 318.572127 -320.039524 
L 318.510521 -318.043885 
L 318.456256 -316.048245 
L 318.409583 -314.052605 
L 318.370399 -312.056966 
L 318.33829 -310.061326 
z
" id="ma82234795a" style="stroke:#303030;stroke-width:1.5;"/>
    </defs>
    <g clip-path="url(#pf34c5e6cfd)">
     <use style="fill:#176d9c;stroke:#303030;stroke-width:1.5;" x="0" xlink:href="#ma82234795a" y="720"/>
    </g>
   </g>
   <g id="PolyCollection_2">
    <defs>
     <path d="M 351.184921 -386.965622 
L 350.815079 -386.965622 
L 350.751388 -389.130385 
L 350.672196 -391.295149 
L 350.576056 -393.459912 
L 350.462148 -395.624676 
L 350.330517 -397.789439 
L 350.182267 -399.954203 
L 350.019692 -402.118966 
L 349.846309 -404.28373 
L 349.666768 -406.448494 
L 349.486633 -408.613257 
L 349.312038 -410.778021 
L 349.149235 -412.942784 
L 349.004084 -415.107548 
L 348.881527 -417.272311 
L 348.785096 -419.437075 
L 348.716502 -421.601838 
L 348.67535 -423.766602 
L 348.658996 -425.931366 
L 348.662548 -428.096129 
L 348.67902 -430.260893 
L 348.699611 -432.425656 
L 348.714089 -434.59042 
L 348.711268 -436.755183 
L 348.679545 -438.919947 
L 348.607492 -441.084711 
L 348.484467 -443.249474 
L 348.301225 -445.414238 
L 348.050493 -447.579001 
L 347.727469 -449.743765 
L 347.330202 -451.908528 
L 346.859811 -454.073292 
L 346.320513 -456.238055 
L 345.719453 -458.402819 
L 345.066341 -460.567583 
L 344.372933 -462.732346 
L 343.652415 -464.89711 
L 342.918737 -467.061873 
L 342.185975 -469.226637 
L 341.467756 -471.3914 
L 340.776783 -473.556164 
L 340.124457 -475.720927 
L 339.520598 -477.885691 
L 338.973212 -480.050455 
L 338.488314 -482.215218 
L 338.069775 -484.379982 
L 337.719194 -486.544745 
L 337.435856 -488.709509 
L 337.21678 -490.874272 
L 337.056943 -493.039036 
L 336.94969 -495.203799 
L 336.887352 -497.368563 
L 336.862037 -499.533327 
L 336.866529 -501.69809 
L 336.89518 -503.862854 
L 336.944677 -506.027617 
L 337.01456 -508.192381 
L 337.107384 -510.357144 
L 337.228486 -512.521908 
L 337.385354 -514.686671 
L 337.586664 -516.851435 
L 337.841114 -519.016199 
L 338.156193 -521.180962 
L 338.537062 -523.345726 
L 338.985679 -525.510489 
L 339.500293 -527.675253 
L 340.075351 -529.840016 
L 340.701816 -532.00478 
L 341.367845 -534.169544 
L 342.059718 -536.334307 
L 342.762892 -538.499071 
L 343.46306 -540.663834 
L 344.147085 -542.828598 
L 344.803732 -544.993361 
L 345.424146 -547.158125 
L 346.002068 -549.322888 
L 346.533804 -551.487652 
L 347.018003 -553.652416 
L 347.455298 -555.817179 
L 347.847873 -557.981943 
L 348.199013 -560.146706 
L 348.51267 -562.31147 
L 348.793083 -564.476233 
L 349.04446 -566.640997 
L 349.270737 -568.80576 
L 349.475398 -570.970524 
L 349.661367 -573.135288 
L 349.830967 -575.300051 
L 349.985927 -577.464815 
L 350.127444 -579.629578 
L 350.256276 -581.794342 
L 350.372868 -583.959105 
L 350.477476 -586.123869 
L 350.570301 -588.288632 
L 350.65159 -590.453396 
L 350.721714 -592.61816 
L 350.781215 -594.782923 
L 350.830815 -596.947687 
L 350.871393 -599.11245 
L 350.903951 -601.277214 
L 351.096049 -601.277214 
L 351.096049 -601.277214 
L 351.128607 -599.11245 
L 351.169185 -596.947687 
L 351.218785 -594.782923 
L 351.278286 -592.61816 
L 351.34841 -590.453396 
L 351.429699 -588.288632 
L 351.522524 -586.123869 
L 351.627132 -583.959105 
L 351.743724 -581.794342 
L 351.872556 -579.629578 
L 352.014073 -577.464815 
L 352.169033 -575.300051 
L 352.338633 -573.135288 
L 352.524602 -570.970524 
L 352.729263 -568.80576 
L 352.95554 -566.640997 
L 353.206917 -564.476233 
L 353.48733 -562.31147 
L 353.800987 -560.146706 
L 354.152127 -557.981943 
L 354.544702 -555.817179 
L 354.981997 -553.652416 
L 355.466196 -551.487652 
L 355.997932 -549.322888 
L 356.575854 -547.158125 
L 357.196268 -544.993361 
L 357.852915 -542.828598 
L 358.53694 -540.663834 
L 359.237108 -538.499071 
L 359.940282 -536.334307 
L 360.632155 -534.169544 
L 361.298184 -532.00478 
L 361.924649 -529.840016 
L 362.499707 -527.675253 
L 363.014321 -525.510489 
L 363.462938 -523.345726 
L 363.843807 -521.180962 
L 364.158886 -519.016199 
L 364.413336 -516.851435 
L 364.614646 -514.686671 
L 364.771514 -512.521908 
L 364.892616 -510.357144 
L 364.98544 -508.192381 
L 365.055323 -506.027617 
L 365.10482 -503.862854 
L 365.133471 -501.69809 
L 365.137963 -499.533327 
L 365.112648 -497.368563 
L 365.05031 -495.203799 
L 364.943057 -493.039036 
L 364.78322 -490.874272 
L 364.564144 -488.709509 
L 364.280806 -486.544745 
L 363.930225 -484.379982 
L 363.511686 -482.215218 
L 363.026788 -480.050455 
L 362.479402 -477.885691 
L 361.875543 -475.720927 
L 361.223217 -473.556164 
L 360.532244 -471.3914 
L 359.814025 -469.226637 
L 359.081263 -467.061873 
L 358.347585 -464.89711 
L 357.627067 -462.732346 
L 356.933659 -460.567583 
L 356.280547 -458.402819 
L 355.679487 -456.238055 
L 355.140189 -454.073292 
L 354.669798 -451.908528 
L 354.272531 -449.743765 
L 353.949507 -447.579001 
L 353.698775 -445.414238 
L 353.515533 -443.249474 
L 353.392508 -441.084711 
L 353.320455 -438.919947 
L 353.288732 -436.755183 
L 353.285911 -434.59042 
L 353.300389 -432.425656 
L 353.32098 -430.260893 
L 353.337452 -428.096129 
L 353.341004 -425.931366 
L 353.32465 -423.766602 
L 353.283498 -421.601838 
L 353.214904 -419.437075 
L 353.118473 -417.272311 
L 352.995916 -415.107548 
L 352.850765 -412.942784 
L 352.687962 -410.778021 
L 352.513367 -408.613257 
L 352.333232 -406.448494 
L 352.153691 -404.28373 
L 351.980308 -402.118966 
L 351.817733 -399.954203 
L 351.669483 -397.789439 
L 351.537852 -395.624676 
L 351.423944 -393.459912 
L 351.327804 -391.295149 
L 351.248612 -389.130385 
L 351.184921 -386.965622 
z
" id="mb88e3a008c" style="stroke:#303030;stroke-width:1.5;"/>
    </defs>
    <g clip-path="url(#pf34c5e6cfd)">
     <use style="fill:#c38820;stroke:#303030;stroke-width:1.5;" x="0" xlink:href="#mb88e3a008c" y="720"/>
    </g>
   </g>
   <g id="PolyCollection_3">
    <defs>
     <path d="M 383.866156 -134.138374 
L 383.653844 -134.138374 
L 383.618588 -136.011905 
L 383.575371 -137.885437 
L 383.523644 -139.758969 
L 383.463159 -141.632501 
L 383.393998 -143.506033 
L 383.316556 -145.379564 
L 383.231439 -147.253096 
L 383.139299 -149.126628 
L 383.040592 -151.00016 
L 382.935287 -152.873692 
L 382.822567 -154.747223 
L 382.700562 -156.620755 
L 382.566163 -158.494287 
L 382.414961 -160.367819 
L 382.241355 -162.241351 
L 382.038825 -164.114882 
L 381.800375 -165.988414 
L 381.519101 -167.861946 
L 381.188852 -169.735478 
L 380.804907 -171.60901 
L 380.364611 -173.482541 
L 379.867916 -175.356073 
L 379.317772 -177.229605 
L 378.720327 -179.103137 
L 378.084915 -180.976669 
L 377.423794 -182.8502 
L 376.751648 -184.723732 
L 376.084829 -186.597264 
L 375.440379 -188.470796 
L 374.834861 -190.344328 
L 374.283088 -192.217859 
L 373.796843 -194.091391 
L 373.383727 -195.964923 
L 373.046279 -197.838455 
L 372.781486 -199.711987 
L 372.580806 -201.585518 
L 372.430728 -203.45905 
L 372.31386 -205.332582 
L 372.210467 -207.206114 
L 372.100282 -209.079646 
L 371.964419 -210.953177 
L 371.787163 -212.826709 
L 371.557451 -214.700241 
L 371.269875 -216.573773 
L 370.925128 -218.447305 
L 370.529856 -220.320836 
L 370.095966 -222.194368 
L 369.639507 -224.0679 
L 369.179274 -225.941432 
L 368.735298 -227.814964 
L 368.327412 -229.688495 
L 367.974007 -231.562027 
L 367.691103 -233.435559 
L 367.491761 -235.309091 
L 367.385834 -237.182623 
L 367.38 -239.056154 
L 367.47799 -240.929686 
L 367.680903 -242.803218 
L 367.987525 -244.67675 
L 368.394573 -246.550282 
L 368.896846 -248.423813 
L 369.487266 -250.297345 
L 370.156871 -252.170877 
L 370.89481 -254.044409 
L 371.688405 -255.917941 
L 372.523345 -257.791472 
L 373.384044 -259.665004 
L 374.25416 -261.538536 
L 375.117257 -263.412068 
L 375.957558 -265.2856 
L 376.760699 -267.159131 
L 377.514436 -269.032663 
L 378.209211 -270.906195 
L 378.838534 -272.779727 
L 379.399142 -274.653259 
L 379.890934 -276.52679 
L 380.316684 -278.400322 
L 380.681576 -280.273854 
L 380.992609 -282.147386 
L 381.257922 -284.020918 
L 381.486107 -285.894449 
L 381.685567 -287.767981 
L 381.863967 -289.641513 
L 382.027805 -291.515045 
L 382.182144 -293.388577 
L 382.330501 -295.262109 
L 382.47488 -297.13564 
L 382.615941 -299.009172 
L 382.75326 -300.882704 
L 382.885648 -302.756236 
L 383.011491 -304.629768 
L 383.129065 -306.503299 
L 383.236805 -308.376831 
L 383.333506 -310.250363 
L 383.418442 -312.123895 
L 383.491407 -313.997427 
L 383.552693 -315.870958 
L 383.603013 -317.74449 
L 383.643398 -319.618022 
L 383.876602 -319.618022 
L 383.876602 -319.618022 
L 383.916987 -317.74449 
L 383.967307 -315.870958 
L 384.028593 -313.997427 
L 384.101558 -312.123895 
L 384.186494 -310.250363 
L 384.283195 -308.376831 
L 384.390935 -306.503299 
L 384.508509 -304.629768 
L 384.634352 -302.756236 
L 384.76674 -300.882704 
L 384.904059 -299.009172 
L 385.04512 -297.13564 
L 385.189499 -295.262109 
L 385.337856 -293.388577 
L 385.492195 -291.515045 
L 385.656033 -289.641513 
L 385.834433 -287.767981 
L 386.033893 -285.894449 
L 386.262078 -284.020918 
L 386.527391 -282.147386 
L 386.838424 -280.273854 
L 387.203316 -278.400322 
L 387.629066 -276.52679 
L 388.120858 -274.653259 
L 388.681466 -272.779727 
L 389.310789 -270.906195 
L 390.005564 -269.032663 
L 390.759301 -267.159131 
L 391.562442 -265.2856 
L 392.402743 -263.412068 
L 393.26584 -261.538536 
L 394.135956 -259.665004 
L 394.996655 -257.791472 
L 395.831595 -255.917941 
L 396.62519 -254.044409 
L 397.363129 -252.170877 
L 398.032734 -250.297345 
L 398.623154 -248.423813 
L 399.125427 -246.550282 
L 399.532475 -244.67675 
L 399.839097 -242.803218 
L 400.04201 -240.929686 
L 400.14 -239.056154 
L 400.134166 -237.182623 
L 400.028239 -235.309091 
L 399.828897 -233.435559 
L 399.545993 -231.562027 
L 399.192588 -229.688495 
L 398.784702 -227.814964 
L 398.340726 -225.941432 
L 397.880493 -224.0679 
L 397.424034 -222.194368 
L 396.990144 -220.320836 
L 396.594872 -218.447305 
L 396.250125 -216.573773 
L 395.962549 -214.700241 
L 395.732837 -212.826709 
L 395.555581 -210.953177 
L 395.419718 -209.079646 
L 395.309533 -207.206114 
L 395.20614 -205.332582 
L 395.089272 -203.45905 
L 394.939194 -201.585518 
L 394.738514 -199.711987 
L 394.473721 -197.838455 
L 394.136273 -195.964923 
L 393.723157 -194.091391 
L 393.236912 -192.217859 
L 392.685139 -190.344328 
L 392.079621 -188.470796 
L 391.435171 -186.597264 
L 390.768352 -184.723732 
L 390.096206 -182.8502 
L 389.435085 -180.976669 
L 388.799673 -179.103137 
L 388.202228 -177.229605 
L 387.652084 -175.356073 
L 387.155389 -173.482541 
L 386.715093 -171.60901 
L 386.331148 -169.735478 
L 386.000899 -167.861946 
L 385.719625 -165.988414 
L 385.481175 -164.114882 
L 385.278645 -162.241351 
L 385.105039 -160.367819 
L 384.953837 -158.494287 
L 384.819438 -156.620755 
L 384.697433 -154.747223 
L 384.584713 -152.873692 
L 384.479408 -151.00016 
L 384.380701 -149.126628 
L 384.288561 -147.253096 
L 384.203444 -145.379564 
L 384.126002 -143.506033 
L 384.056841 -141.632501 
L 383.996356 -139.758969 
L 383.944629 -137.885437 
L 383.901412 -136.011905 
L 383.866156 -134.138374 
z
" id="m9459993a6c" style="stroke:#303030;stroke-width:1.5;"/>
    </defs>
    <g clip-path="url(#pf34c5e6cfd)">
     <use style="fill:#158b6a;stroke:#303030;stroke-width:1.5;" x="0" xlink:href="#m9459993a6c" y="720"/>
    </g>
   </g>
   <g id="PolyCollection_4">
    <defs>
     <path d="M 645.972332 -394.249457 
L 645.707668 -394.249457 
L 645.661273 -396.417553 
L 645.602372 -398.585648 
L 645.528841 -400.753744 
L 645.438525 -402.921839 
L 645.329318 -405.089935 
L 645.199242 -407.25803 
L 645.046526 -409.426126 
L 644.869686 -411.594221 
L 644.667594 -413.762317 
L 644.439536 -415.930412 
L 644.185269 -418.098508 
L 643.905065 -420.266603 
L 643.59974 -422.434699 
L 643.270663 -424.602794 
L 642.91974 -426.77089 
L 642.549352 -428.938985 
L 642.162243 -431.10708 
L 641.761345 -433.275176 
L 641.349546 -435.443271 
L 640.929409 -437.611367 
L 640.502866 -439.779462 
L 640.070932 -441.947558 
L 639.633479 -444.115653 
L 639.189124 -446.283749 
L 638.735269 -448.451844 
L 638.26833 -450.61994 
L 637.784142 -452.788035 
L 637.278537 -454.956131 
L 636.748021 -457.124226 
L 636.190502 -459.292322 
L 635.60596 -461.460417 
L 634.99698 -463.628513 
L 634.369068 -465.796608 
L 633.730681 -467.964703 
L 633.092961 -470.132799 
L 632.469154 -472.300894 
L 631.873774 -474.46899 
L 631.321571 -476.637085 
L 630.826414 -478.805181 
L 630.400189 -480.973276 
L 630.051847 -483.141372 
L 629.786699 -485.309467 
L 629.60605 -487.477563 
L 629.507212 -489.645658 
L 629.483909 -491.813754 
L 629.527028 -493.981849 
L 629.625631 -496.149945 
L 629.768106 -498.31804 
L 629.943336 -500.486136 
L 630.141745 -502.654231 
L 630.356125 -504.822326 
L 630.582161 -506.990422 
L 630.818628 -509.158517 
L 631.067264 -511.326613 
L 631.332357 -513.494708 
L 631.620108 -515.662804 
L 631.93784 -517.830899 
L 632.293117 -519.998995 
L 632.69285 -522.16709 
L 633.142441 -524.335186 
L 633.645033 -526.503281 
L 634.200908 -528.671377 
L 634.807097 -530.839472 
L 635.457247 -533.007568 
L 636.141766 -535.175663 
L 636.848279 -537.343759 
L 637.562361 -539.511854 
L 638.268499 -541.679949 
L 638.951209 -543.848045 
L 639.596192 -546.01614 
L 640.19141 -548.184236 
L 640.727965 -550.352331 
L 641.200687 -552.520427 
L 641.60837 -554.688522 
L 641.953628 -556.856618 
L 642.242415 -559.024713 
L 642.483255 -561.192809 
L 642.686298 -563.360904 
L 642.862305 -565.529 
L 643.02167 -567.697095 
L 643.173589 -569.865191 
L 643.325435 -572.033286 
L 643.482389 -574.201382 
L 643.647325 -576.369477 
L 643.820933 -578.537573 
L 644.002025 -580.705668 
L 644.187977 -582.873763 
L 644.37523 -585.041859 
L 644.559792 -587.209954 
L 644.7377 -589.37805 
L 644.905388 -591.546145 
L 645.05996 -593.714241 
L 645.19934 -595.882336 
L 645.322329 -598.050432 
L 645.428566 -600.218527 
L 645.518426 -602.386623 
L 645.592875 -604.554718 
L 645.653304 -606.722814 
L 645.701368 -608.890909 
L 645.978632 -608.890909 
L 645.978632 -608.890909 
L 646.026696 -606.722814 
L 646.087125 -604.554718 
L 646.161574 -602.386623 
L 646.251434 -600.218527 
L 646.357671 -598.050432 
L 646.48066 -595.882336 
L 646.62004 -593.714241 
L 646.774612 -591.546145 
L 646.9423 -589.37805 
L 647.120208 -587.209954 
L 647.30477 -585.041859 
L 647.492023 -582.873763 
L 647.677975 -580.705668 
L 647.859067 -578.537573 
L 648.032675 -576.369477 
L 648.197611 -574.201382 
L 648.354565 -572.033286 
L 648.506411 -569.865191 
L 648.65833 -567.697095 
L 648.817695 -565.529 
L 648.993702 -563.360904 
L 649.196745 -561.192809 
L 649.437585 -559.024713 
L 649.726372 -556.856618 
L 650.07163 -554.688522 
L 650.479313 -552.520427 
L 650.952035 -550.352331 
L 651.48859 -548.184236 
L 652.083808 -546.01614 
L 652.728791 -543.848045 
L 653.411501 -541.679949 
L 654.117639 -539.511854 
L 654.831721 -537.343759 
L 655.538234 -535.175663 
L 656.222753 -533.007568 
L 656.872903 -530.839472 
L 657.479092 -528.671377 
L 658.034967 -526.503281 
L 658.537559 -524.335186 
L 658.98715 -522.16709 
L 659.386883 -519.998995 
L 659.74216 -517.830899 
L 660.059892 -515.662804 
L 660.347643 -513.494708 
L 660.612736 -511.326613 
L 660.861372 -509.158517 
L 661.097839 -506.990422 
L 661.323875 -504.822326 
L 661.538255 -502.654231 
L 661.736664 -500.486136 
L 661.911894 -498.31804 
L 662.054369 -496.149945 
L 662.152972 -493.981849 
L 662.196091 -491.813754 
L 662.172788 -489.645658 
L 662.07395 -487.477563 
L 661.893301 -485.309467 
L 661.628153 -483.141372 
L 661.279811 -480.973276 
L 660.853586 -478.805181 
L 660.358429 -476.637085 
L 659.806226 -474.46899 
L 659.210846 -472.300894 
L 658.587039 -470.132799 
L 657.949319 -467.964703 
L 657.310932 -465.796608 
L 656.68302 -463.628513 
L 656.07404 -461.460417 
L 655.489498 -459.292322 
L 654.931979 -457.124226 
L 654.401463 -454.956131 
L 653.895858 -452.788035 
L 653.41167 -450.61994 
L 652.944731 -448.451844 
L 652.490876 -446.283749 
L 652.046521 -444.115653 
L 651.609068 -441.947558 
L 651.177134 -439.779462 
L 650.750591 -437.611367 
L 650.330454 -435.443271 
L 649.918655 -433.275176 
L 649.517757 -431.10708 
L 649.130648 -428.938985 
L 648.76026 -426.77089 
L 648.409337 -424.602794 
L 648.08026 -422.434699 
L 647.774935 -420.266603 
L 647.494731 -418.098508 
L 647.240464 -415.930412 
L 647.012406 -413.762317 
L 646.810314 -411.594221 
L 646.633474 -409.426126 
L 646.480758 -407.25803 
L 646.350682 -405.089935 
L 646.241475 -402.921839 
L 646.151159 -400.753744 
L 646.077628 -398.585648 
L 646.018727 -396.417553 
L 645.972332 -394.249457 
z
" id="mdf49107e32" style="stroke:#303030;stroke-width:1.5;"/>
    </defs>
    <g clip-path="url(#pf34c5e6cfd)">
     <use style="fill:#176d9c;stroke:#303030;stroke-width:1.5;" x="0" xlink:href="#mdf49107e32" y="720"/>
    </g>
   </g>
   <g id="PolyCollection_5">
    <defs>
     <path d="M 678.733894 -394.867283 
L 678.466106 -394.867283 
L 678.419115 -397.026173 
L 678.359405 -399.185063 
L 678.284782 -401.343952 
L 678.193013 -403.502842 
L 678.081899 -405.661732 
L 677.949364 -407.820622 
L 677.793539 -409.979511 
L 677.612853 -412.138401 
L 677.40611 -414.297291 
L 677.172572 -416.45618 
L 676.912022 -418.61507 
L 676.624823 -420.77396 
L 676.311957 -422.93285 
L 675.975036 -425.091739 
L 675.616275 -427.250629 
L 675.238409 -429.409519 
L 674.844553 -431.568409 
L 674.437987 -433.727298 
L 674.021871 -435.886188 
L 673.598923 -438.045078 
L 673.171072 -440.203967 
L 672.739146 -442.362857 
L 672.302642 -444.521747 
L 671.859634 -446.680637 
L 671.406864 -448.839526 
L 670.94004 -450.998416 
L 670.454333 -453.157306 
L 669.945049 -455.316196 
L 669.408406 -457.475085 
L 668.842328 -459.633975 
L 668.24716 -461.792865 
L 667.626203 -463.951754 
L 666.98598 -466.110644 
L 666.336188 -468.269534 
L 665.689295 -470.428424 
L 665.059821 -472.587313 
L 664.463343 -474.746203 
L 663.91533 -476.905093 
L 663.429926 -479.063983 
L 663.018795 -481.222872 
L 662.690182 -483.381762 
L 662.448278 -485.540652 
L 662.292966 -487.699541 
L 662.22 -489.858431 
L 662.221577 -492.017321 
L 662.287244 -494.176211 
L 662.40504 -496.3351 
L 662.562732 -498.49399 
L 662.749004 -500.65288 
L 662.954481 -502.81177 
L 663.172475 -504.970659 
L 663.399404 -507.129549 
L 663.63487 -509.288439 
L 663.881411 -511.447328 
L 664.143997 -513.606218 
L 664.42932 -515.765108 
L 664.744979 -517.923998 
L 665.098602 -520.082887 
L 665.496992 -522.241777 
L 665.945328 -524.400667 
L 666.446478 -526.559557 
L 667.000471 -528.718446 
L 667.60415 -530.877336 
L 668.251076 -533.036226 
L 668.931689 -535.195115 
L 669.633746 -537.354005 
L 670.343027 -539.512895 
L 671.044266 -541.671785 
L 671.722218 -543.830674 
L 672.362785 -545.989564 
L 672.954063 -548.148454 
L 673.48721 -550.307344 
L 673.957042 -552.466233 
L 674.362277 -554.625123 
L 674.705425 -556.784013 
L 674.992324 -558.942902 
L 675.231404 -561.101792 
L 675.432759 -563.260682 
L 675.607133 -565.419572 
L 675.764953 -567.578461 
L 675.91548 -569.737351 
L 676.066172 -571.896241 
L 676.222298 -574.055131 
L 676.386804 -576.21402 
L 676.560423 -578.37291 
L 676.741979 -580.5318 
L 676.928819 -582.690689 
L 677.117326 -584.849579 
L 677.303427 -587.008469 
L 677.483063 -589.167359 
L 677.652572 -591.326248 
L 677.808967 -593.485138 
L 677.950097 -595.644028 
L 678.074707 -597.802918 
L 678.182396 -599.961807 
L 678.273521 -602.120697 
L 678.349041 -604.279587 
L 678.410357 -606.438476 
L 678.459139 -608.597366 
L 678.740861 -608.597366 
L 678.740861 -608.597366 
L 678.789643 -606.438476 
L 678.850959 -604.279587 
L 678.926479 -602.120697 
L 679.017604 -599.961807 
L 679.125293 -597.802918 
L 679.249903 -595.644028 
L 679.391033 -593.485138 
L 679.547428 -591.326248 
L 679.716937 -589.167359 
L 679.896573 -587.008469 
L 680.082674 -584.849579 
L 680.271181 -582.690689 
L 680.458021 -580.5318 
L 680.639577 -578.37291 
L 680.813196 -576.21402 
L 680.977702 -574.055131 
L 681.133828 -571.896241 
L 681.28452 -569.737351 
L 681.435047 -567.578461 
L 681.592867 -565.419572 
L 681.767241 -563.260682 
L 681.968596 -561.101792 
L 682.207676 -558.942902 
L 682.494575 -556.784013 
L 682.837723 -554.625123 
L 683.242958 -552.466233 
L 683.71279 -550.307344 
L 684.245937 -548.148454 
L 684.837215 -545.989564 
L 685.477782 -543.830674 
L 686.155734 -541.671785 
L 686.856973 -539.512895 
L 687.566254 -537.354005 
L 688.268311 -535.195115 
L 688.948924 -533.036226 
L 689.59585 -530.877336 
L 690.199529 -528.718446 
L 690.753522 -526.559557 
L 691.254672 -524.400667 
L 691.703008 -522.241777 
L 692.101398 -520.082887 
L 692.455021 -517.923998 
L 692.77068 -515.765108 
L 693.056003 -513.606218 
L 693.318589 -511.447328 
L 693.56513 -509.288439 
L 693.800596 -507.129549 
L 694.027525 -504.970659 
L 694.245519 -502.81177 
L 694.450996 -500.65288 
L 694.637268 -498.49399 
L 694.79496 -496.3351 
L 694.912756 -494.176211 
L 694.978423 -492.017321 
L 694.98 -489.858431 
L 694.907034 -487.699541 
L 694.751722 -485.540652 
L 694.509818 -483.381762 
L 694.181205 -481.222872 
L 693.770074 -479.063983 
L 693.28467 -476.905093 
L 692.736657 -474.746203 
L 692.140179 -472.587313 
L 691.510705 -470.428424 
L 690.863812 -468.269534 
L 690.21402 -466.110644 
L 689.573797 -463.951754 
L 688.95284 -461.792865 
L 688.357672 -459.633975 
L 687.791594 -457.475085 
L 687.254951 -455.316196 
L 686.745667 -453.157306 
L 686.25996 -450.998416 
L 685.793136 -448.839526 
L 685.340366 -446.680637 
L 684.897358 -444.521747 
L 684.460854 -442.362857 
L 684.028928 -440.203967 
L 683.601077 -438.045078 
L 683.178129 -435.886188 
L 682.762013 -433.727298 
L 682.355447 -431.568409 
L 681.961591 -429.409519 
L 681.583725 -427.250629 
L 681.224964 -425.091739 
L 680.888043 -422.93285 
L 680.575177 -420.77396 
L 680.287978 -418.61507 
L 680.027428 -416.45618 
L 679.79389 -414.297291 
L 679.587147 -412.138401 
L 679.406461 -409.979511 
L 679.250636 -407.820622 
L 679.118101 -405.661732 
L 679.006987 -403.502842 
L 678.915218 -401.343952 
L 678.840595 -399.185063 
L 678.780885 -397.026173 
L 678.733894 -394.867283 
z
" id="mfd366c5eed" style="stroke:#303030;stroke-width:1.5;"/>
    </defs>
    <g clip-path="url(#pf34c5e6cfd)">
     <use style="fill:#c38820;stroke:#303030;stroke-width:1.5;" x="0" xlink:href="#mfd366c5eed" y="720"/>
    </g>
   </g>
   <g id="PolyCollection_6">
    <defs>
     <path d="M 711.476761 -114.709091 
L 711.243239 -114.709091 
L 711.200013 -117.098738 
L 711.144754 -119.488386 
L 711.075429 -121.878033 
L 710.989973 -124.26768 
L 710.886332 -126.657328 
L 710.762484 -129.046975 
L 710.616454 -131.436622 
L 710.446318 -133.82627 
L 710.250221 -136.215917 
L 710.026416 -138.605564 
L 709.773353 -140.995212 
L 709.489811 -143.384859 
L 709.17508 -145.774506 
L 708.829155 -148.164154 
L 708.452914 -150.553801 
L 708.048215 -152.943448 
L 707.617868 -155.333096 
L 707.165445 -157.722743 
L 706.69491 -160.11239 
L 706.210101 -162.502038 
L 705.714121 -164.891685 
L 705.208746 -167.281332 
L 704.693954 -169.67098 
L 704.167702 -172.060627 
L 703.626062 -174.450274 
L 703.063745 -176.839921 
L 702.475045 -179.229569 
L 701.855107 -181.619216 
L 701.201374 -184.008863 
L 700.515016 -186.398511 
L 699.802074 -188.788158 
L 699.074093 -191.177805 
L 698.348025 -193.567453 
L 697.645298 -195.9571 
L 696.990074 -198.346747 
L 696.406855 -200.736395 
L 695.917744 -203.126042 
L 695.539756 -205.515689 
L 695.282602 -207.905337 
L 695.147346 -210.294984 
L 695.126175 -212.684631 
L 695.203385 -215.074279 
L 695.357455 -217.463926 
L 695.563917 -219.853573 
L 695.798603 -222.243221 
L 696.040758 -224.632868 
L 696.275592 -227.022515 
L 696.495893 -229.412163 
L 696.702507 -231.80181 
L 696.903671 -234.191457 
L 697.113326 -236.581105 
L 697.348725 -238.970752 
L 697.627677 -241.360399 
L 697.96585 -243.750047 
L 698.374484 -246.139694 
L 698.858811 -248.529341 
L 699.417358 -250.918989 
L 700.042174 -253.308636 
L 700.719894 -255.698283 
L 701.433442 -258.087931 
L 702.164084 -260.477578 
L 702.89352 -262.867225 
L 703.605715 -265.256873 
L 704.288213 -267.64652 
L 704.932796 -270.036167 
L 705.535461 -272.425815 
L 706.095792 -274.815462 
L 706.615896 -277.205109 
L 707.099158 -279.594757 
L 707.549027 -281.984404 
L 707.968063 -284.374051 
L 708.357368 -286.763699 
L 708.716465 -289.153346 
L 709.043581 -291.542993 
L 709.33624 -293.932641 
L 709.592011 -296.322288 
L 709.809261 -298.711935 
L 709.987771 -301.101583 
L 710.129102 -303.49123 
L 710.236685 -305.880877 
L 710.315616 -308.270525 
L 710.372213 -310.660172 
L 710.413423 -313.049819 
L 710.446152 -315.439467 
L 710.476645 -317.829114 
L 710.509968 -320.218761 
L 710.549676 -322.608409 
L 710.597672 -324.998056 
L 710.654273 -327.387703 
L 710.718436 -329.777351 
L 710.788113 -332.166998 
L 710.860656 -334.556645 
L 710.933223 -336.946293 
L 711.003137 -339.33594 
L 711.068153 -341.725587 
L 711.126618 -344.115235 
L 711.17754 -346.504882 
L 711.220552 -348.894529 
L 711.255824 -351.284177 
L 711.464176 -351.284177 
L 711.464176 -351.284177 
L 711.499448 -348.894529 
L 711.54246 -346.504882 
L 711.593382 -344.115235 
L 711.651847 -341.725587 
L 711.716863 -339.33594 
L 711.786777 -336.946293 
L 711.859344 -334.556645 
L 711.931887 -332.166998 
L 712.001564 -329.777351 
L 712.065727 -327.387703 
L 712.122328 -324.998056 
L 712.170324 -322.608409 
L 712.210032 -320.218761 
L 712.243355 -317.829114 
L 712.273848 -315.439467 
L 712.306577 -313.049819 
L 712.347787 -310.660172 
L 712.404384 -308.270525 
L 712.483315 -305.880877 
L 712.590898 -303.49123 
L 712.732229 -301.101583 
L 712.910739 -298.711935 
L 713.127989 -296.322288 
L 713.38376 -293.932641 
L 713.676419 -291.542993 
L 714.003535 -289.153346 
L 714.362632 -286.763699 
L 714.751937 -284.374051 
L 715.170973 -281.984404 
L 715.620842 -279.594757 
L 716.104104 -277.205109 
L 716.624208 -274.815462 
L 717.184539 -272.425815 
L 717.787204 -270.036167 
L 718.431787 -267.64652 
L 719.114285 -265.256873 
L 719.82648 -262.867225 
L 720.555916 -260.477578 
L 721.286558 -258.087931 
L 722.000106 -255.698283 
L 722.677826 -253.308636 
L 723.302642 -250.918989 
L 723.861189 -248.529341 
L 724.345516 -246.139694 
L 724.75415 -243.750047 
L 725.092323 -241.360399 
L 725.371275 -238.970752 
L 725.606674 -236.581105 
L 725.816329 -234.191457 
L 726.017493 -231.80181 
L 726.224107 -229.412163 
L 726.444408 -227.022515 
L 726.679242 -224.632868 
L 726.921397 -222.243221 
L 727.156083 -219.853573 
L 727.362545 -217.463926 
L 727.516615 -215.074279 
L 727.593825 -212.684631 
L 727.572654 -210.294984 
L 727.437398 -207.905337 
L 727.180244 -205.515689 
L 726.802256 -203.126042 
L 726.313145 -200.736395 
L 725.729926 -198.346747 
L 725.074702 -195.9571 
L 724.371975 -193.567453 
L 723.645907 -191.177805 
L 722.917926 -188.788158 
L 722.204984 -186.398511 
L 721.518626 -184.008863 
L 720.864893 -181.619216 
L 720.244955 -179.229569 
L 719.656255 -176.839921 
L 719.093938 -174.450274 
L 718.552298 -172.060627 
L 718.026046 -169.67098 
L 717.511254 -167.281332 
L 717.005879 -164.891685 
L 716.509899 -162.502038 
L 716.02509 -160.11239 
L 715.554555 -157.722743 
L 715.102132 -155.333096 
L 714.671785 -152.943448 
L 714.267086 -150.553801 
L 713.890845 -148.164154 
L 713.54492 -145.774506 
L 713.230189 -143.384859 
L 712.946647 -140.995212 
L 712.693584 -138.605564 
L 712.469779 -136.215917 
L 712.273682 -133.82627 
L 712.103546 -131.436622 
L 711.957516 -129.046975 
L 711.833668 -126.657328 
L 711.730027 -124.26768 
L 711.644571 -121.878033 
L 711.575246 -119.488386 
L 711.519987 -117.098738 
L 711.476761 -114.709091 
z
" id="mfb19b1f63a" style="stroke:#303030;stroke-width:1.5;"/>
    </defs>
    <g clip-path="url(#pf34c5e6cfd)">
     <use style="fill:#158b6a;stroke:#303030;stroke-width:1.5;" x="0" xlink:href="#mfb19b1f63a" y="720"/>
    </g>
   </g>
   <g id="patch_3">
    <path clip-path="url(#pf34c5e6cfd)" d="M 351 1243.697484 
L 351 1243.697484 
L 351 1243.697484 
L 351 1243.697484 
z
" style="fill:#176d9c;stroke:#303030;stroke-linejoin:miter;stroke-width:0.75;"/>
   </g>
   <g id="patch_4">
    <path clip-path="url(#pf34c5e6cfd)" d="M 351 1243.697484 
L 351 1243.697484 
L 351 1243.697484 
L 351 1243.697484 
z
" style="fill:#c38820;stroke:#303030;stroke-linejoin:miter;stroke-width:0.75;"/>
   </g>
   <g id="patch_5">
    <path clip-path="url(#pf34c5e6cfd)" d="M 351 1243.697484 
L 351 1243.697484 
L 351 1243.697484 
L 351 1243.697484 
z
" style="fill:#158b6a;stroke:#303030;stroke-linejoin:miter;stroke-width:0.75;"/>
   </g>
   <g id="line2d_9">
    <path clip-path="url(#pf34c5e6cfd)" d="M 318.24 382.374723 
L 318.24 239.934299 
" style="fill:none;stroke:#303030;stroke-linecap:round;stroke-width:1.5;"/>
   </g>
   <g id="line2d_10">
    <path clip-path="url(#pf34c5e6cfd)" d="M 318.24 327.118845 
L 318.24 285.103326 
" style="fill:none;stroke:#303030;stroke-linecap:round;stroke-width:4.5;"/>
   </g>
   <g id="line2d_11">
    <path clip-path="url(#pf34c5e6cfd)" d="M 351 302.844247 
L 351 148.912918 
" style="fill:none;stroke:#303030;stroke-linecap:round;stroke-width:1.5;"/>
   </g>
   <g id="line2d_12">
    <path clip-path="url(#pf34c5e6cfd)" d="M 351 240.822333 
L 351 198.599263 
" style="fill:none;stroke:#303030;stroke-linecap:round;stroke-width:4.5;"/>
   </g>
   <g id="line2d_13">
    <path clip-path="url(#pf34c5e6cfd)" d="M 383.76 560.290639 
L 383.76 425.952965 
" style="fill:none;stroke:#303030;stroke-linecap:round;stroke-width:1.5;"/>
   </g>
   <g id="line2d_14">
    <path clip-path="url(#pf34c5e6cfd)" d="M 383.76 516.606281 
L 383.76 473.345792 
" style="fill:none;stroke:#303030;stroke-linecap:round;stroke-width:4.5;"/>
   </g>
   <g id="line2d_15">
    <path clip-path="url(#pf34c5e6cfd)" d="M 645.84 294.820959 
L 645.84 142.038675 
" style="fill:none;stroke:#303030;stroke-linecap:round;stroke-width:1.5;"/>
   </g>
   <g id="line2d_16">
    <path clip-path="url(#pf34c5e6cfd)" d="M 645.84 244.634276 
L 645.84 199.890209 
" style="fill:none;stroke:#303030;stroke-linecap:round;stroke-width:4.5;"/>
   </g>
   <g id="line2d_17">
    <path clip-path="url(#pf34c5e6cfd)" d="M 678.6 294.256701 
L 678.6 142.27865 
" style="fill:none;stroke:#303030;stroke-linecap:round;stroke-width:1.5;"/>
   </g>
   <g id="line2d_18">
    <path clip-path="url(#pf34c5e6cfd)" d="M 678.6 244.357243 
L 678.6 200.327443 
" style="fill:none;stroke:#303030;stroke-linecap:round;stroke-width:4.5;"/>
   </g>
   <g id="line2d_19">
    <path clip-path="url(#pf34c5e6cfd)" d="M 711.36 573.718267 
L 711.36 440.547068 
" style="fill:none;stroke:#303030;stroke-linecap:round;stroke-width:1.5;"/>
   </g>
   <g id="line2d_20">
    <path clip-path="url(#pf34c5e6cfd)" d="M 711.36 516.329045 
L 711.36 477.080636 
" style="fill:none;stroke:#303030;stroke-linecap:round;stroke-width:4.5;"/>
   </g>
   <g id="line2d_21">
    <path clip-path="url(#pf34c5e6cfd)" d="M 514.8 630 
L 514.8 86.4 
" style="fill:none;stroke:#000000;stroke-dasharray:5.55,2.4;stroke-dashoffset:0;stroke-opacity:0.4;stroke-width:1.5;"/>
   </g>
   <g id="patch_6">
    <path d="M 187.2 630 
L 187.2 86.4 
" style="fill:none;stroke:#262626;stroke-linecap:square;stroke-linejoin:miter;stroke-width:1.25;"/>
   </g>
   <g id="patch_7">
    <path d="M 842.4 630 
L 842.4 86.4 
" style="fill:none;stroke:#262626;stroke-linecap:square;stroke-linejoin:miter;stroke-width:1.25;"/>
   </g>
   <g id="patch_8">
    <path d="M 187.2 630 
L 842.4 630 
" style="fill:none;stroke:#262626;stroke-linecap:square;stroke-linejoin:miter;stroke-width:1.25;"/>
   </g>
   <g id="patch_9">
    <path d="M 187.2 86.4 
L 842.4 86.4 
" style="fill:none;stroke:#262626;stroke-linecap:square;stroke-linejoin:miter;stroke-width:1.25;"/>
   </g>
   <g id="PathCollection_1">
    <defs>
     <path d="M 0 1.5 
C 0.397805 1.5 0.77937 1.341951 1.06066 1.06066 
C 1.341951 0.77937 1.5 0.397805 1.5 0 
C 1.5 -0.397805 1.341951 -0.77937 1.06066 -1.06066 
C 0.77937 -1.341951 0.397805 -1.5 0 -1.5 
C -0.397805 -1.5 -0.77937 -1.341951 -1.06066 -1.06066 
C -1.341951 -0.77937 -1.5 -0.397805 -1.5 0 
C -1.5 0.397805 -1.341951 0.77937 -1.06066 1.06066 
C -0.77937 1.341951 -0.397805 1.5 0 1.5 
z
" id="m51e4f7be56" style="stroke:#303030;"/>
    </defs>
    <g clip-path="url(#pf34c5e6cfd)">
     <use style="fill:#ffffff;stroke:#303030;" x="318.24" xlink:href="#m51e4f7be56" y="306.436525"/>
    </g>
   </g>
   <g id="PathCollection_2">
    <g clip-path="url(#pf34c5e6cfd)">
     <use style="fill:#ffffff;stroke:#303030;" x="351" xlink:href="#m51e4f7be56" y="222.469893"/>
    </g>
   </g>
   <g id="PathCollection_3">
    <g clip-path="url(#pf34c5e6cfd)">
     <use style="fill:#ffffff;stroke:#303030;" x="383.76" xlink:href="#m51e4f7be56" y="488.011308"/>
    </g>
   </g>
   <g id="PathCollection_4">
    <g clip-path="url(#pf34c5e6cfd)">
     <use style="fill:#ffffff;stroke:#303030;" x="645.84" xlink:href="#m51e4f7be56" y="225.779429"/>
    </g>
   </g>
   <g id="PathCollection_5">
    <g clip-path="url(#pf34c5e6cfd)">
     <use style="fill:#ffffff;stroke:#303030;" x="678.6" xlink:href="#m51e4f7be56" y="225.360833"/>
    </g>
   </g>
   <g id="PathCollection_6">
    <g clip-path="url(#pf34c5e6cfd)">
     <use style="fill:#ffffff;stroke:#303030;" x="711.36" xlink:href="#m51e4f7be56" y="505.585407"/>
    </g>
   </g>
   <g id="text_13">
    <!-- Plot of the AUC level for full precision, limited precision and noise -->
    <defs>
     <path d="M 19.671875 64.796875 
L 19.671875 37.40625 
L 32.078125 37.40625 
Q 38.96875 37.40625 42.71875 40.96875 
Q 46.484375 44.53125 46.484375 51.125 
Q 46.484375 57.671875 42.71875 61.234375 
Q 38.96875 64.796875 32.078125 64.796875 
z
M 9.8125 72.90625 
L 32.078125 72.90625 
Q 44.34375 72.90625 50.609375 67.359375 
Q 56.890625 61.8125 56.890625 51.125 
Q 56.890625 40.328125 50.609375 34.8125 
Q 44.34375 29.296875 32.078125 29.296875 
L 19.671875 29.296875 
L 19.671875 0 
L 9.8125 0 
z
" id="DejaVuSans-80"/>
     <path d="M 9.421875 75.984375 
L 18.40625 75.984375 
L 18.40625 0 
L 9.421875 0 
z
" id="DejaVuSans-108"/>
     <path d="M 18.3125 70.21875 
L 18.3125 54.6875 
L 36.8125 54.6875 
L 36.8125 47.703125 
L 18.3125 47.703125 
L 18.3125 18.015625 
Q 18.3125 11.328125 20.140625 9.421875 
Q 21.96875 7.515625 27.59375 7.515625 
L 36.8125 7.515625 
L 36.8125 0 
L 27.59375 0 
Q 17.1875 0 13.234375 3.875 
Q 9.28125 7.765625 9.28125 18.015625 
L 9.28125 47.703125 
L 2.6875 47.703125 
L 2.6875 54.6875 
L 9.28125 54.6875 
L 9.28125 70.21875 
z
" id="DejaVuSans-116"/>
     <path id="DejaVuSans-32"/>
     <path d="M 37.109375 75.984375 
L 37.109375 68.5 
L 28.515625 68.5 
Q 23.6875 68.5 21.796875 66.546875 
Q 19.921875 64.59375 19.921875 59.515625 
L 19.921875 54.6875 
L 34.71875 54.6875 
L 34.71875 47.703125 
L 19.921875 47.703125 
L 19.921875 0 
L 10.890625 0 
L 10.890625 47.703125 
L 2.296875 47.703125 
L 2.296875 54.6875 
L 10.890625 54.6875 
L 10.890625 58.5 
Q 10.890625 67.625 15.140625 71.796875 
Q 19.390625 75.984375 28.609375 75.984375 
z
" id="DejaVuSans-102"/>
     <path d="M 54.890625 33.015625 
L 54.890625 0 
L 45.90625 0 
L 45.90625 32.71875 
Q 45.90625 40.484375 42.875 44.328125 
Q 39.84375 48.1875 33.796875 48.1875 
Q 26.515625 48.1875 22.3125 43.546875 
Q 18.109375 38.921875 18.109375 30.90625 
L 18.109375 0 
L 9.078125 0 
L 9.078125 75.984375 
L 18.109375 75.984375 
L 18.109375 46.1875 
Q 21.34375 51.125 25.703125 53.5625 
Q 30.078125 56 35.796875 56 
Q 45.21875 56 50.046875 50.171875 
Q 54.890625 44.34375 54.890625 33.015625 
z
" id="DejaVuSans-104"/>
     <path d="M 2.984375 54.6875 
L 12.5 54.6875 
L 29.59375 8.796875 
L 46.6875 54.6875 
L 56.203125 54.6875 
L 35.6875 0 
L 23.484375 0 
z
" id="DejaVuSans-118"/>
     <path d="M 41.109375 46.296875 
Q 39.59375 47.171875 37.8125 47.578125 
Q 36.03125 48 33.890625 48 
Q 26.265625 48 22.1875 43.046875 
Q 18.109375 38.09375 18.109375 28.8125 
L 18.109375 0 
L 9.078125 0 
L 9.078125 54.6875 
L 18.109375 54.6875 
L 18.109375 46.1875 
Q 20.953125 51.171875 25.484375 53.578125 
Q 30.03125 56 36.53125 56 
Q 37.453125 56 38.578125 55.875 
Q 39.703125 55.765625 41.0625 55.515625 
z
" id="DejaVuSans-114"/>
     <path d="M 8.5 21.578125 
L 8.5 54.6875 
L 17.484375 54.6875 
L 17.484375 21.921875 
Q 17.484375 14.15625 20.5 10.265625 
Q 23.53125 6.390625 29.59375 6.390625 
Q 36.859375 6.390625 41.078125 11.03125 
Q 45.3125 15.671875 45.3125 23.6875 
L 45.3125 54.6875 
L 54.296875 54.6875 
L 54.296875 0 
L 45.3125 0 
L 45.3125 8.40625 
Q 42.046875 3.421875 37.71875 1 
Q 33.40625 -1.421875 27.6875 -1.421875 
Q 18.265625 -1.421875 13.375 4.4375 
Q 8.5 10.296875 8.5 21.578125 
z
M 31.109375 56 
z
" id="DejaVuSans-117"/>
     <path d="M 18.109375 8.203125 
L 18.109375 -20.796875 
L 9.078125 -20.796875 
L 9.078125 54.6875 
L 18.109375 54.6875 
L 18.109375 46.390625 
Q 20.953125 51.265625 25.265625 53.625 
Q 29.59375 56 35.59375 56 
Q 45.5625 56 51.78125 48.09375 
Q 58.015625 40.1875 58.015625 27.296875 
Q 58.015625 14.40625 51.78125 6.484375 
Q 45.5625 -1.421875 35.59375 -1.421875 
Q 29.59375 -1.421875 25.265625 0.953125 
Q 20.953125 3.328125 18.109375 8.203125 
z
M 48.6875 27.296875 
Q 48.6875 37.203125 44.609375 42.84375 
Q 40.53125 48.484375 33.40625 48.484375 
Q 26.265625 48.484375 22.1875 42.84375 
Q 18.109375 37.203125 18.109375 27.296875 
Q 18.109375 17.390625 22.1875 11.75 
Q 26.265625 6.109375 33.40625 6.109375 
Q 40.53125 6.109375 44.609375 11.75 
Q 48.6875 17.390625 48.6875 27.296875 
z
" id="DejaVuSans-112"/>
     <path d="M 48.78125 52.59375 
L 48.78125 44.1875 
Q 44.96875 46.296875 41.140625 47.34375 
Q 37.3125 48.390625 33.40625 48.390625 
Q 24.65625 48.390625 19.8125 42.84375 
Q 14.984375 37.3125 14.984375 27.296875 
Q 14.984375 17.28125 19.8125 11.734375 
Q 24.65625 6.203125 33.40625 6.203125 
Q 37.3125 6.203125 41.140625 7.25 
Q 44.96875 8.296875 48.78125 10.40625 
L 48.78125 2.09375 
Q 45.015625 0.34375 40.984375 -0.53125 
Q 36.96875 -1.421875 32.421875 -1.421875 
Q 20.0625 -1.421875 12.78125 6.34375 
Q 5.515625 14.109375 5.515625 27.296875 
Q 5.515625 40.671875 12.859375 48.328125 
Q 20.21875 56 33.015625 56 
Q 37.15625 56 41.109375 55.140625 
Q 45.0625 54.296875 48.78125 52.59375 
z
" id="DejaVuSans-99"/>
     <path d="M 11.71875 12.40625 
L 22.015625 12.40625 
L 22.015625 4 
L 14.015625 -11.625 
L 7.71875 -11.625 
L 11.71875 4 
z
" id="DejaVuSans-44"/>
     <path d="M 52 44.1875 
Q 55.375 50.25 60.0625 53.125 
Q 64.75 56 71.09375 56 
Q 79.640625 56 84.28125 50.015625 
Q 88.921875 44.046875 88.921875 33.015625 
L 88.921875 0 
L 79.890625 0 
L 79.890625 32.71875 
Q 79.890625 40.578125 77.09375 44.375 
Q 74.3125 48.1875 68.609375 48.1875 
Q 61.625 48.1875 57.5625 43.546875 
Q 53.515625 38.921875 53.515625 30.90625 
L 53.515625 0 
L 44.484375 0 
L 44.484375 32.71875 
Q 44.484375 40.625 41.703125 44.40625 
Q 38.921875 48.1875 33.109375 48.1875 
Q 26.21875 48.1875 22.15625 43.53125 
Q 18.109375 38.875 18.109375 30.90625 
L 18.109375 0 
L 9.078125 0 
L 9.078125 54.6875 
L 18.109375 54.6875 
L 18.109375 46.1875 
Q 21.1875 51.21875 25.484375 53.609375 
Q 29.78125 56 35.6875 56 
Q 41.65625 56 45.828125 52.96875 
Q 50 49.953125 52 44.1875 
z
" id="DejaVuSans-109"/>
     <path d="M 45.40625 46.390625 
L 45.40625 75.984375 
L 54.390625 75.984375 
L 54.390625 0 
L 45.40625 0 
L 45.40625 8.203125 
Q 42.578125 3.328125 38.25 0.953125 
Q 33.9375 -1.421875 27.875 -1.421875 
Q 17.96875 -1.421875 11.734375 6.484375 
Q 5.515625 14.40625 5.515625 27.296875 
Q 5.515625 40.1875 11.734375 48.09375 
Q 17.96875 56 27.875 56 
Q 33.9375 56 38.25 53.625 
Q 42.578125 51.265625 45.40625 46.390625 
z
M 14.796875 27.296875 
Q 14.796875 17.390625 18.875 11.75 
Q 22.953125 6.109375 30.078125 6.109375 
Q 37.203125 6.109375 41.296875 11.75 
Q 45.40625 17.390625 45.40625 27.296875 
Q 45.40625 37.203125 41.296875 42.84375 
Q 37.203125 48.484375 30.078125 48.484375 
Q 22.953125 48.484375 18.875 42.84375 
Q 14.796875 37.203125 14.796875 27.296875 
z
" id="DejaVuSans-100"/>
     <path d="M 34.28125 27.484375 
Q 23.390625 27.484375 19.1875 25 
Q 14.984375 22.515625 14.984375 16.5 
Q 14.984375 11.71875 18.140625 8.90625 
Q 21.296875 6.109375 26.703125 6.109375 
Q 34.1875 6.109375 38.703125 11.40625 
Q 43.21875 16.703125 43.21875 25.484375 
L 43.21875 27.484375 
z
M 52.203125 31.203125 
L 52.203125 0 
L 43.21875 0 
L 43.21875 8.296875 
Q 40.140625 3.328125 35.546875 0.953125 
Q 30.953125 -1.421875 24.3125 -1.421875 
Q 15.921875 -1.421875 10.953125 3.296875 
Q 6 8.015625 6 15.921875 
Q 6 25.140625 12.171875 29.828125 
Q 18.359375 34.515625 30.609375 34.515625 
L 43.21875 34.515625 
L 43.21875 35.40625 
Q 43.21875 41.609375 39.140625 45 
Q 35.0625 48.390625 27.6875 48.390625 
Q 23 48.390625 18.546875 47.265625 
Q 14.109375 46.140625 10.015625 43.890625 
L 10.015625 52.203125 
Q 14.9375 54.109375 19.578125 55.046875 
Q 24.21875 56 28.609375 56 
Q 40.484375 56 46.34375 49.84375 
Q 52.203125 43.703125 52.203125 31.203125 
z
" id="DejaVuSans-97"/>
    </defs>
    <g style="fill:#262626;" transform="translate(318.186562 80.4)scale(0.12 -0.12)">
     <use xlink:href="#DejaVuSans-80"/>
     <use x="60.302734" xlink:href="#DejaVuSans-108"/>
     <use x="88.085938" xlink:href="#DejaVuSans-111"/>
     <use x="149.267578" xlink:href="#DejaVuSans-116"/>
     <use x="188.476562" xlink:href="#DejaVuSans-32"/>
     <use x="220.263672" xlink:href="#DejaVuSans-111"/>
     <use x="281.445312" xlink:href="#DejaVuSans-102"/>
     <use x="316.650391" xlink:href="#DejaVuSans-32"/>
     <use x="348.4375" xlink:href="#DejaVuSans-116"/>
     <use x="387.646484" xlink:href="#DejaVuSans-104"/>
     <use x="451.025391" xlink:href="#DejaVuSans-101"/>
     <use x="512.548828" xlink:href="#DejaVuSans-32"/>
     <use x="544.335938" xlink:href="#DejaVuSans-65"/>
     <use x="612.744141" xlink:href="#DejaVuSans-85"/>
     <use x="685.9375" xlink:href="#DejaVuSans-67"/>
     <use x="755.761719" xlink:href="#DejaVuSans-32"/>
     <use x="787.548828" xlink:href="#DejaVuSans-108"/>
     <use x="815.332031" xlink:href="#DejaVuSans-101"/>
     <use x="876.855469" xlink:href="#DejaVuSans-118"/>
     <use x="936.035156" xlink:href="#DejaVuSans-101"/>
     <use x="997.558594" xlink:href="#DejaVuSans-108"/>
     <use x="1025.341797" xlink:href="#DejaVuSans-32"/>
     <use x="1057.128906" xlink:href="#DejaVuSans-102"/>
     <use x="1092.333984" xlink:href="#DejaVuSans-111"/>
     <use x="1153.515625" xlink:href="#DejaVuSans-114"/>
     <use x="1194.628906" xlink:href="#DejaVuSans-32"/>
     <use x="1226.416016" xlink:href="#DejaVuSans-102"/>
     <use x="1261.621094" xlink:href="#DejaVuSans-117"/>
     <use x="1325" xlink:href="#DejaVuSans-108"/>
     <use x="1352.783203" xlink:href="#DejaVuSans-108"/>
     <use x="1380.566406" xlink:href="#DejaVuSans-32"/>
     <use x="1412.353516" xlink:href="#DejaVuSans-112"/>
     <use x="1475.830078" xlink:href="#DejaVuSans-114"/>
     <use x="1516.912109" xlink:href="#DejaVuSans-101"/>
     <use x="1578.435547" xlink:href="#DejaVuSans-99"/>
     <use x="1633.416016" xlink:href="#DejaVuSans-105"/>
     <use x="1661.199219" xlink:href="#DejaVuSans-115"/>
     <use x="1713.298828" xlink:href="#DejaVuSans-105"/>
     <use x="1741.082031" xlink:href="#DejaVuSans-111"/>
     <use x="1802.263672" xlink:href="#DejaVuSans-110"/>
     <use x="1865.642578" xlink:href="#DejaVuSans-44"/>
     <use x="1897.429688" xlink:href="#DejaVuSans-32"/>
     <use x="1929.216797" xlink:href="#DejaVuSans-108"/>
     <use x="1957" xlink:href="#DejaVuSans-105"/>
     <use x="1984.783203" xlink:href="#DejaVuSans-109"/>
     <use x="2082.195312" xlink:href="#DejaVuSans-105"/>
     <use x="2109.978516" xlink:href="#DejaVuSans-116"/>
     <use x="2149.1875" xlink:href="#DejaVuSans-101"/>
     <use x="2210.710938" xlink:href="#DejaVuSans-100"/>
     <use x="2274.1875" xlink:href="#DejaVuSans-32"/>
     <use x="2305.974609" xlink:href="#DejaVuSans-112"/>
     <use x="2369.451172" xlink:href="#DejaVuSans-114"/>
     <use x="2410.533203" xlink:href="#DejaVuSans-101"/>
     <use x="2472.056641" xlink:href="#DejaVuSans-99"/>
     <use x="2527.037109" xlink:href="#DejaVuSans-105"/>
     <use x="2554.820312" xlink:href="#DejaVuSans-115"/>
     <use x="2606.919922" xlink:href="#DejaVuSans-105"/>
     <use x="2634.703125" xlink:href="#DejaVuSans-111"/>
     <use x="2695.884766" xlink:href="#DejaVuSans-110"/>
     <use x="2759.263672" xlink:href="#DejaVuSans-32"/>
     <use x="2791.050781" xlink:href="#DejaVuSans-97"/>
     <use x="2852.330078" xlink:href="#DejaVuSans-110"/>
     <use x="2915.708984" xlink:href="#DejaVuSans-100"/>
     <use x="2979.185547" xlink:href="#DejaVuSans-32"/>
     <use x="3010.972656" xlink:href="#DejaVuSans-110"/>
     <use x="3074.351562" xlink:href="#DejaVuSans-111"/>
     <use x="3135.533203" xlink:href="#DejaVuSans-105"/>
     <use x="3163.316406" xlink:href="#DejaVuSans-115"/>
     <use x="3215.416016" xlink:href="#DejaVuSans-101"/>
    </g>
   </g>
   <g id="legend_1">
    <g id="patch_10">
     <path d="M 196.3 623.5 
L 365.622969 623.5 
Q 368.222969 623.5 368.222969 620.9 
L 368.222969 564.955312 
Q 368.222969 562.355312 365.622969 562.355312 
L 196.3 562.355312 
Q 193.7 562.355312 193.7 564.955312 
L 193.7 620.9 
Q 193.7 623.5 196.3 623.5 
z
" style="fill:#ffffff;opacity:0.8;stroke:#cccccc;stroke-linejoin:miter;"/>
    </g>
    <g id="patch_11">
     <path d="M 198.9 577.433281 
L 224.9 577.433281 
L 224.9 568.333281 
L 198.9 568.333281 
z
" style="fill:#176d9c;stroke:#303030;stroke-linejoin:miter;stroke-width:0.75;"/>
    </g>
    <g id="text_14">
     <!-- maximal precision -->
     <defs>
      <path d="M 54.890625 54.6875 
L 35.109375 28.078125 
L 55.90625 0 
L 45.3125 0 
L 29.390625 21.484375 
L 13.484375 0 
L 2.875 0 
L 24.125 28.609375 
L 4.6875 54.6875 
L 15.28125 54.6875 
L 29.78125 35.203125 
L 44.28125 54.6875 
z
" id="DejaVuSans-120"/>
     </defs>
     <g style="fill:#262626;" transform="translate(235.3 577.433281)scale(0.13 -0.13)">
      <use xlink:href="#DejaVuSans-109"/>
      <use x="97.412109" xlink:href="#DejaVuSans-97"/>
      <use x="158.691406" xlink:href="#DejaVuSans-120"/>
      <use x="217.871094" xlink:href="#DejaVuSans-105"/>
      <use x="245.654297" xlink:href="#DejaVuSans-109"/>
      <use x="343.066406" xlink:href="#DejaVuSans-97"/>
      <use x="404.345703" xlink:href="#DejaVuSans-108"/>
      <use x="432.128906" xlink:href="#DejaVuSans-32"/>
      <use x="463.916016" xlink:href="#DejaVuSans-112"/>
      <use x="527.392578" xlink:href="#DejaVuSans-114"/>
      <use x="568.474609" xlink:href="#DejaVuSans-101"/>
      <use x="629.998047" xlink:href="#DejaVuSans-99"/>
      <use x="684.978516" xlink:href="#DejaVuSans-105"/>
      <use x="712.761719" xlink:href="#DejaVuSans-115"/>
      <use x="764.861328" xlink:href="#DejaVuSans-105"/>
      <use x="792.644531" xlink:href="#DejaVuSans-111"/>
      <use x="853.826172" xlink:href="#DejaVuSans-110"/>
     </g>
    </g>
    <g id="patch_12">
     <path d="M 198.9 596.514844 
L 224.9 596.514844 
L 224.9 587.414844 
L 198.9 587.414844 
z
" style="fill:#c38820;stroke:#303030;stroke-linejoin:miter;stroke-width:0.75;"/>
    </g>
    <g id="text_15">
     <!-- precision of 3 digits -->
     <defs>
      <path d="M 40.578125 39.3125 
Q 47.65625 37.796875 51.625 33 
Q 55.609375 28.21875 55.609375 21.1875 
Q 55.609375 10.40625 48.1875 4.484375 
Q 40.765625 -1.421875 27.09375 -1.421875 
Q 22.515625 -1.421875 17.65625 -0.515625 
Q 12.796875 0.390625 7.625 2.203125 
L 7.625 11.71875 
Q 11.71875 9.328125 16.59375 8.109375 
Q 21.484375 6.890625 26.8125 6.890625 
Q 36.078125 6.890625 40.9375 10.546875 
Q 45.796875 14.203125 45.796875 21.1875 
Q 45.796875 27.640625 41.28125 31.265625 
Q 36.765625 34.90625 28.71875 34.90625 
L 20.21875 34.90625 
L 20.21875 43.015625 
L 29.109375 43.015625 
Q 36.375 43.015625 40.234375 45.921875 
Q 44.09375 48.828125 44.09375 54.296875 
Q 44.09375 59.90625 40.109375 62.90625 
Q 36.140625 65.921875 28.71875 65.921875 
Q 24.65625 65.921875 20.015625 65.03125 
Q 15.375 64.15625 9.8125 62.3125 
L 9.8125 71.09375 
Q 15.4375 72.65625 20.34375 73.4375 
Q 25.25 74.21875 29.59375 74.21875 
Q 40.828125 74.21875 47.359375 69.109375 
Q 53.90625 64.015625 53.90625 55.328125 
Q 53.90625 49.265625 50.4375 45.09375 
Q 46.96875 40.921875 40.578125 39.3125 
z
" id="DejaVuSans-51"/>
      <path d="M 45.40625 27.984375 
Q 45.40625 37.75 41.375 43.109375 
Q 37.359375 48.484375 30.078125 48.484375 
Q 22.859375 48.484375 18.828125 43.109375 
Q 14.796875 37.75 14.796875 27.984375 
Q 14.796875 18.265625 18.828125 12.890625 
Q 22.859375 7.515625 30.078125 7.515625 
Q 37.359375 7.515625 41.375 12.890625 
Q 45.40625 18.265625 45.40625 27.984375 
z
M 54.390625 6.78125 
Q 54.390625 -7.171875 48.1875 -13.984375 
Q 42 -20.796875 29.203125 -20.796875 
Q 24.46875 -20.796875 20.265625 -20.09375 
Q 16.0625 -19.390625 12.109375 -17.921875 
L 12.109375 -9.1875 
Q 16.0625 -11.328125 19.921875 -12.34375 
Q 23.78125 -13.375 27.78125 -13.375 
Q 36.625 -13.375 41.015625 -8.765625 
Q 45.40625 -4.15625 45.40625 5.171875 
L 45.40625 9.625 
Q 42.625 4.78125 38.28125 2.390625 
Q 33.9375 0 27.875 0 
Q 17.828125 0 11.671875 7.65625 
Q 5.515625 15.328125 5.515625 27.984375 
Q 5.515625 40.671875 11.671875 48.328125 
Q 17.828125 56 27.875 56 
Q 33.9375 56 38.28125 53.609375 
Q 42.625 51.21875 45.40625 46.390625 
L 45.40625 54.6875 
L 54.390625 54.6875 
z
" id="DejaVuSans-103"/>
     </defs>
     <g style="fill:#262626;" transform="translate(235.3 596.514844)scale(0.13 -0.13)">
      <use xlink:href="#DejaVuSans-112"/>
      <use x="63.476562" xlink:href="#DejaVuSans-114"/>
      <use x="104.558594" xlink:href="#DejaVuSans-101"/>
      <use x="166.082031" xlink:href="#DejaVuSans-99"/>
      <use x="221.0625" xlink:href="#DejaVuSans-105"/>
      <use x="248.845703" xlink:href="#DejaVuSans-115"/>
      <use x="300.945312" xlink:href="#DejaVuSans-105"/>
      <use x="328.728516" xlink:href="#DejaVuSans-111"/>
      <use x="389.910156" xlink:href="#DejaVuSans-110"/>
      <use x="453.289062" xlink:href="#DejaVuSans-32"/>
      <use x="485.076172" xlink:href="#DejaVuSans-111"/>
      <use x="546.257812" xlink:href="#DejaVuSans-102"/>
      <use x="581.462891" xlink:href="#DejaVuSans-32"/>
      <use x="613.25" xlink:href="#DejaVuSans-51"/>
      <use x="676.873047" xlink:href="#DejaVuSans-32"/>
      <use x="708.660156" xlink:href="#DejaVuSans-100"/>
      <use x="772.136719" xlink:href="#DejaVuSans-105"/>
      <use x="799.919922" xlink:href="#DejaVuSans-103"/>
      <use x="863.396484" xlink:href="#DejaVuSans-105"/>
      <use x="891.179688" xlink:href="#DejaVuSans-116"/>
      <use x="930.388672" xlink:href="#DejaVuSans-115"/>
     </g>
    </g>
    <g id="patch_13">
     <path d="M 198.9 615.596406 
L 224.9 615.596406 
L 224.9 606.496406 
L 198.9 606.496406 
z
" style="fill:#158b6a;stroke:#303030;stroke-linejoin:miter;stroke-width:0.75;"/>
    </g>
    <g id="text_16">
     <!-- noise of $10^{-4}$ -->
     <defs>
      <path d="M 9.28125 0 
L 9.28125 3.515625 
Q 21.78125 3.515625 21.78125 6.6875 
L 21.78125 59.1875 
Q 16.609375 56.6875 8.6875 56.6875 
L 8.6875 60.203125 
Q 20.953125 60.203125 27.203125 66.609375 
L 28.609375 66.609375 
Q 28.953125 66.609375 29.265625 66.328125 
Q 29.59375 66.0625 29.59375 65.71875 
L 29.59375 6.6875 
Q 29.59375 3.515625 42.09375 3.515625 
L 42.09375 0 
z
" id="Cmr10-49"/>
      <path d="M 25 -2.203125 
Q 12.75 -2.203125 8.328125 7.875 
Q 3.90625 17.96875 3.90625 31.890625 
Q 3.90625 40.578125 5.484375 48.234375 
Q 7.078125 55.90625 11.78125 61.25 
Q 16.5 66.609375 25 66.609375 
Q 31.59375 66.609375 35.78125 63.375 
Q 39.984375 60.15625 42.1875 55.046875 
Q 44.390625 49.953125 45.1875 44.109375 
Q 46 38.28125 46 31.890625 
Q 46 23.296875 44.40625 15.796875 
Q 42.828125 8.296875 38.1875 3.046875 
Q 33.546875 -2.203125 25 -2.203125 
z
M 25 0.390625 
Q 30.5625 0.390625 33.296875 6.09375 
Q 36.03125 11.8125 36.671875 18.75 
Q 37.3125 25.6875 37.3125 33.5 
Q 37.3125 41.015625 36.671875 47.359375 
Q 36.03125 53.71875 33.3125 58.859375 
Q 30.609375 64.015625 25 64.015625 
Q 19.34375 64.015625 16.609375 58.828125 
Q 13.875 53.65625 13.234375 47.328125 
Q 12.59375 41.015625 12.59375 33.5 
Q 12.59375 27.9375 12.859375 23 
Q 13.140625 18.0625 14.3125 12.8125 
Q 15.484375 7.5625 18.09375 3.96875 
Q 20.703125 0.390625 25 0.390625 
z
" id="Cmr10-48"/>
      <path d="M 10.203125 23 
Q 9.375 23 8.828125 23.625 
Q 8.296875 24.265625 8.296875 25 
Q 8.296875 25.734375 8.828125 26.359375 
Q 9.375 27 10.203125 27 
L 67.578125 27 
Q 68.359375 27 68.875 26.359375 
Q 69.390625 25.734375 69.390625 25 
Q 69.390625 24.265625 68.875 23.625 
Q 68.359375 23 67.578125 23 
z
" id="Cmsy10-161"/>
      <path d="M 2.78125 16.5 
L 2.78125 20.015625 
L 33.6875 66.109375 
Q 34.03125 66.609375 34.71875 66.609375 
L 36.1875 66.609375 
Q 37.3125 66.609375 37.3125 65.484375 
L 37.3125 20.015625 
L 47.125 20.015625 
L 47.125 16.5 
L 37.3125 16.5 
L 37.3125 6.6875 
Q 37.3125 4.640625 40.234375 4.078125 
Q 43.171875 3.515625 47.015625 3.515625 
L 47.015625 0 
L 19.484375 0 
L 19.484375 3.515625 
Q 23.34375 3.515625 26.265625 4.078125 
Q 29.203125 4.640625 29.203125 6.6875 
L 29.203125 16.5 
z
M 6.109375 20.015625 
L 29.78125 20.015625 
L 29.78125 55.421875 
z
" id="Cmr10-52"/>
     </defs>
     <g style="fill:#262626;" transform="translate(235.3 615.596406)scale(0.13 -0.13)">
      <use transform="translate(0 0.109375)" xlink:href="#DejaVuSans-110"/>
      <use transform="translate(63.378906 0.109375)" xlink:href="#DejaVuSans-111"/>
      <use transform="translate(124.560547 0.109375)" xlink:href="#DejaVuSans-105"/>
      <use transform="translate(152.34375 0.109375)" xlink:href="#DejaVuSans-115"/>
      <use transform="translate(204.443359 0.109375)" xlink:href="#DejaVuSans-101"/>
      <use transform="translate(265.966797 0.109375)" xlink:href="#DejaVuSans-32"/>
      <use transform="translate(297.753906 0.109375)" xlink:href="#DejaVuSans-111"/>
      <use transform="translate(358.935547 0.109375)" xlink:href="#DejaVuSans-102"/>
      <use transform="translate(394.140625 0.109375)" xlink:href="#DejaVuSans-32"/>
      <use transform="translate(425.927734 0.109375)" xlink:href="#Cmr10-49"/>
      <use transform="translate(475.927734 0.109375)" xlink:href="#Cmr10-48"/>
      <use transform="translate(530.391875 38.373438)scale(0.7)" xlink:href="#Cmsy10-161"/>
      <use transform="translate(584.771758 38.373438)scale(0.7)" xlink:href="#Cmr10-52"/>
     </g>
    </g>
   </g>
  </g>
 </g>
 <defs>
  <clipPath id="pf34c5e6cfd">
   <rect height="543.6" width="655.2" x="187.2" y="86.4"/>
  </clipPath>
 </defs>
</svg>
